G04 #@! TF.FileFunction,Soldermask,Top*
%FSLAX46Y46*%
G04 Gerber Fmt 4.6, Leading zero omitted, Abs format (unit mm)*
G04 Created by KiCad (PCBNEW 4.0.5) date 02/17/17 15:16:51*
%MOMM*%
%LPD*%
G01*
G04 APERTURE LIST*
%ADD10C,0.100000*%
%ADD11C,5.200000*%
%ADD12R,1.400000X1.650000*%
%ADD13C,1.924000*%
%ADD14R,1.797000X1.797000*%
%ADD15C,1.797000*%
%ADD16R,1.100000X1.700000*%
%ADD17R,1.700000X1.100000*%
%ADD18R,1.350000X0.620000*%
%ADD19R,0.600000X1.400000*%
%ADD20C,3.702000*%
%ADD21C,2.178000*%
%ADD22R,2.178000X2.178000*%
G04 APERTURE END LIST*
D10*
D11*
X156370000Y-105000000D03*
D12*
X152400000Y-111600000D03*
X154400000Y-111600000D03*
X132600000Y-112000000D03*
X134600000Y-112000000D03*
X130400000Y-112000000D03*
X128400000Y-112000000D03*
X136800000Y-112000000D03*
X138800000Y-112000000D03*
D13*
X131500000Y-108000000D03*
X131500000Y-106000000D03*
X131500000Y-104000000D03*
X131500000Y-102000000D03*
D14*
X167480000Y-110130000D03*
D15*
X167480000Y-112670000D03*
X164940000Y-110130000D03*
X164940000Y-112670000D03*
X162400000Y-110130000D03*
X162400000Y-112670000D03*
X159860000Y-110130000D03*
X159860000Y-112670000D03*
X157320000Y-110130000D03*
X157320000Y-112670000D03*
D16*
X136250000Y-97800000D03*
X138150000Y-97800000D03*
X142450000Y-97800000D03*
X144350000Y-97800000D03*
D17*
X165000000Y-98750000D03*
X165000000Y-96850000D03*
X167600000Y-107750000D03*
X167600000Y-105850000D03*
D18*
X143425000Y-110800000D03*
X143425000Y-111300000D03*
X143425000Y-111800000D03*
X143425000Y-112300000D03*
X143425000Y-112800000D03*
X147375000Y-112800000D03*
X147375000Y-112300000D03*
X147375000Y-111800000D03*
X147375000Y-111300000D03*
X147375000Y-110800000D03*
D19*
X147425000Y-107500000D03*
X148075000Y-107500000D03*
X148725000Y-107500000D03*
X149375000Y-107500000D03*
X149375000Y-102500000D03*
X148725000Y-102500000D03*
X148075000Y-102500000D03*
X147425000Y-102500000D03*
D20*
X125641100Y-96113600D03*
X125641100Y-113893600D03*
X171361100Y-113893600D03*
X171361100Y-96113600D03*
D21*
X129451100Y-115163600D03*
X131991100Y-115163600D03*
X134531100Y-115163600D03*
X137071100Y-115163600D03*
X139611100Y-115163600D03*
X142151100Y-115163600D03*
X144691100Y-115163600D03*
X147231100Y-115163600D03*
X149771100Y-115163600D03*
X152311100Y-115163600D03*
X154851100Y-115163600D03*
X157391100Y-115163600D03*
X159931100Y-115163600D03*
X162471100Y-115163600D03*
X165011100Y-115163600D03*
D22*
X167551100Y-115163600D03*
D21*
X142151100Y-94843600D03*
D22*
X139611100Y-94843600D03*
D21*
X144691100Y-94843600D03*
X147231100Y-94843600D03*
X149771100Y-94843600D03*
X152311100Y-94843600D03*
X154851100Y-94843600D03*
X157391100Y-94843600D03*
X159931100Y-94843600D03*
X162471100Y-94843600D03*
X165011100Y-94843600D03*
X167551100Y-94843600D03*
D11*
X140430000Y-105000000D03*
M02*
