M48
;DRILL file {KiCad 4.0.5} date 02/17/17 15:16:55
;FORMAT={-:-/ absolute / inch / decimal}
FMAT,2
INCH,TZ
T1C0.016
T2C0.030
T3C0.032
T4C0.039
T5C0.100
%
G90
G05
M72
T1
X5.5591Y-4.4409
X5.7008Y-4.4213
X5.7165Y-3.9724
X5.7323Y-3.8819
X5.7598Y-3.9173
X5.7598Y-4.3071
X5.7638Y-3.8425
X5.8268Y-3.9646
X5.8583Y-4.2874
X5.874Y-4.3465
X5.8898Y-3.9488
X5.9173Y-3.9803
X5.9213Y-4.3701
X5.9232Y-4.4291
X5.9449Y-3.9488
X5.9488Y-4.2992
X5.9961Y-4.4547
X6.3504Y-3.7913
X6.4961Y-4.0157
T2
X5.1772Y-4.0157
X5.1772Y-4.0945
X5.1772Y-4.1732
X5.1772Y-4.252
T3
X6.1937Y-4.3358
X6.1937Y-4.4358
X6.2937Y-4.3358
X6.2937Y-4.4358
X6.3937Y-4.3358
X6.3937Y-4.4358
X6.4937Y-4.3358
X6.4937Y-4.4358
X6.5937Y-4.3358
X6.5937Y-4.4358
T4
X5.0965Y-4.534
X5.1965Y-4.534
X5.2965Y-4.534
X5.3965Y-4.534
X5.4965Y-3.734
X5.4965Y-4.534
X5.5965Y-3.734
X5.5965Y-4.534
X5.6965Y-3.734
X5.6965Y-4.534
X5.7965Y-3.734
X5.7965Y-4.534
X5.8965Y-3.734
X5.8965Y-4.534
X5.9965Y-3.734
X5.9965Y-4.534
X6.0965Y-3.734
X6.0965Y-4.534
X6.1965Y-3.734
X6.1965Y-4.534
X6.2965Y-3.734
X6.2965Y-4.534
X6.3965Y-3.734
X6.3965Y-4.534
X6.4965Y-3.734
X6.4965Y-4.534
X6.5965Y-3.734
X6.5965Y-4.534
T5
X4.9465Y-3.784
X4.9465Y-4.484
X6.7465Y-3.784
X6.7465Y-4.484
T0
M30
