G04 #@! TF.FileFunction,Legend,Top*
%FSLAX46Y46*%
G04 Gerber Fmt 4.6, Leading zero omitted, Abs format (unit mm)*
G04 Created by KiCad (PCBNEW 4.0.5) date 02/17/17 15:16:51*
%MOMM*%
%LPD*%
G01*
G04 APERTURE LIST*
%ADD10C,0.100000*%
%ADD11C,0.125000*%
%ADD12C,0.250000*%
%ADD13C,0.120000*%
%ADD14C,0.150000*%
%ADD15C,0.010000*%
%ADD16C,0.304800*%
G04 APERTURE END LIST*
D10*
D11*
X162849999Y-104550000D02*
X163016666Y-105016667D01*
X163183332Y-104550000D01*
X163583332Y-104316667D02*
X163649999Y-104316667D01*
X163716665Y-104350000D01*
X163749999Y-104383333D01*
X163783332Y-104450000D01*
X163816665Y-104583333D01*
X163816665Y-104750000D01*
X163783332Y-104883333D01*
X163749999Y-104950000D01*
X163716665Y-104983333D01*
X163649999Y-105016667D01*
X163583332Y-105016667D01*
X163516665Y-104983333D01*
X163483332Y-104950000D01*
X163449999Y-104883333D01*
X163416665Y-104750000D01*
X163416665Y-104583333D01*
X163449999Y-104450000D01*
X163483332Y-104383333D01*
X163516665Y-104350000D01*
X163583332Y-104316667D01*
X164116666Y-104950000D02*
X164149999Y-104983333D01*
X164116666Y-105016667D01*
X164083332Y-104983333D01*
X164116666Y-104950000D01*
X164116666Y-105016667D01*
X164816665Y-105016667D02*
X164416665Y-105016667D01*
X164616665Y-105016667D02*
X164616665Y-104316667D01*
X164549999Y-104416667D01*
X164483332Y-104483333D01*
X164416665Y-104516667D01*
X166016665Y-105016667D02*
X165616665Y-105016667D01*
X165816665Y-105016667D02*
X165816665Y-104316667D01*
X165749999Y-104416667D01*
X165683332Y-104483333D01*
X165616665Y-104516667D01*
X166616666Y-104550000D02*
X166616666Y-105016667D01*
X166449999Y-104283333D02*
X166283332Y-104783333D01*
X166716666Y-104783333D01*
X166983333Y-104750000D02*
X167516666Y-104750000D01*
X168083333Y-104650000D02*
X167850000Y-104650000D01*
X167850000Y-105016667D02*
X167850000Y-104316667D01*
X168183333Y-104316667D01*
X168716666Y-104983333D02*
X168650000Y-105016667D01*
X168516666Y-105016667D01*
X168450000Y-104983333D01*
X168416666Y-104916667D01*
X168416666Y-104650000D01*
X168450000Y-104583333D01*
X168516666Y-104550000D01*
X168650000Y-104550000D01*
X168716666Y-104583333D01*
X168750000Y-104650000D01*
X168750000Y-104716667D01*
X168416666Y-104783333D01*
X169050000Y-105016667D02*
X169050000Y-104316667D01*
X169050000Y-104583333D02*
X169116666Y-104550000D01*
X169250000Y-104550000D01*
X169316666Y-104583333D01*
X169350000Y-104616667D01*
X169383333Y-104683333D01*
X169383333Y-104883333D01*
X169350000Y-104950000D01*
X169316666Y-104983333D01*
X169250000Y-105016667D01*
X169116666Y-105016667D01*
X169050000Y-104983333D01*
X169683333Y-104750000D02*
X170216666Y-104750000D01*
X170516666Y-104383333D02*
X170550000Y-104350000D01*
X170616666Y-104316667D01*
X170783333Y-104316667D01*
X170850000Y-104350000D01*
X170883333Y-104383333D01*
X170916666Y-104450000D01*
X170916666Y-104516667D01*
X170883333Y-104616667D01*
X170483333Y-105016667D01*
X170916666Y-105016667D01*
X171350000Y-104316667D02*
X171416667Y-104316667D01*
X171483333Y-104350000D01*
X171516667Y-104383333D01*
X171550000Y-104450000D01*
X171583333Y-104583333D01*
X171583333Y-104750000D01*
X171550000Y-104883333D01*
X171516667Y-104950000D01*
X171483333Y-104983333D01*
X171416667Y-105016667D01*
X171350000Y-105016667D01*
X171283333Y-104983333D01*
X171250000Y-104950000D01*
X171216667Y-104883333D01*
X171183333Y-104750000D01*
X171183333Y-104583333D01*
X171216667Y-104450000D01*
X171250000Y-104383333D01*
X171283333Y-104350000D01*
X171350000Y-104316667D01*
X172250000Y-105016667D02*
X171850000Y-105016667D01*
X172050000Y-105016667D02*
X172050000Y-104316667D01*
X171983334Y-104416667D01*
X171916667Y-104483333D01*
X171850000Y-104516667D01*
X172483334Y-104316667D02*
X172950001Y-104316667D01*
X172650001Y-105016667D01*
D12*
X159633332Y-102752381D02*
X160204761Y-102752381D01*
X159919046Y-103752381D02*
X159919046Y-102752381D01*
X160538094Y-103752381D02*
X160538094Y-102752381D01*
X160871428Y-103466667D01*
X161204761Y-102752381D01*
X161204761Y-103752381D01*
X162252380Y-103752381D02*
X161919046Y-103276190D01*
X161680951Y-103752381D02*
X161680951Y-102752381D01*
X162061904Y-102752381D01*
X162157142Y-102800000D01*
X162204761Y-102847619D01*
X162252380Y-102942857D01*
X162252380Y-103085714D01*
X162204761Y-103180952D01*
X162157142Y-103228571D01*
X162061904Y-103276190D01*
X161680951Y-103276190D01*
X163395237Y-103466667D02*
X163871428Y-103466667D01*
X163299999Y-103752381D02*
X163633332Y-102752381D01*
X163966666Y-103752381D01*
X164299999Y-103085714D02*
X164299999Y-103752381D01*
X164299999Y-103180952D02*
X164347618Y-103133333D01*
X164442856Y-103085714D01*
X164585714Y-103085714D01*
X164680952Y-103133333D01*
X164728571Y-103228571D01*
X164728571Y-103752381D01*
X165633333Y-103085714D02*
X165633333Y-103895238D01*
X165585714Y-103990476D01*
X165538095Y-104038095D01*
X165442856Y-104085714D01*
X165299999Y-104085714D01*
X165204761Y-104038095D01*
X165633333Y-103704762D02*
X165538095Y-103752381D01*
X165347618Y-103752381D01*
X165252380Y-103704762D01*
X165204761Y-103657143D01*
X165157142Y-103561905D01*
X165157142Y-103276190D01*
X165204761Y-103180952D01*
X165252380Y-103133333D01*
X165347618Y-103085714D01*
X165538095Y-103085714D01*
X165633333Y-103133333D01*
X166252380Y-103752381D02*
X166157142Y-103704762D01*
X166109523Y-103609524D01*
X166109523Y-102752381D01*
X167014286Y-103704762D02*
X166919048Y-103752381D01*
X166728571Y-103752381D01*
X166633333Y-103704762D01*
X166585714Y-103609524D01*
X166585714Y-103228571D01*
X166633333Y-103133333D01*
X166728571Y-103085714D01*
X166919048Y-103085714D01*
X167014286Y-103133333D01*
X167061905Y-103228571D01*
X167061905Y-103323810D01*
X166585714Y-103419048D01*
X168204762Y-103704762D02*
X168347619Y-103752381D01*
X168585715Y-103752381D01*
X168680953Y-103704762D01*
X168728572Y-103657143D01*
X168776191Y-103561905D01*
X168776191Y-103466667D01*
X168728572Y-103371429D01*
X168680953Y-103323810D01*
X168585715Y-103276190D01*
X168395238Y-103228571D01*
X168300000Y-103180952D01*
X168252381Y-103133333D01*
X168204762Y-103038095D01*
X168204762Y-102942857D01*
X168252381Y-102847619D01*
X168300000Y-102800000D01*
X168395238Y-102752381D01*
X168633334Y-102752381D01*
X168776191Y-102800000D01*
X169585715Y-103704762D02*
X169490477Y-103752381D01*
X169300000Y-103752381D01*
X169204762Y-103704762D01*
X169157143Y-103609524D01*
X169157143Y-103228571D01*
X169204762Y-103133333D01*
X169300000Y-103085714D01*
X169490477Y-103085714D01*
X169585715Y-103133333D01*
X169633334Y-103228571D01*
X169633334Y-103323810D01*
X169157143Y-103419048D01*
X170061905Y-103085714D02*
X170061905Y-103752381D01*
X170061905Y-103180952D02*
X170109524Y-103133333D01*
X170204762Y-103085714D01*
X170347620Y-103085714D01*
X170442858Y-103133333D01*
X170490477Y-103228571D01*
X170490477Y-103752381D01*
X170919048Y-103704762D02*
X171014286Y-103752381D01*
X171204762Y-103752381D01*
X171300001Y-103704762D01*
X171347620Y-103609524D01*
X171347620Y-103561905D01*
X171300001Y-103466667D01*
X171204762Y-103419048D01*
X171061905Y-103419048D01*
X170966667Y-103371429D01*
X170919048Y-103276190D01*
X170919048Y-103228571D01*
X170966667Y-103133333D01*
X171061905Y-103085714D01*
X171204762Y-103085714D01*
X171300001Y-103133333D01*
X171919048Y-103752381D02*
X171823810Y-103704762D01*
X171776191Y-103657143D01*
X171728572Y-103561905D01*
X171728572Y-103276190D01*
X171776191Y-103180952D01*
X171823810Y-103133333D01*
X171919048Y-103085714D01*
X172061906Y-103085714D01*
X172157144Y-103133333D01*
X172204763Y-103180952D01*
X172252382Y-103276190D01*
X172252382Y-103561905D01*
X172204763Y-103657143D01*
X172157144Y-103704762D01*
X172061906Y-103752381D01*
X171919048Y-103752381D01*
X172680953Y-103752381D02*
X172680953Y-103085714D01*
X172680953Y-103276190D02*
X172728572Y-103180952D01*
X172776191Y-103133333D01*
X172871429Y-103085714D01*
X172966668Y-103085714D01*
D13*
X153900000Y-110750000D02*
X152900000Y-110750000D01*
X152900000Y-112450000D02*
X153900000Y-112450000D01*
X134100000Y-111150000D02*
X133100000Y-111150000D01*
X133100000Y-112850000D02*
X134100000Y-112850000D01*
X128900000Y-112850000D02*
X129900000Y-112850000D01*
X129900000Y-111150000D02*
X128900000Y-111150000D01*
X138300000Y-111150000D02*
X137300000Y-111150000D01*
X137300000Y-112850000D02*
X138300000Y-112850000D01*
X134800000Y-103000000D02*
X134800000Y-102400000D01*
X134800000Y-107600000D02*
X134800000Y-107000000D01*
X128950000Y-110500000D02*
X128950000Y-99450000D01*
X134800000Y-110500000D02*
X128950000Y-110500000D01*
X134800000Y-106750000D02*
X134800000Y-103250000D01*
X134800000Y-99450000D02*
X128950000Y-99450000D01*
X134800000Y-110500000D02*
X134800000Y-107850000D01*
X134800000Y-102100000D02*
X134800000Y-99450000D01*
D14*
X168800000Y-108800000D02*
X166200000Y-108800000D01*
X168800000Y-111400000D02*
X168800000Y-113900000D01*
X168800000Y-113900000D02*
X168800000Y-114000000D01*
X168800000Y-114000000D02*
X163300000Y-114000000D01*
X165000000Y-108800000D02*
X166200000Y-108800000D01*
X168800000Y-111400000D02*
X168800000Y-108800000D01*
X168800000Y-111400000D02*
X166200000Y-111400000D01*
X166200000Y-111400000D02*
X166200000Y-108800000D01*
X157300000Y-114000000D02*
X156100000Y-114000000D01*
X156100000Y-114000000D02*
X156100000Y-108800000D01*
X156100000Y-108800000D02*
X157300000Y-108800000D01*
X165000000Y-108800000D02*
X158500000Y-108800000D01*
X158500000Y-108800000D02*
X157400000Y-108800000D01*
X157400000Y-108800000D02*
X157300000Y-108800000D01*
X157300000Y-114000000D02*
X159200000Y-114000000D01*
X163300000Y-114000000D02*
X159200000Y-114000000D01*
X137800000Y-98675000D02*
X136600000Y-98675000D01*
X136600000Y-96925000D02*
X137800000Y-96925000D01*
X144000000Y-98675000D02*
X142800000Y-98675000D01*
X142800000Y-96925000D02*
X144000000Y-96925000D01*
X165875000Y-97200000D02*
X165875000Y-98400000D01*
X164125000Y-98400000D02*
X164125000Y-97200000D01*
X168475000Y-106200000D02*
X168475000Y-107400000D01*
X166725000Y-107400000D02*
X166725000Y-106200000D01*
X147100000Y-113225000D02*
X147100000Y-113500000D01*
X147100000Y-113500000D02*
X143725000Y-113500000D01*
X143725000Y-113500000D02*
X143700000Y-113500000D01*
X143700000Y-113500000D02*
X143700000Y-113300000D01*
X147100000Y-110325000D02*
X147100000Y-110150000D01*
X147100000Y-110150000D02*
X147100000Y-110125000D01*
X147100000Y-110125000D02*
X144025000Y-110125000D01*
X144025000Y-110125000D02*
X144025000Y-110300000D01*
X144025000Y-110300000D02*
X143025000Y-110300000D01*
X149900000Y-102800000D02*
X150050000Y-102800000D01*
X150050000Y-102800000D02*
X150075000Y-102800000D01*
X150075000Y-102800000D02*
X150100000Y-102800000D01*
X150100000Y-102800000D02*
X150100000Y-107150000D01*
X150100000Y-107150000D02*
X150100000Y-107175000D01*
X150100000Y-107175000D02*
X150100000Y-107200000D01*
X150100000Y-107200000D02*
X149925000Y-107200000D01*
X147075000Y-102750000D02*
X146700000Y-102750000D01*
X146700000Y-102750000D02*
X146700000Y-106875000D01*
X146700000Y-106875000D02*
X146875000Y-106875000D01*
X146875000Y-106875000D02*
X146875000Y-107900000D01*
X123101100Y-93573600D02*
X123101100Y-116433600D01*
X123101100Y-116433600D02*
X173901100Y-116433600D01*
X173901100Y-116433600D02*
X173901100Y-93573600D01*
X173901100Y-93573600D02*
X123101100Y-93573600D01*
D15*
G36*
X158588933Y-100231434D02*
X149411067Y-100231434D01*
X149411067Y-99939334D01*
X151997633Y-99939334D01*
X152120400Y-99939334D01*
X152120400Y-99587378D01*
X152129876Y-99588731D01*
X152132761Y-99590155D01*
X152136553Y-99594110D01*
X152141594Y-99601208D01*
X152148228Y-99612065D01*
X152156796Y-99627295D01*
X152167641Y-99647510D01*
X152181107Y-99673326D01*
X152197537Y-99705356D01*
X152217272Y-99744214D01*
X152222848Y-99755234D01*
X152243796Y-99796533D01*
X152261372Y-99830848D01*
X152275924Y-99858805D01*
X152287798Y-99881027D01*
X152297341Y-99898137D01*
X152304899Y-99910759D01*
X152310821Y-99919517D01*
X152315452Y-99925034D01*
X152318800Y-99927742D01*
X152330088Y-99931563D01*
X152347470Y-99934171D01*
X152368723Y-99935575D01*
X152391623Y-99935784D01*
X152413945Y-99934809D01*
X152433466Y-99932657D01*
X152447962Y-99929338D01*
X152452716Y-99927191D01*
X152456516Y-99923957D01*
X152461233Y-99918121D01*
X152467214Y-99909051D01*
X152474808Y-99896115D01*
X152484359Y-99878679D01*
X152496216Y-99856113D01*
X152510725Y-99827783D01*
X152528232Y-99793058D01*
X152547923Y-99753640D01*
X152568006Y-99713401D01*
X152584729Y-99680129D01*
X152598449Y-99653185D01*
X152609520Y-99631928D01*
X152618300Y-99615719D01*
X152625144Y-99603916D01*
X152630407Y-99595881D01*
X152634445Y-99590972D01*
X152637615Y-99588550D01*
X152639998Y-99587967D01*
X152649566Y-99587967D01*
X152649566Y-99939334D01*
X152772660Y-99939334D01*
X152771827Y-99773956D01*
X152899426Y-99773956D01*
X152899437Y-99807949D01*
X152899580Y-99834589D01*
X152899931Y-99854992D01*
X152900563Y-99870272D01*
X152901548Y-99881543D01*
X152902962Y-99889918D01*
X152904878Y-99896514D01*
X152907370Y-99902443D01*
X152908015Y-99903795D01*
X152919285Y-99920083D01*
X152934473Y-99930588D01*
X152938621Y-99932557D01*
X152942982Y-99934205D01*
X152948293Y-99935557D01*
X152955290Y-99936638D01*
X152964709Y-99937471D01*
X152977287Y-99938080D01*
X152993762Y-99938489D01*
X153014868Y-99938723D01*
X153041343Y-99938806D01*
X153073924Y-99938761D01*
X153113346Y-99938613D01*
X153160348Y-99938387D01*
X153171018Y-99938332D01*
X153219666Y-99938076D01*
X153260565Y-99937823D01*
X153294432Y-99937543D01*
X153321983Y-99937207D01*
X153343936Y-99936782D01*
X153361007Y-99936239D01*
X153373915Y-99935546D01*
X153383375Y-99934674D01*
X153390106Y-99933591D01*
X153394824Y-99932267D01*
X153398246Y-99930672D01*
X153401089Y-99928774D01*
X153401473Y-99928489D01*
X153412775Y-99918406D01*
X153421888Y-99908074D01*
X153423832Y-99905250D01*
X153425469Y-99901943D01*
X153426830Y-99897434D01*
X153427945Y-99891007D01*
X153428847Y-99881943D01*
X153429565Y-99869524D01*
X153430130Y-99853032D01*
X153430574Y-99831748D01*
X153430928Y-99804956D01*
X153431221Y-99771937D01*
X153431486Y-99731972D01*
X153431754Y-99684345D01*
X153431787Y-99678128D01*
X153432041Y-99629570D01*
X153432222Y-99588737D01*
X153432304Y-99554889D01*
X153432263Y-99527286D01*
X153432073Y-99505186D01*
X153431710Y-99487850D01*
X153431149Y-99474536D01*
X153430363Y-99464503D01*
X153429329Y-99457012D01*
X153428022Y-99451321D01*
X153426416Y-99446690D01*
X153424486Y-99442378D01*
X153423769Y-99440889D01*
X153414322Y-99425991D01*
X153401837Y-99416307D01*
X153397198Y-99414013D01*
X153392999Y-99412297D01*
X153388106Y-99410848D01*
X153381810Y-99409643D01*
X153373398Y-99408659D01*
X153362162Y-99407874D01*
X153347390Y-99407265D01*
X153328371Y-99406809D01*
X153304396Y-99406483D01*
X153274753Y-99406264D01*
X153238732Y-99406130D01*
X153195622Y-99406058D01*
X153148041Y-99406027D01*
X152916266Y-99405934D01*
X153559733Y-99405934D01*
X153559733Y-99935100D01*
X153682500Y-99935100D01*
X153682500Y-99839065D01*
X153682445Y-99804763D01*
X153682679Y-99777992D01*
X153683800Y-99757822D01*
X153686406Y-99743325D01*
X153691093Y-99733570D01*
X153698460Y-99727627D01*
X153709104Y-99724568D01*
X153723623Y-99723461D01*
X153742614Y-99723379D01*
X153756835Y-99723434D01*
X153812760Y-99723434D01*
X153882038Y-99829231D01*
X153951316Y-99935027D01*
X154022432Y-99935064D01*
X154093547Y-99935100D01*
X154064866Y-99893825D01*
X154052587Y-99876163D01*
X154036992Y-99853742D01*
X154019602Y-99828751D01*
X154001942Y-99803378D01*
X153990561Y-99787033D01*
X153974510Y-99763793D01*
X153962949Y-99746503D01*
X153955380Y-99734274D01*
X153951306Y-99726215D01*
X153950228Y-99721434D01*
X153951649Y-99719042D01*
X153952360Y-99718704D01*
X153958090Y-99715750D01*
X153963738Y-99710860D01*
X153969671Y-99703294D01*
X153976259Y-99692314D01*
X153983867Y-99677182D01*
X153992865Y-99657159D01*
X154003620Y-99631506D01*
X154016499Y-99599485D01*
X154027602Y-99571222D01*
X154195226Y-99571222D01*
X154195350Y-99612337D01*
X154195593Y-99661003D01*
X154195682Y-99677738D01*
X154196850Y-99899117D01*
X154206994Y-99913340D01*
X154210828Y-99918676D01*
X154214571Y-99923215D01*
X154218903Y-99927024D01*
X154224500Y-99930166D01*
X154232040Y-99932706D01*
X154242202Y-99934710D01*
X154255663Y-99936242D01*
X154273101Y-99937366D01*
X154295194Y-99938148D01*
X154322620Y-99938652D01*
X154356056Y-99938943D01*
X154396181Y-99939085D01*
X154443671Y-99939145D01*
X154477308Y-99939168D01*
X154711200Y-99939334D01*
X154711200Y-99820800D01*
X154522092Y-99820800D01*
X154476753Y-99820776D01*
X154439132Y-99820685D01*
X154408476Y-99820501D01*
X154384037Y-99820197D01*
X154365063Y-99819746D01*
X154350804Y-99819122D01*
X154340511Y-99818298D01*
X154333433Y-99817247D01*
X154328820Y-99815942D01*
X154325921Y-99814357D01*
X154325242Y-99813794D01*
X154320798Y-99805314D01*
X154318044Y-99791206D01*
X154317019Y-99774149D01*
X154317759Y-99756820D01*
X154320304Y-99741895D01*
X154324090Y-99732842D01*
X154330680Y-99723434D01*
X154506333Y-99723434D01*
X154551732Y-99723420D01*
X154589448Y-99723311D01*
X154620267Y-99723008D01*
X154644972Y-99722411D01*
X154664348Y-99721419D01*
X154679180Y-99719933D01*
X154690252Y-99717852D01*
X154698348Y-99715077D01*
X154704253Y-99711508D01*
X154708751Y-99707045D01*
X154712627Y-99701588D01*
X154715305Y-99697254D01*
X154855133Y-99697254D01*
X154855133Y-99935100D01*
X154977900Y-99935100D01*
X154977900Y-99737526D01*
X154977923Y-99691113D01*
X154978008Y-99652434D01*
X154978181Y-99620755D01*
X154978467Y-99595345D01*
X154978890Y-99575469D01*
X154979475Y-99560395D01*
X154980248Y-99549391D01*
X154981234Y-99541722D01*
X154982457Y-99536657D01*
X154983943Y-99533462D01*
X154984906Y-99532209D01*
X154987393Y-99530021D01*
X154991070Y-99528288D01*
X154996862Y-99526956D01*
X155005697Y-99525973D01*
X155018499Y-99525287D01*
X155036196Y-99524846D01*
X155059713Y-99524597D01*
X155089976Y-99524488D01*
X155122002Y-99524467D01*
X155252093Y-99524467D01*
X155258930Y-99534902D01*
X155264335Y-99548777D01*
X155266034Y-99565893D01*
X155264150Y-99582903D01*
X155258806Y-99596459D01*
X155256562Y-99599336D01*
X155253492Y-99602392D01*
X155250030Y-99604735D01*
X155245097Y-99606461D01*
X155237609Y-99607664D01*
X155226487Y-99608437D01*
X155210648Y-99608877D01*
X155189013Y-99609077D01*
X155160499Y-99609131D01*
X155144445Y-99609134D01*
X155041533Y-99609134D01*
X155028538Y-99620775D01*
X155016282Y-99637159D01*
X155010139Y-99657754D01*
X155010651Y-99680395D01*
X155012027Y-99686679D01*
X155013942Y-99691989D01*
X155017394Y-99698214D01*
X155022948Y-99705980D01*
X155031168Y-99715916D01*
X155042616Y-99728648D01*
X155057859Y-99744804D01*
X155077459Y-99765011D01*
X155101980Y-99789896D01*
X155131730Y-99819829D01*
X155246767Y-99935275D01*
X155336517Y-99934129D01*
X155426267Y-99932984D01*
X155387292Y-99898479D01*
X155358158Y-99872372D01*
X155330040Y-99846580D01*
X155303633Y-99821789D01*
X155279635Y-99798688D01*
X155258744Y-99777965D01*
X155241655Y-99760306D01*
X155229066Y-99746400D01*
X155221674Y-99736935D01*
X155219977Y-99733422D01*
X155218637Y-99723434D01*
X155281360Y-99723418D01*
X155310581Y-99723052D01*
X155332680Y-99721647D01*
X155348984Y-99718720D01*
X155360822Y-99713785D01*
X155369520Y-99706360D01*
X155376405Y-99695958D01*
X155380614Y-99687200D01*
X155383190Y-99680849D01*
X155385160Y-99674152D01*
X155386587Y-99665967D01*
X155387534Y-99655153D01*
X155387978Y-99642932D01*
X155790765Y-99642932D01*
X155790769Y-99672568D01*
X155790790Y-99721086D01*
X155790838Y-99761870D01*
X155790943Y-99795653D01*
X155791135Y-99823167D01*
X155791444Y-99845145D01*
X155791899Y-99862319D01*
X155792530Y-99875422D01*
X155793367Y-99885188D01*
X155794440Y-99892348D01*
X155795778Y-99897634D01*
X155797411Y-99901781D01*
X155799369Y-99905520D01*
X155800294Y-99907143D01*
X155804221Y-99914028D01*
X155807935Y-99919862D01*
X155812130Y-99924728D01*
X155817501Y-99928710D01*
X155824740Y-99931890D01*
X155834542Y-99934353D01*
X155847601Y-99936182D01*
X155864610Y-99937459D01*
X155886263Y-99938269D01*
X155913255Y-99938693D01*
X155946279Y-99938817D01*
X155986029Y-99938722D01*
X156033198Y-99938493D01*
X156060268Y-99938352D01*
X156109169Y-99938092D01*
X156150317Y-99937837D01*
X156184425Y-99937557D01*
X156212206Y-99937221D01*
X156234374Y-99936799D01*
X156251641Y-99936261D01*
X156264722Y-99935576D01*
X156274329Y-99934715D01*
X156281175Y-99933647D01*
X156285974Y-99932342D01*
X156289440Y-99930770D01*
X156292285Y-99928899D01*
X156292840Y-99928489D01*
X156304141Y-99918407D01*
X156313255Y-99908078D01*
X156315669Y-99904489D01*
X156317606Y-99900256D01*
X156319130Y-99894441D01*
X156320304Y-99886106D01*
X156321192Y-99874312D01*
X156321858Y-99858120D01*
X156322364Y-99836594D01*
X156322776Y-99808794D01*
X156323156Y-99773783D01*
X156323288Y-99760173D01*
X156323530Y-99726089D01*
X156323599Y-99693918D01*
X156323531Y-99672884D01*
X156451100Y-99672884D01*
X156451108Y-99723692D01*
X156451184Y-99766731D01*
X156451401Y-99802698D01*
X156451833Y-99832290D01*
X156452557Y-99856204D01*
X156453645Y-99875138D01*
X156455173Y-99889789D01*
X156457214Y-99900854D01*
X156459845Y-99909030D01*
X156463138Y-99915014D01*
X156467170Y-99919505D01*
X156472013Y-99923198D01*
X156477743Y-99926792D01*
X156478278Y-99927118D01*
X156481499Y-99928857D01*
X156485457Y-99930322D01*
X156490856Y-99931538D01*
X156498399Y-99932528D01*
X156508791Y-99933314D01*
X156522736Y-99933921D01*
X156540938Y-99934371D01*
X156564102Y-99934687D01*
X156592930Y-99934893D01*
X156628128Y-99935013D01*
X156670400Y-99935069D01*
X156719281Y-99935085D01*
X156947246Y-99935100D01*
X156961261Y-99921086D01*
X156971243Y-99908147D01*
X156978785Y-99893248D01*
X156980039Y-99889380D01*
X156981270Y-99881119D01*
X156982258Y-99866209D01*
X156983006Y-99844365D01*
X156983519Y-99815298D01*
X156983802Y-99778721D01*
X156983858Y-99734348D01*
X156983811Y-99719200D01*
X157111500Y-99719200D01*
X157111500Y-99801886D01*
X157111661Y-99834195D01*
X157112314Y-99859275D01*
X157113714Y-99878361D01*
X157116117Y-99892689D01*
X157119776Y-99903493D01*
X157124948Y-99912009D01*
X157131887Y-99919470D01*
X157136649Y-99923656D01*
X157150249Y-99935100D01*
X157369000Y-99935085D01*
X157417785Y-99935067D01*
X157458825Y-99935006D01*
X157492839Y-99934877D01*
X157520548Y-99934655D01*
X157542672Y-99934315D01*
X157559932Y-99933832D01*
X157573048Y-99933182D01*
X157582741Y-99932340D01*
X157589732Y-99931281D01*
X157594740Y-99929981D01*
X157598486Y-99928414D01*
X157600789Y-99927118D01*
X157606333Y-99923705D01*
X157611068Y-99920311D01*
X157615056Y-99916278D01*
X157618361Y-99910948D01*
X157621048Y-99903662D01*
X157623181Y-99893762D01*
X157624824Y-99880591D01*
X157626040Y-99863490D01*
X157626894Y-99841801D01*
X157627449Y-99814866D01*
X157627770Y-99782028D01*
X157627810Y-99771459D01*
X157755537Y-99771459D01*
X157755776Y-99812808D01*
X157756261Y-99845721D01*
X157756991Y-99870207D01*
X157757967Y-99886274D01*
X157759023Y-99893433D01*
X157765165Y-99906044D01*
X157775010Y-99918698D01*
X157778449Y-99922008D01*
X157793361Y-99935100D01*
X158249972Y-99935100D01*
X158264884Y-99922008D01*
X158275231Y-99910364D01*
X158282927Y-99897216D01*
X158284310Y-99893433D01*
X158285501Y-99884722D01*
X158286447Y-99867600D01*
X158287147Y-99842059D01*
X158287600Y-99808089D01*
X158287809Y-99765682D01*
X158287771Y-99714828D01*
X158287537Y-99663416D01*
X158287239Y-99615274D01*
X158286950Y-99574875D01*
X158286639Y-99541492D01*
X158286273Y-99514401D01*
X158285820Y-99492877D01*
X158285249Y-99476195D01*
X158284526Y-99463631D01*
X158283620Y-99454459D01*
X158282500Y-99447955D01*
X158281131Y-99443393D01*
X158279484Y-99440049D01*
X158277525Y-99437198D01*
X158277522Y-99437194D01*
X158267439Y-99425894D01*
X158257103Y-99416779D01*
X158254333Y-99414859D01*
X158251125Y-99413243D01*
X158246772Y-99411906D01*
X158240565Y-99410820D01*
X158231796Y-99409960D01*
X158219756Y-99409299D01*
X158203738Y-99408811D01*
X158183033Y-99408471D01*
X158156934Y-99408251D01*
X158124731Y-99408125D01*
X158085716Y-99408067D01*
X158039182Y-99408051D01*
X158021666Y-99408050D01*
X157972437Y-99408058D01*
X157930965Y-99408099D01*
X157896544Y-99408199D01*
X157868465Y-99408384D01*
X157846019Y-99408681D01*
X157828499Y-99409117D01*
X157815197Y-99409716D01*
X157805404Y-99410506D01*
X157798412Y-99411512D01*
X157793512Y-99412762D01*
X157789998Y-99414281D01*
X157787159Y-99416095D01*
X157786230Y-99416779D01*
X157774928Y-99426860D01*
X157765811Y-99437194D01*
X157763852Y-99440045D01*
X157762204Y-99443387D01*
X157760835Y-99447946D01*
X157759714Y-99454447D01*
X157758808Y-99463614D01*
X157758085Y-99476173D01*
X157757513Y-99492848D01*
X157757060Y-99514363D01*
X157756694Y-99541445D01*
X157756383Y-99574818D01*
X157756095Y-99615206D01*
X157755796Y-99663334D01*
X157755796Y-99663416D01*
X157755544Y-99721664D01*
X157755537Y-99771459D01*
X157627810Y-99771459D01*
X157627921Y-99742628D01*
X157627965Y-99696008D01*
X157627966Y-99647652D01*
X157627966Y-99405934D01*
X157504825Y-99405934D01*
X157505407Y-99605189D01*
X157505525Y-99651643D01*
X157505565Y-99690368D01*
X157505504Y-99722101D01*
X157505317Y-99747580D01*
X157504981Y-99767542D01*
X157504470Y-99782726D01*
X157503761Y-99793867D01*
X157502830Y-99801704D01*
X157501652Y-99806975D01*
X157500202Y-99810416D01*
X157498589Y-99812622D01*
X157496008Y-99815007D01*
X157492438Y-99816878D01*
X157486907Y-99818298D01*
X157478443Y-99819327D01*
X157466074Y-99820029D01*
X157448830Y-99820465D01*
X157425739Y-99820698D01*
X157395828Y-99820788D01*
X157370469Y-99820800D01*
X157334829Y-99820753D01*
X157306700Y-99820576D01*
X157285125Y-99820218D01*
X157269149Y-99819626D01*
X157257814Y-99818749D01*
X157250166Y-99817533D01*
X157245247Y-99815927D01*
X157242103Y-99813879D01*
X157242008Y-99813794D01*
X157238424Y-99809325D01*
X157236125Y-99802570D01*
X157234848Y-99791791D01*
X157234327Y-99775251D01*
X157234266Y-99762994D01*
X157234266Y-99719200D01*
X157111500Y-99719200D01*
X156983811Y-99719200D01*
X156983693Y-99681890D01*
X156983593Y-99663152D01*
X156983305Y-99615667D01*
X156983018Y-99575903D01*
X156982700Y-99543114D01*
X156982318Y-99516554D01*
X156981840Y-99495478D01*
X156981233Y-99479140D01*
X156980466Y-99466795D01*
X156979505Y-99457696D01*
X156978319Y-99451097D01*
X156976875Y-99446254D01*
X156975140Y-99442420D01*
X156973916Y-99440243D01*
X156964899Y-99428017D01*
X156954354Y-99417618D01*
X156953496Y-99416960D01*
X156950708Y-99415006D01*
X156947551Y-99413361D01*
X156943320Y-99411998D01*
X156937308Y-99410891D01*
X156928808Y-99410013D01*
X156917115Y-99409337D01*
X156901521Y-99408838D01*
X156881321Y-99408488D01*
X156855807Y-99408261D01*
X156824273Y-99408130D01*
X156786014Y-99408069D01*
X156740321Y-99408051D01*
X156716430Y-99408050D01*
X156665285Y-99408038D01*
X156621920Y-99408059D01*
X156585647Y-99408198D01*
X156555781Y-99408542D01*
X156531633Y-99409178D01*
X156512518Y-99410190D01*
X156497748Y-99411666D01*
X156486636Y-99413691D01*
X156478496Y-99416351D01*
X156472641Y-99419733D01*
X156468383Y-99423923D01*
X156465036Y-99429007D01*
X156461914Y-99435070D01*
X156459323Y-99440279D01*
X156457482Y-99444230D01*
X156455937Y-99448740D01*
X156454664Y-99454545D01*
X156453635Y-99462381D01*
X156452826Y-99472984D01*
X156452209Y-99487089D01*
X156451759Y-99505433D01*
X156451450Y-99528750D01*
X156451255Y-99557777D01*
X156451149Y-99593249D01*
X156451106Y-99635903D01*
X156451100Y-99672884D01*
X156323531Y-99672884D01*
X156323505Y-99664855D01*
X156323257Y-99640094D01*
X156322865Y-99620827D01*
X156322338Y-99608250D01*
X156322035Y-99604900D01*
X156321030Y-99599122D01*
X156319218Y-99593580D01*
X156315929Y-99587493D01*
X156310492Y-99580080D01*
X156302234Y-99570559D01*
X156290486Y-99558150D01*
X156274575Y-99542072D01*
X156253830Y-99521543D01*
X156231877Y-99499992D01*
X156203173Y-99472097D01*
X156179790Y-99449927D01*
X156161239Y-99433049D01*
X156147028Y-99421033D01*
X156136668Y-99413446D01*
X156129668Y-99409856D01*
X156129413Y-99409778D01*
X156120562Y-99408535D01*
X156103799Y-99407575D01*
X156079674Y-99406907D01*
X156048738Y-99406543D01*
X156011541Y-99406493D01*
X155971978Y-99406737D01*
X155933359Y-99407115D01*
X155902293Y-99407501D01*
X155877869Y-99407954D01*
X155859175Y-99408532D01*
X155845297Y-99409294D01*
X155835323Y-99410300D01*
X155828341Y-99411607D01*
X155823439Y-99413275D01*
X155819704Y-99415362D01*
X155817891Y-99416653D01*
X155807932Y-99426456D01*
X155799147Y-99438769D01*
X155798538Y-99439871D01*
X155796786Y-99443559D01*
X155795316Y-99448023D01*
X155794104Y-99453988D01*
X155793125Y-99462180D01*
X155792355Y-99473327D01*
X155791770Y-99488155D01*
X155791345Y-99507390D01*
X155791056Y-99531759D01*
X155790879Y-99561988D01*
X155790790Y-99598804D01*
X155790765Y-99642932D01*
X155387978Y-99642932D01*
X155388064Y-99640570D01*
X155388241Y-99621076D01*
X155388127Y-99595530D01*
X155387785Y-99562792D01*
X155387734Y-99558496D01*
X155387282Y-99523522D01*
X155386711Y-99495931D01*
X155385786Y-99474643D01*
X155384276Y-99458575D01*
X155381948Y-99446646D01*
X155378570Y-99437773D01*
X155373909Y-99430875D01*
X155367732Y-99424870D01*
X155359807Y-99418675D01*
X155357268Y-99416779D01*
X155354506Y-99414864D01*
X155351308Y-99413252D01*
X155346968Y-99411917D01*
X155340781Y-99410832D01*
X155332039Y-99409971D01*
X155320038Y-99409310D01*
X155304072Y-99408820D01*
X155283434Y-99408478D01*
X155257420Y-99408255D01*
X155225323Y-99408127D01*
X155186437Y-99408068D01*
X155140056Y-99408051D01*
X155120463Y-99408050D01*
X155069335Y-99408036D01*
X155025988Y-99408050D01*
X154989735Y-99408184D01*
X154959891Y-99408526D01*
X154935770Y-99409166D01*
X154916685Y-99410193D01*
X154901952Y-99411696D01*
X154890884Y-99413766D01*
X154882795Y-99416490D01*
X154877000Y-99419959D01*
X154872812Y-99424262D01*
X154869545Y-99429488D01*
X154866514Y-99435727D01*
X154863808Y-99441488D01*
X154861951Y-99445560D01*
X154860380Y-99449951D01*
X154859070Y-99455364D01*
X154857999Y-99462501D01*
X154857142Y-99472065D01*
X154856475Y-99484758D01*
X154855975Y-99501285D01*
X154855617Y-99522346D01*
X154855378Y-99548645D01*
X154855234Y-99580885D01*
X154855161Y-99619769D01*
X154855136Y-99665998D01*
X154855133Y-99697254D01*
X154715305Y-99697254D01*
X154715605Y-99696770D01*
X154718059Y-99692228D01*
X154719976Y-99686915D01*
X154721420Y-99679787D01*
X154722459Y-99669801D01*
X154723157Y-99655914D01*
X154723583Y-99637084D01*
X154723801Y-99612266D01*
X154723878Y-99580419D01*
X154723884Y-99566368D01*
X154723868Y-99531845D01*
X154723760Y-99504740D01*
X154723482Y-99484005D01*
X154722958Y-99468591D01*
X154722112Y-99457450D01*
X154720866Y-99449534D01*
X154719144Y-99443795D01*
X154716870Y-99439183D01*
X154714290Y-99435135D01*
X154710099Y-99428866D01*
X154706111Y-99423558D01*
X154701624Y-99419135D01*
X154695940Y-99415522D01*
X154688356Y-99412640D01*
X154678174Y-99410415D01*
X154664693Y-99408771D01*
X154647211Y-99407630D01*
X154625030Y-99406917D01*
X154597448Y-99406555D01*
X154563765Y-99406468D01*
X154523280Y-99406580D01*
X154475294Y-99406815D01*
X154455083Y-99406920D01*
X154406322Y-99407175D01*
X154365309Y-99407420D01*
X154331325Y-99407686D01*
X154303652Y-99408007D01*
X154281571Y-99408414D01*
X154264363Y-99408941D01*
X154251310Y-99409619D01*
X154241693Y-99410483D01*
X154234794Y-99411563D01*
X154229893Y-99412893D01*
X154226272Y-99414505D01*
X154223213Y-99416432D01*
X154221713Y-99417492D01*
X154215914Y-99421662D01*
X154211002Y-99425696D01*
X154206909Y-99430295D01*
X154203564Y-99436155D01*
X154200897Y-99443977D01*
X154198838Y-99454459D01*
X154197318Y-99468299D01*
X154196267Y-99486197D01*
X154195614Y-99508851D01*
X154195290Y-99536959D01*
X154195226Y-99571222D01*
X154027602Y-99571222D01*
X154031871Y-99560357D01*
X154034269Y-99554203D01*
X154046912Y-99521623D01*
X154058521Y-99491499D01*
X154068748Y-99464750D01*
X154077246Y-99442293D01*
X154083667Y-99425047D01*
X154087663Y-99413930D01*
X154088900Y-99409913D01*
X154084865Y-99408447D01*
X154073553Y-99407253D01*
X154056149Y-99406404D01*
X154033839Y-99405973D01*
X154024006Y-99405934D01*
X153959112Y-99405934D01*
X153923120Y-99506475D01*
X153887128Y-99607017D01*
X153794702Y-99608160D01*
X153760920Y-99608757D01*
X153734649Y-99609002D01*
X153714953Y-99607977D01*
X153700894Y-99604766D01*
X153691536Y-99598451D01*
X153685943Y-99588116D01*
X153683176Y-99572843D01*
X153682301Y-99551716D01*
X153682379Y-99523817D01*
X153682500Y-99498329D01*
X153682500Y-99405934D01*
X153559733Y-99405934D01*
X152916266Y-99405934D01*
X152916266Y-99524467D01*
X153296293Y-99524467D01*
X153303130Y-99534902D01*
X153308148Y-99548059D01*
X153309943Y-99564918D01*
X153308588Y-99582029D01*
X153304157Y-99595944D01*
X153301739Y-99599609D01*
X153293793Y-99609134D01*
X153118788Y-99609150D01*
X153075617Y-99609169D01*
X153040090Y-99609242D01*
X153011384Y-99609407D01*
X152988674Y-99609702D01*
X152971139Y-99610162D01*
X152957955Y-99610826D01*
X152948298Y-99611730D01*
X152941346Y-99612913D01*
X152936276Y-99614411D01*
X152932264Y-99616261D01*
X152929779Y-99617704D01*
X152918140Y-99628074D01*
X152908523Y-99642313D01*
X152907647Y-99644146D01*
X152905168Y-99650276D01*
X152903245Y-99657161D01*
X152901806Y-99665912D01*
X152900783Y-99677642D01*
X152900103Y-99693465D01*
X152899697Y-99714492D01*
X152899494Y-99741838D01*
X152899426Y-99773956D01*
X152771827Y-99773956D01*
X152771438Y-99696975D01*
X152771163Y-99645284D01*
X152770882Y-99601378D01*
X152770574Y-99564577D01*
X152770214Y-99534201D01*
X152769780Y-99509569D01*
X152769247Y-99490000D01*
X152768592Y-99474814D01*
X152767792Y-99463329D01*
X152766823Y-99454865D01*
X152765662Y-99448742D01*
X152764285Y-99444278D01*
X152762669Y-99440793D01*
X152762603Y-99440672D01*
X152755194Y-99429228D01*
X152746427Y-99420987D01*
X152734849Y-99415458D01*
X152719011Y-99412147D01*
X152697462Y-99410563D01*
X152672850Y-99410205D01*
X152648961Y-99410401D01*
X152631863Y-99411110D01*
X152619885Y-99412520D01*
X152611359Y-99414822D01*
X152605116Y-99417897D01*
X152601501Y-99420958D01*
X152596866Y-99426635D01*
X152590890Y-99435506D01*
X152583250Y-99448145D01*
X152573626Y-99465128D01*
X152561694Y-99487031D01*
X152547134Y-99514430D01*
X152529624Y-99547900D01*
X152508841Y-99588018D01*
X152494532Y-99615783D01*
X152472164Y-99659169D01*
X152453280Y-99695587D01*
X152437549Y-99725629D01*
X152424638Y-99749883D01*
X152414214Y-99768941D01*
X152405944Y-99783392D01*
X152399496Y-99793825D01*
X152394536Y-99800832D01*
X152390733Y-99805002D01*
X152387753Y-99806926D01*
X152386582Y-99807217D01*
X152384071Y-99807045D01*
X152381260Y-99805520D01*
X152377804Y-99802037D01*
X152373357Y-99795991D01*
X152367575Y-99786778D01*
X152360113Y-99773794D01*
X152350627Y-99756432D01*
X152338771Y-99734090D01*
X152324202Y-99706162D01*
X152306573Y-99672043D01*
X152285541Y-99631130D01*
X152279784Y-99619911D01*
X152254225Y-99570342D01*
X152232220Y-99528204D01*
X152213659Y-99493296D01*
X152198432Y-99465418D01*
X152186427Y-99444367D01*
X152177535Y-99429942D01*
X152171646Y-99421944D01*
X152170451Y-99420770D01*
X152165116Y-99416599D01*
X152159660Y-99413695D01*
X152152506Y-99411829D01*
X152142076Y-99410772D01*
X152126791Y-99410296D01*
X152105074Y-99410170D01*
X152097363Y-99410167D01*
X152069909Y-99410474D01*
X152049482Y-99411765D01*
X152034652Y-99414595D01*
X152023991Y-99419520D01*
X152016070Y-99427096D01*
X152009458Y-99437878D01*
X152005661Y-99445818D01*
X152003977Y-99449952D01*
X152002552Y-99454803D01*
X152001363Y-99461072D01*
X152000389Y-99469456D01*
X151999608Y-99480655D01*
X151998999Y-99495369D01*
X151998539Y-99514296D01*
X151998208Y-99538135D01*
X151997983Y-99567586D01*
X151997842Y-99603348D01*
X151997764Y-99646119D01*
X151997728Y-99696599D01*
X151997726Y-99701209D01*
X151997633Y-99939334D01*
X149411067Y-99939334D01*
X149411067Y-99405934D01*
X149703166Y-99405934D01*
X149703166Y-99524467D01*
X149811841Y-99524467D01*
X149845529Y-99524523D01*
X149871762Y-99524731D01*
X149891556Y-99525152D01*
X149905922Y-99525847D01*
X149915873Y-99526877D01*
X149922423Y-99528304D01*
X149926583Y-99530187D01*
X149928258Y-99531473D01*
X149930062Y-99533505D01*
X149931563Y-99536534D01*
X149932788Y-99541299D01*
X149933765Y-99548537D01*
X149934522Y-99558984D01*
X149935087Y-99573379D01*
X149935487Y-99592459D01*
X149935751Y-99616960D01*
X149935906Y-99647622D01*
X149935979Y-99685180D01*
X149936000Y-99730372D01*
X149936000Y-99935100D01*
X150058766Y-99935100D01*
X150058766Y-99739582D01*
X150058773Y-99693854D01*
X150058803Y-99665438D01*
X150401559Y-99665438D01*
X150401649Y-99703695D01*
X150401874Y-99741121D01*
X150402233Y-99776689D01*
X150402725Y-99809376D01*
X150403348Y-99838157D01*
X150404100Y-99862008D01*
X150404981Y-99879905D01*
X150405989Y-99890824D01*
X150406486Y-99893194D01*
X150412535Y-99906347D01*
X150420245Y-99917649D01*
X150424466Y-99922270D01*
X150428722Y-99926171D01*
X150433730Y-99929414D01*
X150440205Y-99932060D01*
X150448863Y-99934171D01*
X150460419Y-99935808D01*
X150475588Y-99937033D01*
X150495087Y-99937907D01*
X150519632Y-99938492D01*
X150549938Y-99938849D01*
X150586720Y-99939040D01*
X150630694Y-99939127D01*
X150670483Y-99939162D01*
X150719156Y-99939178D01*
X150760091Y-99939135D01*
X150794014Y-99939010D01*
X150821654Y-99938780D01*
X150843739Y-99938421D01*
X150860996Y-99937911D01*
X150874153Y-99937228D01*
X150883938Y-99936348D01*
X150891079Y-99935248D01*
X150896303Y-99933906D01*
X150900339Y-99932298D01*
X150901115Y-99931919D01*
X150913531Y-99923184D01*
X150924427Y-99911602D01*
X150925457Y-99910133D01*
X150928009Y-99906140D01*
X150930064Y-99901994D01*
X150931675Y-99896785D01*
X150932897Y-99889605D01*
X150933783Y-99879545D01*
X150934388Y-99865696D01*
X150934765Y-99847148D01*
X150934967Y-99822993D01*
X150935050Y-99792321D01*
X150935066Y-99754225D01*
X150935066Y-99747998D01*
X150935006Y-99706926D01*
X150934804Y-99673511D01*
X150934431Y-99646945D01*
X150933855Y-99626418D01*
X150933046Y-99611122D01*
X150931975Y-99600248D01*
X150930610Y-99592987D01*
X150929076Y-99588815D01*
X150924558Y-99582899D01*
X150914826Y-99571958D01*
X150900725Y-99556883D01*
X150883100Y-99538563D01*
X150862798Y-99517885D01*
X150840663Y-99495741D01*
X150839099Y-99494191D01*
X150814236Y-99469624D01*
X150794535Y-99450379D01*
X150779185Y-99435780D01*
X150767374Y-99425148D01*
X150758292Y-99417807D01*
X150751125Y-99413079D01*
X150745064Y-99410287D01*
X150739296Y-99408754D01*
X150736082Y-99408221D01*
X150727245Y-99407582D01*
X150711124Y-99407077D01*
X150688899Y-99406714D01*
X150661752Y-99406506D01*
X150630862Y-99406463D01*
X150597412Y-99406597D01*
X150578638Y-99406747D01*
X150440226Y-99408050D01*
X150425138Y-99422679D01*
X150415075Y-99434722D01*
X150407543Y-99447777D01*
X150405882Y-99452313D01*
X150404838Y-99460357D01*
X150403941Y-99475764D01*
X150403189Y-99497508D01*
X150402581Y-99524565D01*
X150402116Y-99555911D01*
X150401791Y-99590521D01*
X150401606Y-99627371D01*
X150401559Y-99665438D01*
X150058803Y-99665438D01*
X150058814Y-99655838D01*
X150058924Y-99624778D01*
X150059138Y-99599918D01*
X150059488Y-99580502D01*
X150060008Y-99565776D01*
X150060733Y-99554983D01*
X150061696Y-99547369D01*
X150062932Y-99542177D01*
X150064473Y-99538653D01*
X150066355Y-99536040D01*
X150067971Y-99534265D01*
X150070947Y-99531290D01*
X150074294Y-99528988D01*
X150079055Y-99527272D01*
X150086275Y-99526057D01*
X150096996Y-99525256D01*
X150112263Y-99524783D01*
X150133118Y-99524551D01*
X150160605Y-99524474D01*
X150186504Y-99524467D01*
X150295833Y-99524467D01*
X150295833Y-99405934D01*
X151066300Y-99405934D01*
X151066300Y-99935100D01*
X151189066Y-99935100D01*
X151189066Y-99839065D01*
X151189012Y-99804763D01*
X151189248Y-99777992D01*
X151190369Y-99757823D01*
X151192971Y-99743326D01*
X151197652Y-99733571D01*
X151205006Y-99727629D01*
X151215630Y-99724569D01*
X151230121Y-99723463D01*
X151249073Y-99723379D01*
X151263207Y-99723434D01*
X151318939Y-99723434D01*
X151456791Y-99935100D01*
X151599254Y-99935100D01*
X151525335Y-99828622D01*
X151451416Y-99722143D01*
X151463116Y-99715008D01*
X151473100Y-99707967D01*
X151479992Y-99701601D01*
X151482462Y-99696605D01*
X151487535Y-99684830D01*
X151494781Y-99667363D01*
X151503770Y-99645291D01*
X151514074Y-99619701D01*
X151525263Y-99591681D01*
X151536908Y-99562319D01*
X151548579Y-99532701D01*
X151559848Y-99503915D01*
X151570286Y-99477048D01*
X151579462Y-99453188D01*
X151586949Y-99433422D01*
X151592316Y-99418838D01*
X151595134Y-99410522D01*
X151595456Y-99409109D01*
X151591468Y-99408017D01*
X151580457Y-99407087D01*
X151563871Y-99406390D01*
X151543151Y-99405996D01*
X151530349Y-99405934D01*
X151465232Y-99405934D01*
X151440737Y-99474725D01*
X151431563Y-99500374D01*
X151422307Y-99526048D01*
X151413785Y-99549499D01*
X151406813Y-99568477D01*
X151403884Y-99576325D01*
X151391525Y-99609134D01*
X151300094Y-99609134D01*
X151266524Y-99609314D01*
X151240453Y-99609228D01*
X151220942Y-99607937D01*
X151207050Y-99604504D01*
X151197836Y-99597990D01*
X151192360Y-99587456D01*
X151189682Y-99571963D01*
X151188861Y-99550574D01*
X151188957Y-99522350D01*
X151189066Y-99498329D01*
X151189066Y-99405934D01*
X151066300Y-99405934D01*
X150295833Y-99405934D01*
X149703166Y-99405934D01*
X149411067Y-99405934D01*
X149411067Y-97748642D01*
X149703180Y-97748642D01*
X149703193Y-97829454D01*
X149703210Y-97918114D01*
X149703217Y-97974898D01*
X149703234Y-98069773D01*
X149703272Y-98156527D01*
X149703335Y-98235506D01*
X149703424Y-98307056D01*
X149703543Y-98371524D01*
X149703694Y-98429255D01*
X149703880Y-98480596D01*
X149704103Y-98525891D01*
X149704367Y-98565488D01*
X149704673Y-98599733D01*
X149705024Y-98628970D01*
X149705424Y-98653547D01*
X149705874Y-98673809D01*
X149706377Y-98690102D01*
X149706936Y-98702772D01*
X149707554Y-98712166D01*
X149708232Y-98718629D01*
X149708910Y-98722272D01*
X149723487Y-98762258D01*
X149744473Y-98798302D01*
X149771020Y-98829441D01*
X149802280Y-98854711D01*
X149837402Y-98873148D01*
X149843939Y-98875621D01*
X149870383Y-98885058D01*
X150622020Y-98884087D01*
X151373657Y-98883117D01*
X151405745Y-98867258D01*
X151439145Y-98846212D01*
X151468781Y-98818503D01*
X151493567Y-98785503D01*
X151512416Y-98748582D01*
X151521429Y-98721390D01*
X151522518Y-98712916D01*
X151523514Y-98696653D01*
X151524419Y-98673282D01*
X151525232Y-98643481D01*
X151525954Y-98607929D01*
X151526584Y-98567304D01*
X151527123Y-98522285D01*
X151527570Y-98473550D01*
X151527925Y-98421779D01*
X151528190Y-98367650D01*
X151528363Y-98311842D01*
X151528444Y-98255033D01*
X151528435Y-98197903D01*
X151528335Y-98141129D01*
X151528143Y-98085391D01*
X151527860Y-98031368D01*
X151527487Y-97979737D01*
X151527022Y-97931178D01*
X151526467Y-97886369D01*
X151525821Y-97845989D01*
X151525084Y-97810718D01*
X151524897Y-97804038D01*
X151972299Y-97804038D01*
X151972299Y-97887430D01*
X151972307Y-97974686D01*
X151972311Y-98067834D01*
X151972314Y-98152905D01*
X151972328Y-98230293D01*
X151972366Y-98300387D01*
X151972440Y-98363578D01*
X151972563Y-98420259D01*
X151972749Y-98470819D01*
X151973009Y-98515649D01*
X151973358Y-98555142D01*
X151973807Y-98589687D01*
X151974369Y-98619677D01*
X151975058Y-98645501D01*
X151975885Y-98667552D01*
X151976865Y-98686220D01*
X151978009Y-98701896D01*
X151979330Y-98714971D01*
X151980842Y-98725837D01*
X151982557Y-98734884D01*
X151984488Y-98742504D01*
X151986648Y-98749087D01*
X151989049Y-98755025D01*
X151991705Y-98760709D01*
X151994627Y-98766529D01*
X151997830Y-98772877D01*
X151998503Y-98774240D01*
X152018359Y-98805822D01*
X152044518Y-98833947D01*
X152075240Y-98857164D01*
X152108783Y-98874019D01*
X152124178Y-98879098D01*
X152128331Y-98879802D01*
X152135681Y-98880448D01*
X152146551Y-98881038D01*
X152161263Y-98881576D01*
X152180138Y-98882062D01*
X152203499Y-98882501D01*
X152231668Y-98882893D01*
X152264965Y-98883243D01*
X152303714Y-98883551D01*
X152348236Y-98883821D01*
X152398853Y-98884054D01*
X152455887Y-98884254D01*
X152519660Y-98884423D01*
X152590494Y-98884563D01*
X152668711Y-98884677D01*
X152754632Y-98884767D01*
X152848580Y-98884835D01*
X152885129Y-98884855D01*
X152978029Y-98884901D01*
X153062846Y-98884938D01*
X153139963Y-98884960D01*
X153209764Y-98884965D01*
X153272631Y-98884948D01*
X153328947Y-98884905D01*
X153379097Y-98884833D01*
X153423464Y-98884726D01*
X153462430Y-98884580D01*
X153496379Y-98884393D01*
X153525695Y-98884160D01*
X153550760Y-98883876D01*
X153571959Y-98883538D01*
X153589674Y-98883141D01*
X153604288Y-98882682D01*
X153616186Y-98882156D01*
X153625749Y-98881560D01*
X153633363Y-98880889D01*
X153639409Y-98880139D01*
X153644271Y-98879306D01*
X153648333Y-98878387D01*
X153651977Y-98877376D01*
X153654200Y-98876701D01*
X153688760Y-98861650D01*
X153719730Y-98839058D01*
X153746900Y-98809149D01*
X153770060Y-98772144D01*
X153785680Y-98737271D01*
X153794683Y-98713784D01*
X153795625Y-98144400D01*
X154241300Y-98144400D01*
X154241332Y-98410042D01*
X154241412Y-98466728D01*
X154241632Y-98518623D01*
X154241986Y-98565224D01*
X154242464Y-98606025D01*
X154243061Y-98640521D01*
X154243767Y-98668209D01*
X154244576Y-98688582D01*
X154245480Y-98701137D01*
X154245752Y-98703200D01*
X154255626Y-98741159D01*
X154272279Y-98777150D01*
X154294679Y-98809898D01*
X154321798Y-98838126D01*
X154352604Y-98860557D01*
X154384718Y-98875460D01*
X154412750Y-98885015D01*
X155128796Y-98885125D01*
X155220027Y-98885137D01*
X155303182Y-98885142D01*
X155378652Y-98885136D01*
X155446827Y-98885113D01*
X155508097Y-98885070D01*
X155562853Y-98885002D01*
X155611486Y-98884905D01*
X155654386Y-98884774D01*
X155691943Y-98884605D01*
X155724548Y-98884394D01*
X155752593Y-98884135D01*
X155776466Y-98883825D01*
X155796559Y-98883460D01*
X155813262Y-98883034D01*
X155826966Y-98882544D01*
X155838061Y-98881984D01*
X155846938Y-98881351D01*
X155853988Y-98880641D01*
X155859600Y-98879848D01*
X155864166Y-98878968D01*
X155868075Y-98877997D01*
X155871720Y-98876931D01*
X155872400Y-98876722D01*
X155906585Y-98861822D01*
X155937810Y-98839505D01*
X155965393Y-98810509D01*
X155988652Y-98775571D01*
X156006905Y-98735429D01*
X156009306Y-98728600D01*
X156010247Y-98725571D01*
X156011111Y-98722044D01*
X156011903Y-98717660D01*
X156012625Y-98712058D01*
X156013281Y-98704877D01*
X156013876Y-98695756D01*
X156014414Y-98684335D01*
X156014897Y-98670252D01*
X156015331Y-98653147D01*
X156015718Y-98632659D01*
X156016063Y-98608427D01*
X156016370Y-98580090D01*
X156016642Y-98547288D01*
X156016883Y-98509660D01*
X156017098Y-98466845D01*
X156017289Y-98418482D01*
X156017461Y-98364211D01*
X156017619Y-98303670D01*
X156017764Y-98236500D01*
X156017902Y-98162338D01*
X156018037Y-98080824D01*
X156018171Y-97991598D01*
X156018310Y-97894299D01*
X156018323Y-97885109D01*
X156018508Y-97751693D01*
X156463813Y-97751693D01*
X156463826Y-97832340D01*
X156463843Y-97920823D01*
X156463850Y-97981248D01*
X156463865Y-98075161D01*
X156463897Y-98160972D01*
X156463950Y-98239043D01*
X156464027Y-98309739D01*
X156464131Y-98373424D01*
X156464264Y-98430462D01*
X156464430Y-98481216D01*
X156464631Y-98526050D01*
X156464871Y-98565329D01*
X156465152Y-98599415D01*
X156465478Y-98628674D01*
X156465851Y-98653468D01*
X156466274Y-98674162D01*
X156466751Y-98691120D01*
X156467284Y-98704704D01*
X156467876Y-98715280D01*
X156468530Y-98723211D01*
X156469249Y-98728861D01*
X156469950Y-98732279D01*
X156484293Y-98771144D01*
X156505183Y-98806159D01*
X156531714Y-98836340D01*
X156562984Y-98860702D01*
X156598087Y-98878260D01*
X156606725Y-98881271D01*
X156610013Y-98882241D01*
X156613801Y-98883127D01*
X156618468Y-98883931D01*
X156624391Y-98884657D01*
X156631951Y-98885309D01*
X156641524Y-98885888D01*
X156653490Y-98886400D01*
X156668227Y-98886847D01*
X156686113Y-98887233D01*
X156707527Y-98887561D01*
X156732847Y-98887834D01*
X156762451Y-98888057D01*
X156796719Y-98888231D01*
X156836027Y-98888361D01*
X156880756Y-98888450D01*
X156931283Y-98888502D01*
X156987986Y-98888519D01*
X157051244Y-98888506D01*
X157121436Y-98888465D01*
X157198940Y-98888400D01*
X157284134Y-98888314D01*
X157377397Y-98888211D01*
X157382433Y-98888205D01*
X158133850Y-98887350D01*
X158162948Y-98873570D01*
X158190099Y-98857122D01*
X158216504Y-98834627D01*
X158239839Y-98808356D01*
X158257318Y-98781451D01*
X158260654Y-98775330D01*
X158263702Y-98769879D01*
X158266476Y-98764711D01*
X158268987Y-98759441D01*
X158271250Y-98753679D01*
X158273276Y-98747040D01*
X158275080Y-98739136D01*
X158276673Y-98729580D01*
X158278069Y-98717985D01*
X158279281Y-98703965D01*
X158280322Y-98687131D01*
X158281204Y-98667097D01*
X158281940Y-98643476D01*
X158282544Y-98615880D01*
X158283028Y-98583923D01*
X158283406Y-98547218D01*
X158283690Y-98505377D01*
X158283893Y-98458013D01*
X158284028Y-98404739D01*
X158284108Y-98345169D01*
X158284146Y-98278915D01*
X158284154Y-98205590D01*
X158284147Y-98124807D01*
X158284136Y-98036179D01*
X158284133Y-97978521D01*
X158284139Y-97885168D01*
X158284150Y-97799894D01*
X158284152Y-97722310D01*
X158284133Y-97652027D01*
X158284081Y-97588658D01*
X158283982Y-97531813D01*
X158283825Y-97481105D01*
X158283596Y-97436145D01*
X158283284Y-97396544D01*
X158282875Y-97361915D01*
X158282357Y-97331869D01*
X158281718Y-97306018D01*
X158280944Y-97283973D01*
X158280024Y-97265345D01*
X158278944Y-97249747D01*
X158277693Y-97236790D01*
X158276257Y-97226086D01*
X158274624Y-97217247D01*
X158272781Y-97209883D01*
X158270716Y-97203607D01*
X158268416Y-97198031D01*
X158265869Y-97192765D01*
X158263061Y-97187422D01*
X158259982Y-97181613D01*
X158258210Y-97178164D01*
X158243373Y-97154597D01*
X158223235Y-97130649D01*
X158200125Y-97108647D01*
X158176372Y-97090914D01*
X158163483Y-97083629D01*
X158138083Y-97071250D01*
X156613905Y-97071250D01*
X156584742Y-97085607D01*
X156556512Y-97103125D01*
X156529373Y-97126537D01*
X156505845Y-97153393D01*
X156490390Y-97177429D01*
X156487085Y-97183489D01*
X156484064Y-97188881D01*
X156481316Y-97193991D01*
X156478826Y-97199207D01*
X156476584Y-97204915D01*
X156474575Y-97211502D01*
X156472787Y-97219353D01*
X156471207Y-97228855D01*
X156469823Y-97240395D01*
X156468622Y-97254359D01*
X156467590Y-97271134D01*
X156466716Y-97291106D01*
X156465986Y-97314662D01*
X156465388Y-97342188D01*
X156464909Y-97374070D01*
X156464536Y-97410695D01*
X156464256Y-97452450D01*
X156464057Y-97499721D01*
X156463926Y-97552894D01*
X156463850Y-97612356D01*
X156463817Y-97678493D01*
X156463813Y-97751693D01*
X156018508Y-97751693D01*
X156019466Y-97064900D01*
X155608666Y-97064900D01*
X155608466Y-98430150D01*
X155579991Y-98462652D01*
X155551516Y-98495153D01*
X155130300Y-98495150D01*
X154709083Y-98495147D01*
X154651933Y-98430153D01*
X154651933Y-98144400D01*
X154241300Y-98144400D01*
X153795625Y-98144400D01*
X153795878Y-97992000D01*
X153796027Y-97891687D01*
X153796125Y-97799599D01*
X153796172Y-97715497D01*
X153796166Y-97639140D01*
X153796107Y-97570287D01*
X153795992Y-97508697D01*
X153795822Y-97454131D01*
X153795595Y-97406347D01*
X153795309Y-97365106D01*
X153794964Y-97330166D01*
X153794558Y-97301286D01*
X153794090Y-97278228D01*
X153793560Y-97260749D01*
X153792965Y-97248609D01*
X153792305Y-97241568D01*
X153792251Y-97241229D01*
X153782472Y-97204810D01*
X153766060Y-97169658D01*
X153744178Y-97137370D01*
X153717986Y-97109543D01*
X153688647Y-97087775D01*
X153675503Y-97080746D01*
X153646516Y-97067017D01*
X152893122Y-97065924D01*
X152798843Y-97065792D01*
X152712658Y-97065684D01*
X152634196Y-97065602D01*
X152563084Y-97065549D01*
X152498949Y-97065528D01*
X152441421Y-97065542D01*
X152390126Y-97065593D01*
X152344693Y-97065685D01*
X152304749Y-97065819D01*
X152269923Y-97066000D01*
X152239841Y-97066229D01*
X152214133Y-97066509D01*
X152192425Y-97066844D01*
X152174345Y-97067236D01*
X152159522Y-97067687D01*
X152147584Y-97068201D01*
X152138157Y-97068780D01*
X152130870Y-97069427D01*
X152125351Y-97070145D01*
X152121228Y-97070936D01*
X152118422Y-97071708D01*
X152084694Y-97086867D01*
X152053068Y-97109974D01*
X152034792Y-97127929D01*
X152011421Y-97157016D01*
X151994383Y-97187635D01*
X151982049Y-97222796D01*
X151980607Y-97228246D01*
X151979538Y-97232590D01*
X151978564Y-97237143D01*
X151977681Y-97242299D01*
X151976884Y-97248452D01*
X151976169Y-97255996D01*
X151975532Y-97265325D01*
X151974968Y-97276834D01*
X151974472Y-97290915D01*
X151974042Y-97307964D01*
X151973671Y-97328373D01*
X151973355Y-97352539D01*
X151973091Y-97380853D01*
X151972874Y-97413712D01*
X151972700Y-97451507D01*
X151972563Y-97494635D01*
X151972460Y-97543488D01*
X151972387Y-97598461D01*
X151972339Y-97659947D01*
X151972311Y-97728342D01*
X151972299Y-97804038D01*
X151524897Y-97804038D01*
X151524256Y-97781232D01*
X151523338Y-97758212D01*
X151522329Y-97742335D01*
X151521351Y-97734744D01*
X151519156Y-97725432D01*
X151516989Y-97716977D01*
X151514482Y-97708966D01*
X151511270Y-97700984D01*
X151506987Y-97692616D01*
X151501268Y-97683447D01*
X151493748Y-97673062D01*
X151484060Y-97661046D01*
X151471838Y-97646985D01*
X151456717Y-97630463D01*
X151438332Y-97611065D01*
X151416317Y-97588378D01*
X151390305Y-97561985D01*
X151359932Y-97531473D01*
X151324831Y-97496425D01*
X151284637Y-97456428D01*
X151238984Y-97411067D01*
X151215346Y-97387585D01*
X151167876Y-97340520D01*
X151123392Y-97296598D01*
X151082213Y-97256128D01*
X151044659Y-97219419D01*
X151011049Y-97186780D01*
X150981704Y-97158521D01*
X150956943Y-97134949D01*
X150937086Y-97116375D01*
X150922453Y-97103106D01*
X150913363Y-97095452D01*
X150911783Y-97094309D01*
X150905349Y-97089909D01*
X150899634Y-97085965D01*
X150894164Y-97082456D01*
X150888463Y-97079356D01*
X150882058Y-97076641D01*
X150874473Y-97074287D01*
X150865233Y-97072271D01*
X150853866Y-97070569D01*
X150839894Y-97069155D01*
X150822845Y-97068007D01*
X150802243Y-97067100D01*
X150777613Y-97066410D01*
X150748482Y-97065913D01*
X150714373Y-97065585D01*
X150674813Y-97065403D01*
X150629328Y-97065341D01*
X150577441Y-97065377D01*
X150518680Y-97065485D01*
X150452568Y-97065642D01*
X150378632Y-97065824D01*
X150350603Y-97065890D01*
X149857683Y-97067017D01*
X149824433Y-97082893D01*
X149789860Y-97103887D01*
X149759626Y-97131281D01*
X149735305Y-97163572D01*
X149729757Y-97173309D01*
X149726447Y-97179350D01*
X149723423Y-97184726D01*
X149720672Y-97189825D01*
X149718181Y-97195033D01*
X149715936Y-97200738D01*
X149713926Y-97207326D01*
X149712138Y-97215184D01*
X149710558Y-97224700D01*
X149709174Y-97236260D01*
X149707974Y-97250251D01*
X149706943Y-97267060D01*
X149706070Y-97287075D01*
X149705342Y-97310682D01*
X149704745Y-97338268D01*
X149704267Y-97370220D01*
X149703896Y-97406925D01*
X149703618Y-97448770D01*
X149703420Y-97496143D01*
X149703291Y-97549429D01*
X149703216Y-97609016D01*
X149703183Y-97675292D01*
X149703180Y-97748642D01*
X149411067Y-97748642D01*
X149411067Y-96772801D01*
X158588933Y-96772801D01*
X158588933Y-100231434D01*
X158588933Y-100231434D01*
G37*
X158588933Y-100231434D02*
X149411067Y-100231434D01*
X149411067Y-99939334D01*
X151997633Y-99939334D01*
X152120400Y-99939334D01*
X152120400Y-99587378D01*
X152129876Y-99588731D01*
X152132761Y-99590155D01*
X152136553Y-99594110D01*
X152141594Y-99601208D01*
X152148228Y-99612065D01*
X152156796Y-99627295D01*
X152167641Y-99647510D01*
X152181107Y-99673326D01*
X152197537Y-99705356D01*
X152217272Y-99744214D01*
X152222848Y-99755234D01*
X152243796Y-99796533D01*
X152261372Y-99830848D01*
X152275924Y-99858805D01*
X152287798Y-99881027D01*
X152297341Y-99898137D01*
X152304899Y-99910759D01*
X152310821Y-99919517D01*
X152315452Y-99925034D01*
X152318800Y-99927742D01*
X152330088Y-99931563D01*
X152347470Y-99934171D01*
X152368723Y-99935575D01*
X152391623Y-99935784D01*
X152413945Y-99934809D01*
X152433466Y-99932657D01*
X152447962Y-99929338D01*
X152452716Y-99927191D01*
X152456516Y-99923957D01*
X152461233Y-99918121D01*
X152467214Y-99909051D01*
X152474808Y-99896115D01*
X152484359Y-99878679D01*
X152496216Y-99856113D01*
X152510725Y-99827783D01*
X152528232Y-99793058D01*
X152547923Y-99753640D01*
X152568006Y-99713401D01*
X152584729Y-99680129D01*
X152598449Y-99653185D01*
X152609520Y-99631928D01*
X152618300Y-99615719D01*
X152625144Y-99603916D01*
X152630407Y-99595881D01*
X152634445Y-99590972D01*
X152637615Y-99588550D01*
X152639998Y-99587967D01*
X152649566Y-99587967D01*
X152649566Y-99939334D01*
X152772660Y-99939334D01*
X152771827Y-99773956D01*
X152899426Y-99773956D01*
X152899437Y-99807949D01*
X152899580Y-99834589D01*
X152899931Y-99854992D01*
X152900563Y-99870272D01*
X152901548Y-99881543D01*
X152902962Y-99889918D01*
X152904878Y-99896514D01*
X152907370Y-99902443D01*
X152908015Y-99903795D01*
X152919285Y-99920083D01*
X152934473Y-99930588D01*
X152938621Y-99932557D01*
X152942982Y-99934205D01*
X152948293Y-99935557D01*
X152955290Y-99936638D01*
X152964709Y-99937471D01*
X152977287Y-99938080D01*
X152993762Y-99938489D01*
X153014868Y-99938723D01*
X153041343Y-99938806D01*
X153073924Y-99938761D01*
X153113346Y-99938613D01*
X153160348Y-99938387D01*
X153171018Y-99938332D01*
X153219666Y-99938076D01*
X153260565Y-99937823D01*
X153294432Y-99937543D01*
X153321983Y-99937207D01*
X153343936Y-99936782D01*
X153361007Y-99936239D01*
X153373915Y-99935546D01*
X153383375Y-99934674D01*
X153390106Y-99933591D01*
X153394824Y-99932267D01*
X153398246Y-99930672D01*
X153401089Y-99928774D01*
X153401473Y-99928489D01*
X153412775Y-99918406D01*
X153421888Y-99908074D01*
X153423832Y-99905250D01*
X153425469Y-99901943D01*
X153426830Y-99897434D01*
X153427945Y-99891007D01*
X153428847Y-99881943D01*
X153429565Y-99869524D01*
X153430130Y-99853032D01*
X153430574Y-99831748D01*
X153430928Y-99804956D01*
X153431221Y-99771937D01*
X153431486Y-99731972D01*
X153431754Y-99684345D01*
X153431787Y-99678128D01*
X153432041Y-99629570D01*
X153432222Y-99588737D01*
X153432304Y-99554889D01*
X153432263Y-99527286D01*
X153432073Y-99505186D01*
X153431710Y-99487850D01*
X153431149Y-99474536D01*
X153430363Y-99464503D01*
X153429329Y-99457012D01*
X153428022Y-99451321D01*
X153426416Y-99446690D01*
X153424486Y-99442378D01*
X153423769Y-99440889D01*
X153414322Y-99425991D01*
X153401837Y-99416307D01*
X153397198Y-99414013D01*
X153392999Y-99412297D01*
X153388106Y-99410848D01*
X153381810Y-99409643D01*
X153373398Y-99408659D01*
X153362162Y-99407874D01*
X153347390Y-99407265D01*
X153328371Y-99406809D01*
X153304396Y-99406483D01*
X153274753Y-99406264D01*
X153238732Y-99406130D01*
X153195622Y-99406058D01*
X153148041Y-99406027D01*
X152916266Y-99405934D01*
X153559733Y-99405934D01*
X153559733Y-99935100D01*
X153682500Y-99935100D01*
X153682500Y-99839065D01*
X153682445Y-99804763D01*
X153682679Y-99777992D01*
X153683800Y-99757822D01*
X153686406Y-99743325D01*
X153691093Y-99733570D01*
X153698460Y-99727627D01*
X153709104Y-99724568D01*
X153723623Y-99723461D01*
X153742614Y-99723379D01*
X153756835Y-99723434D01*
X153812760Y-99723434D01*
X153882038Y-99829231D01*
X153951316Y-99935027D01*
X154022432Y-99935064D01*
X154093547Y-99935100D01*
X154064866Y-99893825D01*
X154052587Y-99876163D01*
X154036992Y-99853742D01*
X154019602Y-99828751D01*
X154001942Y-99803378D01*
X153990561Y-99787033D01*
X153974510Y-99763793D01*
X153962949Y-99746503D01*
X153955380Y-99734274D01*
X153951306Y-99726215D01*
X153950228Y-99721434D01*
X153951649Y-99719042D01*
X153952360Y-99718704D01*
X153958090Y-99715750D01*
X153963738Y-99710860D01*
X153969671Y-99703294D01*
X153976259Y-99692314D01*
X153983867Y-99677182D01*
X153992865Y-99657159D01*
X154003620Y-99631506D01*
X154016499Y-99599485D01*
X154027602Y-99571222D01*
X154195226Y-99571222D01*
X154195350Y-99612337D01*
X154195593Y-99661003D01*
X154195682Y-99677738D01*
X154196850Y-99899117D01*
X154206994Y-99913340D01*
X154210828Y-99918676D01*
X154214571Y-99923215D01*
X154218903Y-99927024D01*
X154224500Y-99930166D01*
X154232040Y-99932706D01*
X154242202Y-99934710D01*
X154255663Y-99936242D01*
X154273101Y-99937366D01*
X154295194Y-99938148D01*
X154322620Y-99938652D01*
X154356056Y-99938943D01*
X154396181Y-99939085D01*
X154443671Y-99939145D01*
X154477308Y-99939168D01*
X154711200Y-99939334D01*
X154711200Y-99820800D01*
X154522092Y-99820800D01*
X154476753Y-99820776D01*
X154439132Y-99820685D01*
X154408476Y-99820501D01*
X154384037Y-99820197D01*
X154365063Y-99819746D01*
X154350804Y-99819122D01*
X154340511Y-99818298D01*
X154333433Y-99817247D01*
X154328820Y-99815942D01*
X154325921Y-99814357D01*
X154325242Y-99813794D01*
X154320798Y-99805314D01*
X154318044Y-99791206D01*
X154317019Y-99774149D01*
X154317759Y-99756820D01*
X154320304Y-99741895D01*
X154324090Y-99732842D01*
X154330680Y-99723434D01*
X154506333Y-99723434D01*
X154551732Y-99723420D01*
X154589448Y-99723311D01*
X154620267Y-99723008D01*
X154644972Y-99722411D01*
X154664348Y-99721419D01*
X154679180Y-99719933D01*
X154690252Y-99717852D01*
X154698348Y-99715077D01*
X154704253Y-99711508D01*
X154708751Y-99707045D01*
X154712627Y-99701588D01*
X154715305Y-99697254D01*
X154855133Y-99697254D01*
X154855133Y-99935100D01*
X154977900Y-99935100D01*
X154977900Y-99737526D01*
X154977923Y-99691113D01*
X154978008Y-99652434D01*
X154978181Y-99620755D01*
X154978467Y-99595345D01*
X154978890Y-99575469D01*
X154979475Y-99560395D01*
X154980248Y-99549391D01*
X154981234Y-99541722D01*
X154982457Y-99536657D01*
X154983943Y-99533462D01*
X154984906Y-99532209D01*
X154987393Y-99530021D01*
X154991070Y-99528288D01*
X154996862Y-99526956D01*
X155005697Y-99525973D01*
X155018499Y-99525287D01*
X155036196Y-99524846D01*
X155059713Y-99524597D01*
X155089976Y-99524488D01*
X155122002Y-99524467D01*
X155252093Y-99524467D01*
X155258930Y-99534902D01*
X155264335Y-99548777D01*
X155266034Y-99565893D01*
X155264150Y-99582903D01*
X155258806Y-99596459D01*
X155256562Y-99599336D01*
X155253492Y-99602392D01*
X155250030Y-99604735D01*
X155245097Y-99606461D01*
X155237609Y-99607664D01*
X155226487Y-99608437D01*
X155210648Y-99608877D01*
X155189013Y-99609077D01*
X155160499Y-99609131D01*
X155144445Y-99609134D01*
X155041533Y-99609134D01*
X155028538Y-99620775D01*
X155016282Y-99637159D01*
X155010139Y-99657754D01*
X155010651Y-99680395D01*
X155012027Y-99686679D01*
X155013942Y-99691989D01*
X155017394Y-99698214D01*
X155022948Y-99705980D01*
X155031168Y-99715916D01*
X155042616Y-99728648D01*
X155057859Y-99744804D01*
X155077459Y-99765011D01*
X155101980Y-99789896D01*
X155131730Y-99819829D01*
X155246767Y-99935275D01*
X155336517Y-99934129D01*
X155426267Y-99932984D01*
X155387292Y-99898479D01*
X155358158Y-99872372D01*
X155330040Y-99846580D01*
X155303633Y-99821789D01*
X155279635Y-99798688D01*
X155258744Y-99777965D01*
X155241655Y-99760306D01*
X155229066Y-99746400D01*
X155221674Y-99736935D01*
X155219977Y-99733422D01*
X155218637Y-99723434D01*
X155281360Y-99723418D01*
X155310581Y-99723052D01*
X155332680Y-99721647D01*
X155348984Y-99718720D01*
X155360822Y-99713785D01*
X155369520Y-99706360D01*
X155376405Y-99695958D01*
X155380614Y-99687200D01*
X155383190Y-99680849D01*
X155385160Y-99674152D01*
X155386587Y-99665967D01*
X155387534Y-99655153D01*
X155387978Y-99642932D01*
X155790765Y-99642932D01*
X155790769Y-99672568D01*
X155790790Y-99721086D01*
X155790838Y-99761870D01*
X155790943Y-99795653D01*
X155791135Y-99823167D01*
X155791444Y-99845145D01*
X155791899Y-99862319D01*
X155792530Y-99875422D01*
X155793367Y-99885188D01*
X155794440Y-99892348D01*
X155795778Y-99897634D01*
X155797411Y-99901781D01*
X155799369Y-99905520D01*
X155800294Y-99907143D01*
X155804221Y-99914028D01*
X155807935Y-99919862D01*
X155812130Y-99924728D01*
X155817501Y-99928710D01*
X155824740Y-99931890D01*
X155834542Y-99934353D01*
X155847601Y-99936182D01*
X155864610Y-99937459D01*
X155886263Y-99938269D01*
X155913255Y-99938693D01*
X155946279Y-99938817D01*
X155986029Y-99938722D01*
X156033198Y-99938493D01*
X156060268Y-99938352D01*
X156109169Y-99938092D01*
X156150317Y-99937837D01*
X156184425Y-99937557D01*
X156212206Y-99937221D01*
X156234374Y-99936799D01*
X156251641Y-99936261D01*
X156264722Y-99935576D01*
X156274329Y-99934715D01*
X156281175Y-99933647D01*
X156285974Y-99932342D01*
X156289440Y-99930770D01*
X156292285Y-99928899D01*
X156292840Y-99928489D01*
X156304141Y-99918407D01*
X156313255Y-99908078D01*
X156315669Y-99904489D01*
X156317606Y-99900256D01*
X156319130Y-99894441D01*
X156320304Y-99886106D01*
X156321192Y-99874312D01*
X156321858Y-99858120D01*
X156322364Y-99836594D01*
X156322776Y-99808794D01*
X156323156Y-99773783D01*
X156323288Y-99760173D01*
X156323530Y-99726089D01*
X156323599Y-99693918D01*
X156323531Y-99672884D01*
X156451100Y-99672884D01*
X156451108Y-99723692D01*
X156451184Y-99766731D01*
X156451401Y-99802698D01*
X156451833Y-99832290D01*
X156452557Y-99856204D01*
X156453645Y-99875138D01*
X156455173Y-99889789D01*
X156457214Y-99900854D01*
X156459845Y-99909030D01*
X156463138Y-99915014D01*
X156467170Y-99919505D01*
X156472013Y-99923198D01*
X156477743Y-99926792D01*
X156478278Y-99927118D01*
X156481499Y-99928857D01*
X156485457Y-99930322D01*
X156490856Y-99931538D01*
X156498399Y-99932528D01*
X156508791Y-99933314D01*
X156522736Y-99933921D01*
X156540938Y-99934371D01*
X156564102Y-99934687D01*
X156592930Y-99934893D01*
X156628128Y-99935013D01*
X156670400Y-99935069D01*
X156719281Y-99935085D01*
X156947246Y-99935100D01*
X156961261Y-99921086D01*
X156971243Y-99908147D01*
X156978785Y-99893248D01*
X156980039Y-99889380D01*
X156981270Y-99881119D01*
X156982258Y-99866209D01*
X156983006Y-99844365D01*
X156983519Y-99815298D01*
X156983802Y-99778721D01*
X156983858Y-99734348D01*
X156983811Y-99719200D01*
X157111500Y-99719200D01*
X157111500Y-99801886D01*
X157111661Y-99834195D01*
X157112314Y-99859275D01*
X157113714Y-99878361D01*
X157116117Y-99892689D01*
X157119776Y-99903493D01*
X157124948Y-99912009D01*
X157131887Y-99919470D01*
X157136649Y-99923656D01*
X157150249Y-99935100D01*
X157369000Y-99935085D01*
X157417785Y-99935067D01*
X157458825Y-99935006D01*
X157492839Y-99934877D01*
X157520548Y-99934655D01*
X157542672Y-99934315D01*
X157559932Y-99933832D01*
X157573048Y-99933182D01*
X157582741Y-99932340D01*
X157589732Y-99931281D01*
X157594740Y-99929981D01*
X157598486Y-99928414D01*
X157600789Y-99927118D01*
X157606333Y-99923705D01*
X157611068Y-99920311D01*
X157615056Y-99916278D01*
X157618361Y-99910948D01*
X157621048Y-99903662D01*
X157623181Y-99893762D01*
X157624824Y-99880591D01*
X157626040Y-99863490D01*
X157626894Y-99841801D01*
X157627449Y-99814866D01*
X157627770Y-99782028D01*
X157627810Y-99771459D01*
X157755537Y-99771459D01*
X157755776Y-99812808D01*
X157756261Y-99845721D01*
X157756991Y-99870207D01*
X157757967Y-99886274D01*
X157759023Y-99893433D01*
X157765165Y-99906044D01*
X157775010Y-99918698D01*
X157778449Y-99922008D01*
X157793361Y-99935100D01*
X158249972Y-99935100D01*
X158264884Y-99922008D01*
X158275231Y-99910364D01*
X158282927Y-99897216D01*
X158284310Y-99893433D01*
X158285501Y-99884722D01*
X158286447Y-99867600D01*
X158287147Y-99842059D01*
X158287600Y-99808089D01*
X158287809Y-99765682D01*
X158287771Y-99714828D01*
X158287537Y-99663416D01*
X158287239Y-99615274D01*
X158286950Y-99574875D01*
X158286639Y-99541492D01*
X158286273Y-99514401D01*
X158285820Y-99492877D01*
X158285249Y-99476195D01*
X158284526Y-99463631D01*
X158283620Y-99454459D01*
X158282500Y-99447955D01*
X158281131Y-99443393D01*
X158279484Y-99440049D01*
X158277525Y-99437198D01*
X158277522Y-99437194D01*
X158267439Y-99425894D01*
X158257103Y-99416779D01*
X158254333Y-99414859D01*
X158251125Y-99413243D01*
X158246772Y-99411906D01*
X158240565Y-99410820D01*
X158231796Y-99409960D01*
X158219756Y-99409299D01*
X158203738Y-99408811D01*
X158183033Y-99408471D01*
X158156934Y-99408251D01*
X158124731Y-99408125D01*
X158085716Y-99408067D01*
X158039182Y-99408051D01*
X158021666Y-99408050D01*
X157972437Y-99408058D01*
X157930965Y-99408099D01*
X157896544Y-99408199D01*
X157868465Y-99408384D01*
X157846019Y-99408681D01*
X157828499Y-99409117D01*
X157815197Y-99409716D01*
X157805404Y-99410506D01*
X157798412Y-99411512D01*
X157793512Y-99412762D01*
X157789998Y-99414281D01*
X157787159Y-99416095D01*
X157786230Y-99416779D01*
X157774928Y-99426860D01*
X157765811Y-99437194D01*
X157763852Y-99440045D01*
X157762204Y-99443387D01*
X157760835Y-99447946D01*
X157759714Y-99454447D01*
X157758808Y-99463614D01*
X157758085Y-99476173D01*
X157757513Y-99492848D01*
X157757060Y-99514363D01*
X157756694Y-99541445D01*
X157756383Y-99574818D01*
X157756095Y-99615206D01*
X157755796Y-99663334D01*
X157755796Y-99663416D01*
X157755544Y-99721664D01*
X157755537Y-99771459D01*
X157627810Y-99771459D01*
X157627921Y-99742628D01*
X157627965Y-99696008D01*
X157627966Y-99647652D01*
X157627966Y-99405934D01*
X157504825Y-99405934D01*
X157505407Y-99605189D01*
X157505525Y-99651643D01*
X157505565Y-99690368D01*
X157505504Y-99722101D01*
X157505317Y-99747580D01*
X157504981Y-99767542D01*
X157504470Y-99782726D01*
X157503761Y-99793867D01*
X157502830Y-99801704D01*
X157501652Y-99806975D01*
X157500202Y-99810416D01*
X157498589Y-99812622D01*
X157496008Y-99815007D01*
X157492438Y-99816878D01*
X157486907Y-99818298D01*
X157478443Y-99819327D01*
X157466074Y-99820029D01*
X157448830Y-99820465D01*
X157425739Y-99820698D01*
X157395828Y-99820788D01*
X157370469Y-99820800D01*
X157334829Y-99820753D01*
X157306700Y-99820576D01*
X157285125Y-99820218D01*
X157269149Y-99819626D01*
X157257814Y-99818749D01*
X157250166Y-99817533D01*
X157245247Y-99815927D01*
X157242103Y-99813879D01*
X157242008Y-99813794D01*
X157238424Y-99809325D01*
X157236125Y-99802570D01*
X157234848Y-99791791D01*
X157234327Y-99775251D01*
X157234266Y-99762994D01*
X157234266Y-99719200D01*
X157111500Y-99719200D01*
X156983811Y-99719200D01*
X156983693Y-99681890D01*
X156983593Y-99663152D01*
X156983305Y-99615667D01*
X156983018Y-99575903D01*
X156982700Y-99543114D01*
X156982318Y-99516554D01*
X156981840Y-99495478D01*
X156981233Y-99479140D01*
X156980466Y-99466795D01*
X156979505Y-99457696D01*
X156978319Y-99451097D01*
X156976875Y-99446254D01*
X156975140Y-99442420D01*
X156973916Y-99440243D01*
X156964899Y-99428017D01*
X156954354Y-99417618D01*
X156953496Y-99416960D01*
X156950708Y-99415006D01*
X156947551Y-99413361D01*
X156943320Y-99411998D01*
X156937308Y-99410891D01*
X156928808Y-99410013D01*
X156917115Y-99409337D01*
X156901521Y-99408838D01*
X156881321Y-99408488D01*
X156855807Y-99408261D01*
X156824273Y-99408130D01*
X156786014Y-99408069D01*
X156740321Y-99408051D01*
X156716430Y-99408050D01*
X156665285Y-99408038D01*
X156621920Y-99408059D01*
X156585647Y-99408198D01*
X156555781Y-99408542D01*
X156531633Y-99409178D01*
X156512518Y-99410190D01*
X156497748Y-99411666D01*
X156486636Y-99413691D01*
X156478496Y-99416351D01*
X156472641Y-99419733D01*
X156468383Y-99423923D01*
X156465036Y-99429007D01*
X156461914Y-99435070D01*
X156459323Y-99440279D01*
X156457482Y-99444230D01*
X156455937Y-99448740D01*
X156454664Y-99454545D01*
X156453635Y-99462381D01*
X156452826Y-99472984D01*
X156452209Y-99487089D01*
X156451759Y-99505433D01*
X156451450Y-99528750D01*
X156451255Y-99557777D01*
X156451149Y-99593249D01*
X156451106Y-99635903D01*
X156451100Y-99672884D01*
X156323531Y-99672884D01*
X156323505Y-99664855D01*
X156323257Y-99640094D01*
X156322865Y-99620827D01*
X156322338Y-99608250D01*
X156322035Y-99604900D01*
X156321030Y-99599122D01*
X156319218Y-99593580D01*
X156315929Y-99587493D01*
X156310492Y-99580080D01*
X156302234Y-99570559D01*
X156290486Y-99558150D01*
X156274575Y-99542072D01*
X156253830Y-99521543D01*
X156231877Y-99499992D01*
X156203173Y-99472097D01*
X156179790Y-99449927D01*
X156161239Y-99433049D01*
X156147028Y-99421033D01*
X156136668Y-99413446D01*
X156129668Y-99409856D01*
X156129413Y-99409778D01*
X156120562Y-99408535D01*
X156103799Y-99407575D01*
X156079674Y-99406907D01*
X156048738Y-99406543D01*
X156011541Y-99406493D01*
X155971978Y-99406737D01*
X155933359Y-99407115D01*
X155902293Y-99407501D01*
X155877869Y-99407954D01*
X155859175Y-99408532D01*
X155845297Y-99409294D01*
X155835323Y-99410300D01*
X155828341Y-99411607D01*
X155823439Y-99413275D01*
X155819704Y-99415362D01*
X155817891Y-99416653D01*
X155807932Y-99426456D01*
X155799147Y-99438769D01*
X155798538Y-99439871D01*
X155796786Y-99443559D01*
X155795316Y-99448023D01*
X155794104Y-99453988D01*
X155793125Y-99462180D01*
X155792355Y-99473327D01*
X155791770Y-99488155D01*
X155791345Y-99507390D01*
X155791056Y-99531759D01*
X155790879Y-99561988D01*
X155790790Y-99598804D01*
X155790765Y-99642932D01*
X155387978Y-99642932D01*
X155388064Y-99640570D01*
X155388241Y-99621076D01*
X155388127Y-99595530D01*
X155387785Y-99562792D01*
X155387734Y-99558496D01*
X155387282Y-99523522D01*
X155386711Y-99495931D01*
X155385786Y-99474643D01*
X155384276Y-99458575D01*
X155381948Y-99446646D01*
X155378570Y-99437773D01*
X155373909Y-99430875D01*
X155367732Y-99424870D01*
X155359807Y-99418675D01*
X155357268Y-99416779D01*
X155354506Y-99414864D01*
X155351308Y-99413252D01*
X155346968Y-99411917D01*
X155340781Y-99410832D01*
X155332039Y-99409971D01*
X155320038Y-99409310D01*
X155304072Y-99408820D01*
X155283434Y-99408478D01*
X155257420Y-99408255D01*
X155225323Y-99408127D01*
X155186437Y-99408068D01*
X155140056Y-99408051D01*
X155120463Y-99408050D01*
X155069335Y-99408036D01*
X155025988Y-99408050D01*
X154989735Y-99408184D01*
X154959891Y-99408526D01*
X154935770Y-99409166D01*
X154916685Y-99410193D01*
X154901952Y-99411696D01*
X154890884Y-99413766D01*
X154882795Y-99416490D01*
X154877000Y-99419959D01*
X154872812Y-99424262D01*
X154869545Y-99429488D01*
X154866514Y-99435727D01*
X154863808Y-99441488D01*
X154861951Y-99445560D01*
X154860380Y-99449951D01*
X154859070Y-99455364D01*
X154857999Y-99462501D01*
X154857142Y-99472065D01*
X154856475Y-99484758D01*
X154855975Y-99501285D01*
X154855617Y-99522346D01*
X154855378Y-99548645D01*
X154855234Y-99580885D01*
X154855161Y-99619769D01*
X154855136Y-99665998D01*
X154855133Y-99697254D01*
X154715305Y-99697254D01*
X154715605Y-99696770D01*
X154718059Y-99692228D01*
X154719976Y-99686915D01*
X154721420Y-99679787D01*
X154722459Y-99669801D01*
X154723157Y-99655914D01*
X154723583Y-99637084D01*
X154723801Y-99612266D01*
X154723878Y-99580419D01*
X154723884Y-99566368D01*
X154723868Y-99531845D01*
X154723760Y-99504740D01*
X154723482Y-99484005D01*
X154722958Y-99468591D01*
X154722112Y-99457450D01*
X154720866Y-99449534D01*
X154719144Y-99443795D01*
X154716870Y-99439183D01*
X154714290Y-99435135D01*
X154710099Y-99428866D01*
X154706111Y-99423558D01*
X154701624Y-99419135D01*
X154695940Y-99415522D01*
X154688356Y-99412640D01*
X154678174Y-99410415D01*
X154664693Y-99408771D01*
X154647211Y-99407630D01*
X154625030Y-99406917D01*
X154597448Y-99406555D01*
X154563765Y-99406468D01*
X154523280Y-99406580D01*
X154475294Y-99406815D01*
X154455083Y-99406920D01*
X154406322Y-99407175D01*
X154365309Y-99407420D01*
X154331325Y-99407686D01*
X154303652Y-99408007D01*
X154281571Y-99408414D01*
X154264363Y-99408941D01*
X154251310Y-99409619D01*
X154241693Y-99410483D01*
X154234794Y-99411563D01*
X154229893Y-99412893D01*
X154226272Y-99414505D01*
X154223213Y-99416432D01*
X154221713Y-99417492D01*
X154215914Y-99421662D01*
X154211002Y-99425696D01*
X154206909Y-99430295D01*
X154203564Y-99436155D01*
X154200897Y-99443977D01*
X154198838Y-99454459D01*
X154197318Y-99468299D01*
X154196267Y-99486197D01*
X154195614Y-99508851D01*
X154195290Y-99536959D01*
X154195226Y-99571222D01*
X154027602Y-99571222D01*
X154031871Y-99560357D01*
X154034269Y-99554203D01*
X154046912Y-99521623D01*
X154058521Y-99491499D01*
X154068748Y-99464750D01*
X154077246Y-99442293D01*
X154083667Y-99425047D01*
X154087663Y-99413930D01*
X154088900Y-99409913D01*
X154084865Y-99408447D01*
X154073553Y-99407253D01*
X154056149Y-99406404D01*
X154033839Y-99405973D01*
X154024006Y-99405934D01*
X153959112Y-99405934D01*
X153923120Y-99506475D01*
X153887128Y-99607017D01*
X153794702Y-99608160D01*
X153760920Y-99608757D01*
X153734649Y-99609002D01*
X153714953Y-99607977D01*
X153700894Y-99604766D01*
X153691536Y-99598451D01*
X153685943Y-99588116D01*
X153683176Y-99572843D01*
X153682301Y-99551716D01*
X153682379Y-99523817D01*
X153682500Y-99498329D01*
X153682500Y-99405934D01*
X153559733Y-99405934D01*
X152916266Y-99405934D01*
X152916266Y-99524467D01*
X153296293Y-99524467D01*
X153303130Y-99534902D01*
X153308148Y-99548059D01*
X153309943Y-99564918D01*
X153308588Y-99582029D01*
X153304157Y-99595944D01*
X153301739Y-99599609D01*
X153293793Y-99609134D01*
X153118788Y-99609150D01*
X153075617Y-99609169D01*
X153040090Y-99609242D01*
X153011384Y-99609407D01*
X152988674Y-99609702D01*
X152971139Y-99610162D01*
X152957955Y-99610826D01*
X152948298Y-99611730D01*
X152941346Y-99612913D01*
X152936276Y-99614411D01*
X152932264Y-99616261D01*
X152929779Y-99617704D01*
X152918140Y-99628074D01*
X152908523Y-99642313D01*
X152907647Y-99644146D01*
X152905168Y-99650276D01*
X152903245Y-99657161D01*
X152901806Y-99665912D01*
X152900783Y-99677642D01*
X152900103Y-99693465D01*
X152899697Y-99714492D01*
X152899494Y-99741838D01*
X152899426Y-99773956D01*
X152771827Y-99773956D01*
X152771438Y-99696975D01*
X152771163Y-99645284D01*
X152770882Y-99601378D01*
X152770574Y-99564577D01*
X152770214Y-99534201D01*
X152769780Y-99509569D01*
X152769247Y-99490000D01*
X152768592Y-99474814D01*
X152767792Y-99463329D01*
X152766823Y-99454865D01*
X152765662Y-99448742D01*
X152764285Y-99444278D01*
X152762669Y-99440793D01*
X152762603Y-99440672D01*
X152755194Y-99429228D01*
X152746427Y-99420987D01*
X152734849Y-99415458D01*
X152719011Y-99412147D01*
X152697462Y-99410563D01*
X152672850Y-99410205D01*
X152648961Y-99410401D01*
X152631863Y-99411110D01*
X152619885Y-99412520D01*
X152611359Y-99414822D01*
X152605116Y-99417897D01*
X152601501Y-99420958D01*
X152596866Y-99426635D01*
X152590890Y-99435506D01*
X152583250Y-99448145D01*
X152573626Y-99465128D01*
X152561694Y-99487031D01*
X152547134Y-99514430D01*
X152529624Y-99547900D01*
X152508841Y-99588018D01*
X152494532Y-99615783D01*
X152472164Y-99659169D01*
X152453280Y-99695587D01*
X152437549Y-99725629D01*
X152424638Y-99749883D01*
X152414214Y-99768941D01*
X152405944Y-99783392D01*
X152399496Y-99793825D01*
X152394536Y-99800832D01*
X152390733Y-99805002D01*
X152387753Y-99806926D01*
X152386582Y-99807217D01*
X152384071Y-99807045D01*
X152381260Y-99805520D01*
X152377804Y-99802037D01*
X152373357Y-99795991D01*
X152367575Y-99786778D01*
X152360113Y-99773794D01*
X152350627Y-99756432D01*
X152338771Y-99734090D01*
X152324202Y-99706162D01*
X152306573Y-99672043D01*
X152285541Y-99631130D01*
X152279784Y-99619911D01*
X152254225Y-99570342D01*
X152232220Y-99528204D01*
X152213659Y-99493296D01*
X152198432Y-99465418D01*
X152186427Y-99444367D01*
X152177535Y-99429942D01*
X152171646Y-99421944D01*
X152170451Y-99420770D01*
X152165116Y-99416599D01*
X152159660Y-99413695D01*
X152152506Y-99411829D01*
X152142076Y-99410772D01*
X152126791Y-99410296D01*
X152105074Y-99410170D01*
X152097363Y-99410167D01*
X152069909Y-99410474D01*
X152049482Y-99411765D01*
X152034652Y-99414595D01*
X152023991Y-99419520D01*
X152016070Y-99427096D01*
X152009458Y-99437878D01*
X152005661Y-99445818D01*
X152003977Y-99449952D01*
X152002552Y-99454803D01*
X152001363Y-99461072D01*
X152000389Y-99469456D01*
X151999608Y-99480655D01*
X151998999Y-99495369D01*
X151998539Y-99514296D01*
X151998208Y-99538135D01*
X151997983Y-99567586D01*
X151997842Y-99603348D01*
X151997764Y-99646119D01*
X151997728Y-99696599D01*
X151997726Y-99701209D01*
X151997633Y-99939334D01*
X149411067Y-99939334D01*
X149411067Y-99405934D01*
X149703166Y-99405934D01*
X149703166Y-99524467D01*
X149811841Y-99524467D01*
X149845529Y-99524523D01*
X149871762Y-99524731D01*
X149891556Y-99525152D01*
X149905922Y-99525847D01*
X149915873Y-99526877D01*
X149922423Y-99528304D01*
X149926583Y-99530187D01*
X149928258Y-99531473D01*
X149930062Y-99533505D01*
X149931563Y-99536534D01*
X149932788Y-99541299D01*
X149933765Y-99548537D01*
X149934522Y-99558984D01*
X149935087Y-99573379D01*
X149935487Y-99592459D01*
X149935751Y-99616960D01*
X149935906Y-99647622D01*
X149935979Y-99685180D01*
X149936000Y-99730372D01*
X149936000Y-99935100D01*
X150058766Y-99935100D01*
X150058766Y-99739582D01*
X150058773Y-99693854D01*
X150058803Y-99665438D01*
X150401559Y-99665438D01*
X150401649Y-99703695D01*
X150401874Y-99741121D01*
X150402233Y-99776689D01*
X150402725Y-99809376D01*
X150403348Y-99838157D01*
X150404100Y-99862008D01*
X150404981Y-99879905D01*
X150405989Y-99890824D01*
X150406486Y-99893194D01*
X150412535Y-99906347D01*
X150420245Y-99917649D01*
X150424466Y-99922270D01*
X150428722Y-99926171D01*
X150433730Y-99929414D01*
X150440205Y-99932060D01*
X150448863Y-99934171D01*
X150460419Y-99935808D01*
X150475588Y-99937033D01*
X150495087Y-99937907D01*
X150519632Y-99938492D01*
X150549938Y-99938849D01*
X150586720Y-99939040D01*
X150630694Y-99939127D01*
X150670483Y-99939162D01*
X150719156Y-99939178D01*
X150760091Y-99939135D01*
X150794014Y-99939010D01*
X150821654Y-99938780D01*
X150843739Y-99938421D01*
X150860996Y-99937911D01*
X150874153Y-99937228D01*
X150883938Y-99936348D01*
X150891079Y-99935248D01*
X150896303Y-99933906D01*
X150900339Y-99932298D01*
X150901115Y-99931919D01*
X150913531Y-99923184D01*
X150924427Y-99911602D01*
X150925457Y-99910133D01*
X150928009Y-99906140D01*
X150930064Y-99901994D01*
X150931675Y-99896785D01*
X150932897Y-99889605D01*
X150933783Y-99879545D01*
X150934388Y-99865696D01*
X150934765Y-99847148D01*
X150934967Y-99822993D01*
X150935050Y-99792321D01*
X150935066Y-99754225D01*
X150935066Y-99747998D01*
X150935006Y-99706926D01*
X150934804Y-99673511D01*
X150934431Y-99646945D01*
X150933855Y-99626418D01*
X150933046Y-99611122D01*
X150931975Y-99600248D01*
X150930610Y-99592987D01*
X150929076Y-99588815D01*
X150924558Y-99582899D01*
X150914826Y-99571958D01*
X150900725Y-99556883D01*
X150883100Y-99538563D01*
X150862798Y-99517885D01*
X150840663Y-99495741D01*
X150839099Y-99494191D01*
X150814236Y-99469624D01*
X150794535Y-99450379D01*
X150779185Y-99435780D01*
X150767374Y-99425148D01*
X150758292Y-99417807D01*
X150751125Y-99413079D01*
X150745064Y-99410287D01*
X150739296Y-99408754D01*
X150736082Y-99408221D01*
X150727245Y-99407582D01*
X150711124Y-99407077D01*
X150688899Y-99406714D01*
X150661752Y-99406506D01*
X150630862Y-99406463D01*
X150597412Y-99406597D01*
X150578638Y-99406747D01*
X150440226Y-99408050D01*
X150425138Y-99422679D01*
X150415075Y-99434722D01*
X150407543Y-99447777D01*
X150405882Y-99452313D01*
X150404838Y-99460357D01*
X150403941Y-99475764D01*
X150403189Y-99497508D01*
X150402581Y-99524565D01*
X150402116Y-99555911D01*
X150401791Y-99590521D01*
X150401606Y-99627371D01*
X150401559Y-99665438D01*
X150058803Y-99665438D01*
X150058814Y-99655838D01*
X150058924Y-99624778D01*
X150059138Y-99599918D01*
X150059488Y-99580502D01*
X150060008Y-99565776D01*
X150060733Y-99554983D01*
X150061696Y-99547369D01*
X150062932Y-99542177D01*
X150064473Y-99538653D01*
X150066355Y-99536040D01*
X150067971Y-99534265D01*
X150070947Y-99531290D01*
X150074294Y-99528988D01*
X150079055Y-99527272D01*
X150086275Y-99526057D01*
X150096996Y-99525256D01*
X150112263Y-99524783D01*
X150133118Y-99524551D01*
X150160605Y-99524474D01*
X150186504Y-99524467D01*
X150295833Y-99524467D01*
X150295833Y-99405934D01*
X151066300Y-99405934D01*
X151066300Y-99935100D01*
X151189066Y-99935100D01*
X151189066Y-99839065D01*
X151189012Y-99804763D01*
X151189248Y-99777992D01*
X151190369Y-99757823D01*
X151192971Y-99743326D01*
X151197652Y-99733571D01*
X151205006Y-99727629D01*
X151215630Y-99724569D01*
X151230121Y-99723463D01*
X151249073Y-99723379D01*
X151263207Y-99723434D01*
X151318939Y-99723434D01*
X151456791Y-99935100D01*
X151599254Y-99935100D01*
X151525335Y-99828622D01*
X151451416Y-99722143D01*
X151463116Y-99715008D01*
X151473100Y-99707967D01*
X151479992Y-99701601D01*
X151482462Y-99696605D01*
X151487535Y-99684830D01*
X151494781Y-99667363D01*
X151503770Y-99645291D01*
X151514074Y-99619701D01*
X151525263Y-99591681D01*
X151536908Y-99562319D01*
X151548579Y-99532701D01*
X151559848Y-99503915D01*
X151570286Y-99477048D01*
X151579462Y-99453188D01*
X151586949Y-99433422D01*
X151592316Y-99418838D01*
X151595134Y-99410522D01*
X151595456Y-99409109D01*
X151591468Y-99408017D01*
X151580457Y-99407087D01*
X151563871Y-99406390D01*
X151543151Y-99405996D01*
X151530349Y-99405934D01*
X151465232Y-99405934D01*
X151440737Y-99474725D01*
X151431563Y-99500374D01*
X151422307Y-99526048D01*
X151413785Y-99549499D01*
X151406813Y-99568477D01*
X151403884Y-99576325D01*
X151391525Y-99609134D01*
X151300094Y-99609134D01*
X151266524Y-99609314D01*
X151240453Y-99609228D01*
X151220942Y-99607937D01*
X151207050Y-99604504D01*
X151197836Y-99597990D01*
X151192360Y-99587456D01*
X151189682Y-99571963D01*
X151188861Y-99550574D01*
X151188957Y-99522350D01*
X151189066Y-99498329D01*
X151189066Y-99405934D01*
X151066300Y-99405934D01*
X150295833Y-99405934D01*
X149703166Y-99405934D01*
X149411067Y-99405934D01*
X149411067Y-97748642D01*
X149703180Y-97748642D01*
X149703193Y-97829454D01*
X149703210Y-97918114D01*
X149703217Y-97974898D01*
X149703234Y-98069773D01*
X149703272Y-98156527D01*
X149703335Y-98235506D01*
X149703424Y-98307056D01*
X149703543Y-98371524D01*
X149703694Y-98429255D01*
X149703880Y-98480596D01*
X149704103Y-98525891D01*
X149704367Y-98565488D01*
X149704673Y-98599733D01*
X149705024Y-98628970D01*
X149705424Y-98653547D01*
X149705874Y-98673809D01*
X149706377Y-98690102D01*
X149706936Y-98702772D01*
X149707554Y-98712166D01*
X149708232Y-98718629D01*
X149708910Y-98722272D01*
X149723487Y-98762258D01*
X149744473Y-98798302D01*
X149771020Y-98829441D01*
X149802280Y-98854711D01*
X149837402Y-98873148D01*
X149843939Y-98875621D01*
X149870383Y-98885058D01*
X150622020Y-98884087D01*
X151373657Y-98883117D01*
X151405745Y-98867258D01*
X151439145Y-98846212D01*
X151468781Y-98818503D01*
X151493567Y-98785503D01*
X151512416Y-98748582D01*
X151521429Y-98721390D01*
X151522518Y-98712916D01*
X151523514Y-98696653D01*
X151524419Y-98673282D01*
X151525232Y-98643481D01*
X151525954Y-98607929D01*
X151526584Y-98567304D01*
X151527123Y-98522285D01*
X151527570Y-98473550D01*
X151527925Y-98421779D01*
X151528190Y-98367650D01*
X151528363Y-98311842D01*
X151528444Y-98255033D01*
X151528435Y-98197903D01*
X151528335Y-98141129D01*
X151528143Y-98085391D01*
X151527860Y-98031368D01*
X151527487Y-97979737D01*
X151527022Y-97931178D01*
X151526467Y-97886369D01*
X151525821Y-97845989D01*
X151525084Y-97810718D01*
X151524897Y-97804038D01*
X151972299Y-97804038D01*
X151972299Y-97887430D01*
X151972307Y-97974686D01*
X151972311Y-98067834D01*
X151972314Y-98152905D01*
X151972328Y-98230293D01*
X151972366Y-98300387D01*
X151972440Y-98363578D01*
X151972563Y-98420259D01*
X151972749Y-98470819D01*
X151973009Y-98515649D01*
X151973358Y-98555142D01*
X151973807Y-98589687D01*
X151974369Y-98619677D01*
X151975058Y-98645501D01*
X151975885Y-98667552D01*
X151976865Y-98686220D01*
X151978009Y-98701896D01*
X151979330Y-98714971D01*
X151980842Y-98725837D01*
X151982557Y-98734884D01*
X151984488Y-98742504D01*
X151986648Y-98749087D01*
X151989049Y-98755025D01*
X151991705Y-98760709D01*
X151994627Y-98766529D01*
X151997830Y-98772877D01*
X151998503Y-98774240D01*
X152018359Y-98805822D01*
X152044518Y-98833947D01*
X152075240Y-98857164D01*
X152108783Y-98874019D01*
X152124178Y-98879098D01*
X152128331Y-98879802D01*
X152135681Y-98880448D01*
X152146551Y-98881038D01*
X152161263Y-98881576D01*
X152180138Y-98882062D01*
X152203499Y-98882501D01*
X152231668Y-98882893D01*
X152264965Y-98883243D01*
X152303714Y-98883551D01*
X152348236Y-98883821D01*
X152398853Y-98884054D01*
X152455887Y-98884254D01*
X152519660Y-98884423D01*
X152590494Y-98884563D01*
X152668711Y-98884677D01*
X152754632Y-98884767D01*
X152848580Y-98884835D01*
X152885129Y-98884855D01*
X152978029Y-98884901D01*
X153062846Y-98884938D01*
X153139963Y-98884960D01*
X153209764Y-98884965D01*
X153272631Y-98884948D01*
X153328947Y-98884905D01*
X153379097Y-98884833D01*
X153423464Y-98884726D01*
X153462430Y-98884580D01*
X153496379Y-98884393D01*
X153525695Y-98884160D01*
X153550760Y-98883876D01*
X153571959Y-98883538D01*
X153589674Y-98883141D01*
X153604288Y-98882682D01*
X153616186Y-98882156D01*
X153625749Y-98881560D01*
X153633363Y-98880889D01*
X153639409Y-98880139D01*
X153644271Y-98879306D01*
X153648333Y-98878387D01*
X153651977Y-98877376D01*
X153654200Y-98876701D01*
X153688760Y-98861650D01*
X153719730Y-98839058D01*
X153746900Y-98809149D01*
X153770060Y-98772144D01*
X153785680Y-98737271D01*
X153794683Y-98713784D01*
X153795625Y-98144400D01*
X154241300Y-98144400D01*
X154241332Y-98410042D01*
X154241412Y-98466728D01*
X154241632Y-98518623D01*
X154241986Y-98565224D01*
X154242464Y-98606025D01*
X154243061Y-98640521D01*
X154243767Y-98668209D01*
X154244576Y-98688582D01*
X154245480Y-98701137D01*
X154245752Y-98703200D01*
X154255626Y-98741159D01*
X154272279Y-98777150D01*
X154294679Y-98809898D01*
X154321798Y-98838126D01*
X154352604Y-98860557D01*
X154384718Y-98875460D01*
X154412750Y-98885015D01*
X155128796Y-98885125D01*
X155220027Y-98885137D01*
X155303182Y-98885142D01*
X155378652Y-98885136D01*
X155446827Y-98885113D01*
X155508097Y-98885070D01*
X155562853Y-98885002D01*
X155611486Y-98884905D01*
X155654386Y-98884774D01*
X155691943Y-98884605D01*
X155724548Y-98884394D01*
X155752593Y-98884135D01*
X155776466Y-98883825D01*
X155796559Y-98883460D01*
X155813262Y-98883034D01*
X155826966Y-98882544D01*
X155838061Y-98881984D01*
X155846938Y-98881351D01*
X155853988Y-98880641D01*
X155859600Y-98879848D01*
X155864166Y-98878968D01*
X155868075Y-98877997D01*
X155871720Y-98876931D01*
X155872400Y-98876722D01*
X155906585Y-98861822D01*
X155937810Y-98839505D01*
X155965393Y-98810509D01*
X155988652Y-98775571D01*
X156006905Y-98735429D01*
X156009306Y-98728600D01*
X156010247Y-98725571D01*
X156011111Y-98722044D01*
X156011903Y-98717660D01*
X156012625Y-98712058D01*
X156013281Y-98704877D01*
X156013876Y-98695756D01*
X156014414Y-98684335D01*
X156014897Y-98670252D01*
X156015331Y-98653147D01*
X156015718Y-98632659D01*
X156016063Y-98608427D01*
X156016370Y-98580090D01*
X156016642Y-98547288D01*
X156016883Y-98509660D01*
X156017098Y-98466845D01*
X156017289Y-98418482D01*
X156017461Y-98364211D01*
X156017619Y-98303670D01*
X156017764Y-98236500D01*
X156017902Y-98162338D01*
X156018037Y-98080824D01*
X156018171Y-97991598D01*
X156018310Y-97894299D01*
X156018323Y-97885109D01*
X156018508Y-97751693D01*
X156463813Y-97751693D01*
X156463826Y-97832340D01*
X156463843Y-97920823D01*
X156463850Y-97981248D01*
X156463865Y-98075161D01*
X156463897Y-98160972D01*
X156463950Y-98239043D01*
X156464027Y-98309739D01*
X156464131Y-98373424D01*
X156464264Y-98430462D01*
X156464430Y-98481216D01*
X156464631Y-98526050D01*
X156464871Y-98565329D01*
X156465152Y-98599415D01*
X156465478Y-98628674D01*
X156465851Y-98653468D01*
X156466274Y-98674162D01*
X156466751Y-98691120D01*
X156467284Y-98704704D01*
X156467876Y-98715280D01*
X156468530Y-98723211D01*
X156469249Y-98728861D01*
X156469950Y-98732279D01*
X156484293Y-98771144D01*
X156505183Y-98806159D01*
X156531714Y-98836340D01*
X156562984Y-98860702D01*
X156598087Y-98878260D01*
X156606725Y-98881271D01*
X156610013Y-98882241D01*
X156613801Y-98883127D01*
X156618468Y-98883931D01*
X156624391Y-98884657D01*
X156631951Y-98885309D01*
X156641524Y-98885888D01*
X156653490Y-98886400D01*
X156668227Y-98886847D01*
X156686113Y-98887233D01*
X156707527Y-98887561D01*
X156732847Y-98887834D01*
X156762451Y-98888057D01*
X156796719Y-98888231D01*
X156836027Y-98888361D01*
X156880756Y-98888450D01*
X156931283Y-98888502D01*
X156987986Y-98888519D01*
X157051244Y-98888506D01*
X157121436Y-98888465D01*
X157198940Y-98888400D01*
X157284134Y-98888314D01*
X157377397Y-98888211D01*
X157382433Y-98888205D01*
X158133850Y-98887350D01*
X158162948Y-98873570D01*
X158190099Y-98857122D01*
X158216504Y-98834627D01*
X158239839Y-98808356D01*
X158257318Y-98781451D01*
X158260654Y-98775330D01*
X158263702Y-98769879D01*
X158266476Y-98764711D01*
X158268987Y-98759441D01*
X158271250Y-98753679D01*
X158273276Y-98747040D01*
X158275080Y-98739136D01*
X158276673Y-98729580D01*
X158278069Y-98717985D01*
X158279281Y-98703965D01*
X158280322Y-98687131D01*
X158281204Y-98667097D01*
X158281940Y-98643476D01*
X158282544Y-98615880D01*
X158283028Y-98583923D01*
X158283406Y-98547218D01*
X158283690Y-98505377D01*
X158283893Y-98458013D01*
X158284028Y-98404739D01*
X158284108Y-98345169D01*
X158284146Y-98278915D01*
X158284154Y-98205590D01*
X158284147Y-98124807D01*
X158284136Y-98036179D01*
X158284133Y-97978521D01*
X158284139Y-97885168D01*
X158284150Y-97799894D01*
X158284152Y-97722310D01*
X158284133Y-97652027D01*
X158284081Y-97588658D01*
X158283982Y-97531813D01*
X158283825Y-97481105D01*
X158283596Y-97436145D01*
X158283284Y-97396544D01*
X158282875Y-97361915D01*
X158282357Y-97331869D01*
X158281718Y-97306018D01*
X158280944Y-97283973D01*
X158280024Y-97265345D01*
X158278944Y-97249747D01*
X158277693Y-97236790D01*
X158276257Y-97226086D01*
X158274624Y-97217247D01*
X158272781Y-97209883D01*
X158270716Y-97203607D01*
X158268416Y-97198031D01*
X158265869Y-97192765D01*
X158263061Y-97187422D01*
X158259982Y-97181613D01*
X158258210Y-97178164D01*
X158243373Y-97154597D01*
X158223235Y-97130649D01*
X158200125Y-97108647D01*
X158176372Y-97090914D01*
X158163483Y-97083629D01*
X158138083Y-97071250D01*
X156613905Y-97071250D01*
X156584742Y-97085607D01*
X156556512Y-97103125D01*
X156529373Y-97126537D01*
X156505845Y-97153393D01*
X156490390Y-97177429D01*
X156487085Y-97183489D01*
X156484064Y-97188881D01*
X156481316Y-97193991D01*
X156478826Y-97199207D01*
X156476584Y-97204915D01*
X156474575Y-97211502D01*
X156472787Y-97219353D01*
X156471207Y-97228855D01*
X156469823Y-97240395D01*
X156468622Y-97254359D01*
X156467590Y-97271134D01*
X156466716Y-97291106D01*
X156465986Y-97314662D01*
X156465388Y-97342188D01*
X156464909Y-97374070D01*
X156464536Y-97410695D01*
X156464256Y-97452450D01*
X156464057Y-97499721D01*
X156463926Y-97552894D01*
X156463850Y-97612356D01*
X156463817Y-97678493D01*
X156463813Y-97751693D01*
X156018508Y-97751693D01*
X156019466Y-97064900D01*
X155608666Y-97064900D01*
X155608466Y-98430150D01*
X155579991Y-98462652D01*
X155551516Y-98495153D01*
X155130300Y-98495150D01*
X154709083Y-98495147D01*
X154651933Y-98430153D01*
X154651933Y-98144400D01*
X154241300Y-98144400D01*
X153795625Y-98144400D01*
X153795878Y-97992000D01*
X153796027Y-97891687D01*
X153796125Y-97799599D01*
X153796172Y-97715497D01*
X153796166Y-97639140D01*
X153796107Y-97570287D01*
X153795992Y-97508697D01*
X153795822Y-97454131D01*
X153795595Y-97406347D01*
X153795309Y-97365106D01*
X153794964Y-97330166D01*
X153794558Y-97301286D01*
X153794090Y-97278228D01*
X153793560Y-97260749D01*
X153792965Y-97248609D01*
X153792305Y-97241568D01*
X153792251Y-97241229D01*
X153782472Y-97204810D01*
X153766060Y-97169658D01*
X153744178Y-97137370D01*
X153717986Y-97109543D01*
X153688647Y-97087775D01*
X153675503Y-97080746D01*
X153646516Y-97067017D01*
X152893122Y-97065924D01*
X152798843Y-97065792D01*
X152712658Y-97065684D01*
X152634196Y-97065602D01*
X152563084Y-97065549D01*
X152498949Y-97065528D01*
X152441421Y-97065542D01*
X152390126Y-97065593D01*
X152344693Y-97065685D01*
X152304749Y-97065819D01*
X152269923Y-97066000D01*
X152239841Y-97066229D01*
X152214133Y-97066509D01*
X152192425Y-97066844D01*
X152174345Y-97067236D01*
X152159522Y-97067687D01*
X152147584Y-97068201D01*
X152138157Y-97068780D01*
X152130870Y-97069427D01*
X152125351Y-97070145D01*
X152121228Y-97070936D01*
X152118422Y-97071708D01*
X152084694Y-97086867D01*
X152053068Y-97109974D01*
X152034792Y-97127929D01*
X152011421Y-97157016D01*
X151994383Y-97187635D01*
X151982049Y-97222796D01*
X151980607Y-97228246D01*
X151979538Y-97232590D01*
X151978564Y-97237143D01*
X151977681Y-97242299D01*
X151976884Y-97248452D01*
X151976169Y-97255996D01*
X151975532Y-97265325D01*
X151974968Y-97276834D01*
X151974472Y-97290915D01*
X151974042Y-97307964D01*
X151973671Y-97328373D01*
X151973355Y-97352539D01*
X151973091Y-97380853D01*
X151972874Y-97413712D01*
X151972700Y-97451507D01*
X151972563Y-97494635D01*
X151972460Y-97543488D01*
X151972387Y-97598461D01*
X151972339Y-97659947D01*
X151972311Y-97728342D01*
X151972299Y-97804038D01*
X151524897Y-97804038D01*
X151524256Y-97781232D01*
X151523338Y-97758212D01*
X151522329Y-97742335D01*
X151521351Y-97734744D01*
X151519156Y-97725432D01*
X151516989Y-97716977D01*
X151514482Y-97708966D01*
X151511270Y-97700984D01*
X151506987Y-97692616D01*
X151501268Y-97683447D01*
X151493748Y-97673062D01*
X151484060Y-97661046D01*
X151471838Y-97646985D01*
X151456717Y-97630463D01*
X151438332Y-97611065D01*
X151416317Y-97588378D01*
X151390305Y-97561985D01*
X151359932Y-97531473D01*
X151324831Y-97496425D01*
X151284637Y-97456428D01*
X151238984Y-97411067D01*
X151215346Y-97387585D01*
X151167876Y-97340520D01*
X151123392Y-97296598D01*
X151082213Y-97256128D01*
X151044659Y-97219419D01*
X151011049Y-97186780D01*
X150981704Y-97158521D01*
X150956943Y-97134949D01*
X150937086Y-97116375D01*
X150922453Y-97103106D01*
X150913363Y-97095452D01*
X150911783Y-97094309D01*
X150905349Y-97089909D01*
X150899634Y-97085965D01*
X150894164Y-97082456D01*
X150888463Y-97079356D01*
X150882058Y-97076641D01*
X150874473Y-97074287D01*
X150865233Y-97072271D01*
X150853866Y-97070569D01*
X150839894Y-97069155D01*
X150822845Y-97068007D01*
X150802243Y-97067100D01*
X150777613Y-97066410D01*
X150748482Y-97065913D01*
X150714373Y-97065585D01*
X150674813Y-97065403D01*
X150629328Y-97065341D01*
X150577441Y-97065377D01*
X150518680Y-97065485D01*
X150452568Y-97065642D01*
X150378632Y-97065824D01*
X150350603Y-97065890D01*
X149857683Y-97067017D01*
X149824433Y-97082893D01*
X149789860Y-97103887D01*
X149759626Y-97131281D01*
X149735305Y-97163572D01*
X149729757Y-97173309D01*
X149726447Y-97179350D01*
X149723423Y-97184726D01*
X149720672Y-97189825D01*
X149718181Y-97195033D01*
X149715936Y-97200738D01*
X149713926Y-97207326D01*
X149712138Y-97215184D01*
X149710558Y-97224700D01*
X149709174Y-97236260D01*
X149707974Y-97250251D01*
X149706943Y-97267060D01*
X149706070Y-97287075D01*
X149705342Y-97310682D01*
X149704745Y-97338268D01*
X149704267Y-97370220D01*
X149703896Y-97406925D01*
X149703618Y-97448770D01*
X149703420Y-97496143D01*
X149703291Y-97549429D01*
X149703216Y-97609016D01*
X149703183Y-97675292D01*
X149703180Y-97748642D01*
X149411067Y-97748642D01*
X149411067Y-96772801D01*
X158588933Y-96772801D01*
X158588933Y-100231434D01*
G36*
X150637867Y-99524580D02*
X150657756Y-99525014D01*
X150672162Y-99525909D01*
X150682577Y-99527407D01*
X150690493Y-99529650D01*
X150697110Y-99532626D01*
X150707475Y-99539684D01*
X150721566Y-99551552D01*
X150737969Y-99566781D01*
X150755272Y-99583925D01*
X150772062Y-99601538D01*
X150786927Y-99618172D01*
X150798453Y-99632380D01*
X150805228Y-99642716D01*
X150805781Y-99643923D01*
X150808361Y-99652321D01*
X150810210Y-99663991D01*
X150811420Y-99680212D01*
X150812086Y-99702265D01*
X150812299Y-99731428D01*
X150812300Y-99733225D01*
X150812220Y-99760173D01*
X150811898Y-99779933D01*
X150811212Y-99793781D01*
X150810040Y-99802995D01*
X150808257Y-99808852D01*
X150805741Y-99812630D01*
X150804558Y-99813794D01*
X150801535Y-99815812D01*
X150796809Y-99817407D01*
X150789448Y-99818627D01*
X150778525Y-99819520D01*
X150763107Y-99820136D01*
X150742267Y-99820522D01*
X150715073Y-99820726D01*
X150680595Y-99820798D01*
X150669829Y-99820800D01*
X150542842Y-99820800D01*
X150533638Y-99811003D01*
X150531038Y-99808009D01*
X150528982Y-99804549D01*
X150527406Y-99799668D01*
X150526249Y-99792411D01*
X150525449Y-99781822D01*
X150524942Y-99766948D01*
X150524666Y-99746832D01*
X150524560Y-99720521D01*
X150524559Y-99687058D01*
X150524574Y-99672361D01*
X150524645Y-99635742D01*
X150524805Y-99606638D01*
X150525111Y-99584099D01*
X150525618Y-99567173D01*
X150526381Y-99554911D01*
X150527456Y-99546359D01*
X150528898Y-99540569D01*
X150530764Y-99536588D01*
X150532661Y-99533992D01*
X150535957Y-99530483D01*
X150539967Y-99527961D01*
X150546032Y-99526264D01*
X150555492Y-99525230D01*
X150569686Y-99524694D01*
X150589954Y-99524494D01*
X150611005Y-99524467D01*
X150637867Y-99524580D01*
X150637867Y-99524580D01*
G37*
X150637867Y-99524580D02*
X150657756Y-99525014D01*
X150672162Y-99525909D01*
X150682577Y-99527407D01*
X150690493Y-99529650D01*
X150697110Y-99532626D01*
X150707475Y-99539684D01*
X150721566Y-99551552D01*
X150737969Y-99566781D01*
X150755272Y-99583925D01*
X150772062Y-99601538D01*
X150786927Y-99618172D01*
X150798453Y-99632380D01*
X150805228Y-99642716D01*
X150805781Y-99643923D01*
X150808361Y-99652321D01*
X150810210Y-99663991D01*
X150811420Y-99680212D01*
X150812086Y-99702265D01*
X150812299Y-99731428D01*
X150812300Y-99733225D01*
X150812220Y-99760173D01*
X150811898Y-99779933D01*
X150811212Y-99793781D01*
X150810040Y-99802995D01*
X150808257Y-99808852D01*
X150805741Y-99812630D01*
X150804558Y-99813794D01*
X150801535Y-99815812D01*
X150796809Y-99817407D01*
X150789448Y-99818627D01*
X150778525Y-99819520D01*
X150763107Y-99820136D01*
X150742267Y-99820522D01*
X150715073Y-99820726D01*
X150680595Y-99820798D01*
X150669829Y-99820800D01*
X150542842Y-99820800D01*
X150533638Y-99811003D01*
X150531038Y-99808009D01*
X150528982Y-99804549D01*
X150527406Y-99799668D01*
X150526249Y-99792411D01*
X150525449Y-99781822D01*
X150524942Y-99766948D01*
X150524666Y-99746832D01*
X150524560Y-99720521D01*
X150524559Y-99687058D01*
X150524574Y-99672361D01*
X150524645Y-99635742D01*
X150524805Y-99606638D01*
X150525111Y-99584099D01*
X150525618Y-99567173D01*
X150526381Y-99554911D01*
X150527456Y-99546359D01*
X150528898Y-99540569D01*
X150530764Y-99536588D01*
X150532661Y-99533992D01*
X150535957Y-99530483D01*
X150539967Y-99527961D01*
X150546032Y-99526264D01*
X150555492Y-99525230D01*
X150569686Y-99524694D01*
X150589954Y-99524494D01*
X150611005Y-99524467D01*
X150637867Y-99524580D01*
G36*
X153300762Y-99733232D02*
X153305868Y-99740186D01*
X153308692Y-99749033D01*
X153309836Y-99762338D01*
X153309966Y-99772506D01*
X153310065Y-99785540D01*
X153309804Y-99795998D01*
X153308347Y-99804162D01*
X153304858Y-99810313D01*
X153298499Y-99814733D01*
X153288435Y-99817704D01*
X153273830Y-99819506D01*
X153253846Y-99820422D01*
X153227648Y-99820732D01*
X153194400Y-99820719D01*
X153166851Y-99820667D01*
X153036916Y-99820534D01*
X153029508Y-99810346D01*
X153024865Y-99800407D01*
X153022544Y-99785567D01*
X153022100Y-99771000D01*
X153022510Y-99754666D01*
X153024174Y-99744228D01*
X153027743Y-99737138D01*
X153031898Y-99732638D01*
X153034942Y-99730002D01*
X153038470Y-99727924D01*
X153043452Y-99726338D01*
X153050862Y-99725178D01*
X153061671Y-99724376D01*
X153076852Y-99723868D01*
X153097376Y-99723585D01*
X153124216Y-99723463D01*
X153158344Y-99723434D01*
X153291557Y-99723434D01*
X153300762Y-99733232D01*
X153300762Y-99733232D01*
G37*
X153300762Y-99733232D02*
X153305868Y-99740186D01*
X153308692Y-99749033D01*
X153309836Y-99762338D01*
X153309966Y-99772506D01*
X153310065Y-99785540D01*
X153309804Y-99795998D01*
X153308347Y-99804162D01*
X153304858Y-99810313D01*
X153298499Y-99814733D01*
X153288435Y-99817704D01*
X153273830Y-99819506D01*
X153253846Y-99820422D01*
X153227648Y-99820732D01*
X153194400Y-99820719D01*
X153166851Y-99820667D01*
X153036916Y-99820534D01*
X153029508Y-99810346D01*
X153024865Y-99800407D01*
X153022544Y-99785567D01*
X153022100Y-99771000D01*
X153022510Y-99754666D01*
X153024174Y-99744228D01*
X153027743Y-99737138D01*
X153031898Y-99732638D01*
X153034942Y-99730002D01*
X153038470Y-99727924D01*
X153043452Y-99726338D01*
X153050862Y-99725178D01*
X153061671Y-99724376D01*
X153076852Y-99723868D01*
X153097376Y-99723585D01*
X153124216Y-99723463D01*
X153158344Y-99723434D01*
X153291557Y-99723434D01*
X153300762Y-99733232D01*
G36*
X154459970Y-99524467D02*
X154586957Y-99524467D01*
X154596162Y-99534265D01*
X154603236Y-99547276D01*
X154605664Y-99564194D01*
X154603423Y-99581833D01*
X154596612Y-99596839D01*
X154587857Y-99609134D01*
X154459268Y-99609134D01*
X154422930Y-99609122D01*
X154394127Y-99609042D01*
X154371924Y-99608831D01*
X154355390Y-99608422D01*
X154343593Y-99607751D01*
X154335598Y-99606753D01*
X154330475Y-99605362D01*
X154327289Y-99603516D01*
X154325109Y-99601147D01*
X154324090Y-99599725D01*
X154319551Y-99587732D01*
X154317566Y-99569101D01*
X154317500Y-99564398D01*
X154317471Y-99553613D01*
X154317944Y-99544966D01*
X154319759Y-99538220D01*
X154323758Y-99533140D01*
X154330779Y-99529491D01*
X154341665Y-99527037D01*
X154357255Y-99525543D01*
X154378390Y-99524772D01*
X154405911Y-99524490D01*
X154440657Y-99524461D01*
X154459970Y-99524467D01*
X154459970Y-99524467D01*
G37*
X154459970Y-99524467D02*
X154586957Y-99524467D01*
X154596162Y-99534265D01*
X154603236Y-99547276D01*
X154605664Y-99564194D01*
X154603423Y-99581833D01*
X154596612Y-99596839D01*
X154587857Y-99609134D01*
X154459268Y-99609134D01*
X154422930Y-99609122D01*
X154394127Y-99609042D01*
X154371924Y-99608831D01*
X154355390Y-99608422D01*
X154343593Y-99607751D01*
X154335598Y-99606753D01*
X154330475Y-99605362D01*
X154327289Y-99603516D01*
X154325109Y-99601147D01*
X154324090Y-99599725D01*
X154319551Y-99587732D01*
X154317566Y-99569101D01*
X154317500Y-99564398D01*
X154317471Y-99553613D01*
X154317944Y-99544966D01*
X154319759Y-99538220D01*
X154323758Y-99533140D01*
X154330779Y-99529491D01*
X154341665Y-99527037D01*
X154357255Y-99525543D01*
X154378390Y-99524772D01*
X154405911Y-99524490D01*
X154440657Y-99524461D01*
X154459970Y-99524467D01*
G36*
X156025057Y-99524528D02*
X156044212Y-99524836D01*
X156058013Y-99525578D01*
X156068017Y-99526942D01*
X156075779Y-99529116D01*
X156082857Y-99532287D01*
X156088285Y-99535227D01*
X156100394Y-99543707D01*
X156115897Y-99557013D01*
X156133264Y-99573552D01*
X156150966Y-99591727D01*
X156167475Y-99609945D01*
X156181262Y-99626610D01*
X156190797Y-99640128D01*
X156193298Y-99644767D01*
X156196319Y-99652627D01*
X156198468Y-99661801D01*
X156199882Y-99673815D01*
X156200698Y-99690195D01*
X156201052Y-99712469D01*
X156201099Y-99731900D01*
X156200988Y-99758212D01*
X156200605Y-99777426D01*
X156199811Y-99790911D01*
X156198469Y-99800037D01*
X156196441Y-99806172D01*
X156193589Y-99810683D01*
X156193105Y-99811275D01*
X156190701Y-99813964D01*
X156187852Y-99816092D01*
X156183616Y-99817725D01*
X156177052Y-99818929D01*
X156167220Y-99819769D01*
X156153179Y-99820310D01*
X156133988Y-99820619D01*
X156108705Y-99820760D01*
X156076389Y-99820799D01*
X156056319Y-99820800D01*
X156019726Y-99820770D01*
X155990669Y-99820642D01*
X155968216Y-99820365D01*
X155951437Y-99819885D01*
X155939400Y-99819150D01*
X155931175Y-99818105D01*
X155925830Y-99816698D01*
X155922434Y-99814876D01*
X155920473Y-99813059D01*
X155918500Y-99810106D01*
X155916931Y-99805483D01*
X155915721Y-99798283D01*
X155914825Y-99787601D01*
X155914197Y-99772533D01*
X155913793Y-99752173D01*
X155913567Y-99725616D01*
X155913476Y-99691957D01*
X155913466Y-99671898D01*
X155913495Y-99634603D01*
X155913616Y-99604861D01*
X155913878Y-99581758D01*
X155914333Y-99564382D01*
X155915030Y-99551820D01*
X155916020Y-99543157D01*
X155917354Y-99537481D01*
X155919081Y-99533877D01*
X155921208Y-99531473D01*
X155925307Y-99528816D01*
X155931678Y-99526910D01*
X155941614Y-99525639D01*
X155956409Y-99524887D01*
X155977358Y-99524536D01*
X155998992Y-99524467D01*
X156025057Y-99524528D01*
X156025057Y-99524528D01*
G37*
X156025057Y-99524528D02*
X156044212Y-99524836D01*
X156058013Y-99525578D01*
X156068017Y-99526942D01*
X156075779Y-99529116D01*
X156082857Y-99532287D01*
X156088285Y-99535227D01*
X156100394Y-99543707D01*
X156115897Y-99557013D01*
X156133264Y-99573552D01*
X156150966Y-99591727D01*
X156167475Y-99609945D01*
X156181262Y-99626610D01*
X156190797Y-99640128D01*
X156193298Y-99644767D01*
X156196319Y-99652627D01*
X156198468Y-99661801D01*
X156199882Y-99673815D01*
X156200698Y-99690195D01*
X156201052Y-99712469D01*
X156201099Y-99731900D01*
X156200988Y-99758212D01*
X156200605Y-99777426D01*
X156199811Y-99790911D01*
X156198469Y-99800037D01*
X156196441Y-99806172D01*
X156193589Y-99810683D01*
X156193105Y-99811275D01*
X156190701Y-99813964D01*
X156187852Y-99816092D01*
X156183616Y-99817725D01*
X156177052Y-99818929D01*
X156167220Y-99819769D01*
X156153179Y-99820310D01*
X156133988Y-99820619D01*
X156108705Y-99820760D01*
X156076389Y-99820799D01*
X156056319Y-99820800D01*
X156019726Y-99820770D01*
X155990669Y-99820642D01*
X155968216Y-99820365D01*
X155951437Y-99819885D01*
X155939400Y-99819150D01*
X155931175Y-99818105D01*
X155925830Y-99816698D01*
X155922434Y-99814876D01*
X155920473Y-99813059D01*
X155918500Y-99810106D01*
X155916931Y-99805483D01*
X155915721Y-99798283D01*
X155914825Y-99787601D01*
X155914197Y-99772533D01*
X155913793Y-99752173D01*
X155913567Y-99725616D01*
X155913476Y-99691957D01*
X155913466Y-99671898D01*
X155913495Y-99634603D01*
X155913616Y-99604861D01*
X155913878Y-99581758D01*
X155914333Y-99564382D01*
X155915030Y-99551820D01*
X155916020Y-99543157D01*
X155917354Y-99537481D01*
X155919081Y-99533877D01*
X155921208Y-99531473D01*
X155925307Y-99528816D01*
X155931678Y-99526910D01*
X155941614Y-99525639D01*
X155956409Y-99524887D01*
X155977358Y-99524536D01*
X155998992Y-99524467D01*
X156025057Y-99524528D01*
G36*
X156852529Y-99534265D02*
X156855128Y-99537259D01*
X156857185Y-99540718D01*
X156858760Y-99545600D01*
X156859917Y-99552857D01*
X156860717Y-99563445D01*
X156861224Y-99578320D01*
X156861500Y-99598435D01*
X156861607Y-99624747D01*
X156861607Y-99658210D01*
X156861592Y-99672907D01*
X156861522Y-99709526D01*
X156861361Y-99738630D01*
X156861055Y-99761169D01*
X156860549Y-99778094D01*
X156859786Y-99790357D01*
X156858711Y-99798908D01*
X156857268Y-99804699D01*
X156855402Y-99808680D01*
X156853505Y-99811275D01*
X156851101Y-99813964D01*
X156848252Y-99816092D01*
X156844016Y-99817725D01*
X156837452Y-99818929D01*
X156827620Y-99819769D01*
X156813579Y-99820310D01*
X156794388Y-99820619D01*
X156769105Y-99820760D01*
X156736789Y-99820799D01*
X156716719Y-99820800D01*
X156680126Y-99820770D01*
X156651069Y-99820642D01*
X156628616Y-99820365D01*
X156611837Y-99819885D01*
X156599800Y-99819150D01*
X156591575Y-99818105D01*
X156586230Y-99816698D01*
X156582834Y-99814876D01*
X156580873Y-99813059D01*
X156578884Y-99810081D01*
X156577305Y-99805420D01*
X156576091Y-99798161D01*
X156575196Y-99787392D01*
X156574572Y-99772197D01*
X156574175Y-99751662D01*
X156573957Y-99724874D01*
X156573873Y-99690917D01*
X156573866Y-99674301D01*
X156573919Y-99636657D01*
X156574104Y-99606572D01*
X156574464Y-99583139D01*
X156575042Y-99565449D01*
X156575881Y-99552595D01*
X156577023Y-99543670D01*
X156578511Y-99537766D01*
X156580387Y-99533976D01*
X156580457Y-99533876D01*
X156582487Y-99531213D01*
X156585051Y-99529108D01*
X156589083Y-99527493D01*
X156595518Y-99526305D01*
X156605290Y-99525477D01*
X156619334Y-99524945D01*
X156638584Y-99524643D01*
X156663974Y-99524506D01*
X156696439Y-99524469D01*
X156715185Y-99524467D01*
X156843324Y-99524467D01*
X156852529Y-99534265D01*
X156852529Y-99534265D01*
G37*
X156852529Y-99534265D02*
X156855128Y-99537259D01*
X156857185Y-99540718D01*
X156858760Y-99545600D01*
X156859917Y-99552857D01*
X156860717Y-99563445D01*
X156861224Y-99578320D01*
X156861500Y-99598435D01*
X156861607Y-99624747D01*
X156861607Y-99658210D01*
X156861592Y-99672907D01*
X156861522Y-99709526D01*
X156861361Y-99738630D01*
X156861055Y-99761169D01*
X156860549Y-99778094D01*
X156859786Y-99790357D01*
X156858711Y-99798908D01*
X156857268Y-99804699D01*
X156855402Y-99808680D01*
X156853505Y-99811275D01*
X156851101Y-99813964D01*
X156848252Y-99816092D01*
X156844016Y-99817725D01*
X156837452Y-99818929D01*
X156827620Y-99819769D01*
X156813579Y-99820310D01*
X156794388Y-99820619D01*
X156769105Y-99820760D01*
X156736789Y-99820799D01*
X156716719Y-99820800D01*
X156680126Y-99820770D01*
X156651069Y-99820642D01*
X156628616Y-99820365D01*
X156611837Y-99819885D01*
X156599800Y-99819150D01*
X156591575Y-99818105D01*
X156586230Y-99816698D01*
X156582834Y-99814876D01*
X156580873Y-99813059D01*
X156578884Y-99810081D01*
X156577305Y-99805420D01*
X156576091Y-99798161D01*
X156575196Y-99787392D01*
X156574572Y-99772197D01*
X156574175Y-99751662D01*
X156573957Y-99724874D01*
X156573873Y-99690917D01*
X156573866Y-99674301D01*
X156573919Y-99636657D01*
X156574104Y-99606572D01*
X156574464Y-99583139D01*
X156575042Y-99565449D01*
X156575881Y-99552595D01*
X156577023Y-99543670D01*
X156578511Y-99537766D01*
X156580387Y-99533976D01*
X156580457Y-99533876D01*
X156582487Y-99531213D01*
X156585051Y-99529108D01*
X156589083Y-99527493D01*
X156595518Y-99526305D01*
X156605290Y-99525477D01*
X156619334Y-99524945D01*
X156638584Y-99524643D01*
X156663974Y-99524506D01*
X156696439Y-99524469D01*
X156715185Y-99524467D01*
X156843324Y-99524467D01*
X156852529Y-99534265D01*
G36*
X158056821Y-99524479D02*
X158085700Y-99524558D01*
X158107992Y-99524770D01*
X158124639Y-99525180D01*
X158136580Y-99525854D01*
X158144756Y-99526856D01*
X158150106Y-99528253D01*
X158153573Y-99530110D01*
X158156094Y-99532491D01*
X158157372Y-99533992D01*
X158159626Y-99537191D01*
X158161412Y-99541414D01*
X158162785Y-99547610D01*
X158163802Y-99556729D01*
X158164516Y-99569719D01*
X158164985Y-99587531D01*
X158165262Y-99611113D01*
X158165404Y-99641415D01*
X158165459Y-99672750D01*
X158165447Y-99710108D01*
X158165292Y-99739914D01*
X158164951Y-99763086D01*
X158164382Y-99780536D01*
X158163543Y-99793182D01*
X158162390Y-99801938D01*
X158160882Y-99807720D01*
X158159010Y-99811392D01*
X158157001Y-99814030D01*
X158154466Y-99816123D01*
X158150482Y-99817732D01*
X158144124Y-99818922D01*
X158134467Y-99819757D01*
X158120589Y-99820298D01*
X158101564Y-99820610D01*
X158076469Y-99820755D01*
X158044379Y-99820798D01*
X158021666Y-99820800D01*
X157984992Y-99820789D01*
X157955860Y-99820712D01*
X157933347Y-99820506D01*
X157916528Y-99820109D01*
X157904479Y-99819456D01*
X157896276Y-99818485D01*
X157890995Y-99817131D01*
X157887713Y-99815333D01*
X157885503Y-99813026D01*
X157884323Y-99811392D01*
X157882161Y-99804028D01*
X157880371Y-99789521D01*
X157878954Y-99769184D01*
X157877906Y-99744333D01*
X157877228Y-99716282D01*
X157876917Y-99686345D01*
X157876974Y-99655838D01*
X157877396Y-99626076D01*
X157878183Y-99598371D01*
X157879333Y-99574040D01*
X157880846Y-99554398D01*
X157882719Y-99540757D01*
X157884570Y-99534902D01*
X157891407Y-99524467D01*
X158020416Y-99524467D01*
X158056821Y-99524479D01*
X158056821Y-99524479D01*
G37*
X158056821Y-99524479D02*
X158085700Y-99524558D01*
X158107992Y-99524770D01*
X158124639Y-99525180D01*
X158136580Y-99525854D01*
X158144756Y-99526856D01*
X158150106Y-99528253D01*
X158153573Y-99530110D01*
X158156094Y-99532491D01*
X158157372Y-99533992D01*
X158159626Y-99537191D01*
X158161412Y-99541414D01*
X158162785Y-99547610D01*
X158163802Y-99556729D01*
X158164516Y-99569719D01*
X158164985Y-99587531D01*
X158165262Y-99611113D01*
X158165404Y-99641415D01*
X158165459Y-99672750D01*
X158165447Y-99710108D01*
X158165292Y-99739914D01*
X158164951Y-99763086D01*
X158164382Y-99780536D01*
X158163543Y-99793182D01*
X158162390Y-99801938D01*
X158160882Y-99807720D01*
X158159010Y-99811392D01*
X158157001Y-99814030D01*
X158154466Y-99816123D01*
X158150482Y-99817732D01*
X158144124Y-99818922D01*
X158134467Y-99819757D01*
X158120589Y-99820298D01*
X158101564Y-99820610D01*
X158076469Y-99820755D01*
X158044379Y-99820798D01*
X158021666Y-99820800D01*
X157984992Y-99820789D01*
X157955860Y-99820712D01*
X157933347Y-99820506D01*
X157916528Y-99820109D01*
X157904479Y-99819456D01*
X157896276Y-99818485D01*
X157890995Y-99817131D01*
X157887713Y-99815333D01*
X157885503Y-99813026D01*
X157884323Y-99811392D01*
X157882161Y-99804028D01*
X157880371Y-99789521D01*
X157878954Y-99769184D01*
X157877906Y-99744333D01*
X157877228Y-99716282D01*
X157876917Y-99686345D01*
X157876974Y-99655838D01*
X157877396Y-99626076D01*
X157878183Y-99598371D01*
X157879333Y-99574040D01*
X157880846Y-99554398D01*
X157882719Y-99540757D01*
X157884570Y-99534902D01*
X157891407Y-99524467D01*
X158020416Y-99524467D01*
X158056821Y-99524479D01*
G36*
X156667000Y-98745284D02*
X156666700Y-98763252D01*
X156665893Y-98777794D01*
X156664717Y-98787003D01*
X156663825Y-98789225D01*
X156658189Y-98789221D01*
X156647627Y-98787058D01*
X156642089Y-98785520D01*
X156621147Y-98775323D01*
X156602251Y-98758882D01*
X156587848Y-98738412D01*
X156586143Y-98734950D01*
X156580274Y-98721637D01*
X156577976Y-98712687D01*
X156580241Y-98707235D01*
X156588063Y-98704413D01*
X156602435Y-98703357D01*
X156622550Y-98703200D01*
X156667000Y-98703200D01*
X156667000Y-98745284D01*
X156667000Y-98745284D01*
G37*
X156667000Y-98745284D02*
X156666700Y-98763252D01*
X156665893Y-98777794D01*
X156664717Y-98787003D01*
X156663825Y-98789225D01*
X156658189Y-98789221D01*
X156647627Y-98787058D01*
X156642089Y-98785520D01*
X156621147Y-98775323D01*
X156602251Y-98758882D01*
X156587848Y-98738412D01*
X156586143Y-98734950D01*
X156580274Y-98721637D01*
X156577976Y-98712687D01*
X156580241Y-98707235D01*
X156588063Y-98704413D01*
X156602435Y-98703357D01*
X156622550Y-98703200D01*
X156667000Y-98703200D01*
X156667000Y-98745284D01*
G36*
X156766135Y-98714842D02*
X156757157Y-98737301D01*
X156741765Y-98758193D01*
X156721997Y-98775480D01*
X156699891Y-98787124D01*
X156691341Y-98789635D01*
X156679700Y-98792262D01*
X156679700Y-98703200D01*
X156768761Y-98703200D01*
X156766135Y-98714842D01*
X156766135Y-98714842D01*
G37*
X156766135Y-98714842D02*
X156757157Y-98737301D01*
X156741765Y-98758193D01*
X156721997Y-98775480D01*
X156699891Y-98787124D01*
X156691341Y-98789635D01*
X156679700Y-98792262D01*
X156679700Y-98703200D01*
X156768761Y-98703200D01*
X156766135Y-98714842D01*
G36*
X158072466Y-98745284D02*
X158072167Y-98763252D01*
X158071360Y-98777794D01*
X158070183Y-98787003D01*
X158069291Y-98789225D01*
X158063656Y-98789221D01*
X158053094Y-98787058D01*
X158047555Y-98785520D01*
X158026614Y-98775323D01*
X158007717Y-98758882D01*
X157993315Y-98738412D01*
X157991609Y-98734950D01*
X157985740Y-98721637D01*
X157983442Y-98712687D01*
X157985708Y-98707235D01*
X157993530Y-98704413D01*
X158007902Y-98703357D01*
X158028016Y-98703200D01*
X158072466Y-98703200D01*
X158072466Y-98745284D01*
X158072466Y-98745284D01*
G37*
X158072466Y-98745284D02*
X158072167Y-98763252D01*
X158071360Y-98777794D01*
X158070183Y-98787003D01*
X158069291Y-98789225D01*
X158063656Y-98789221D01*
X158053094Y-98787058D01*
X158047555Y-98785520D01*
X158026614Y-98775323D01*
X158007717Y-98758882D01*
X157993315Y-98738412D01*
X157991609Y-98734950D01*
X157985740Y-98721637D01*
X157983442Y-98712687D01*
X157985708Y-98707235D01*
X157993530Y-98704413D01*
X158007902Y-98703357D01*
X158028016Y-98703200D01*
X158072466Y-98703200D01*
X158072466Y-98745284D01*
G36*
X158171601Y-98714842D02*
X158162624Y-98737301D01*
X158147232Y-98758193D01*
X158127463Y-98775480D01*
X158105357Y-98787124D01*
X158096808Y-98789635D01*
X158085166Y-98792262D01*
X158085166Y-98703200D01*
X158174228Y-98703200D01*
X158171601Y-98714842D01*
X158171601Y-98714842D01*
G37*
X158171601Y-98714842D02*
X158162624Y-98737301D01*
X158147232Y-98758193D01*
X158127463Y-98775480D01*
X158105357Y-98787124D01*
X158096808Y-98789635D01*
X158085166Y-98792262D01*
X158085166Y-98703200D01*
X158174228Y-98703200D01*
X158171601Y-98714842D01*
G36*
X156666096Y-98644413D02*
X156664883Y-98688384D01*
X156620913Y-98689597D01*
X156576942Y-98690809D01*
X156579468Y-98675245D01*
X156586918Y-98653546D01*
X156600876Y-98633449D01*
X156619390Y-98616905D01*
X156640509Y-98605865D01*
X156651744Y-98602968D01*
X156667309Y-98600443D01*
X156666096Y-98644413D01*
X156666096Y-98644413D01*
G37*
X156666096Y-98644413D02*
X156664883Y-98688384D01*
X156620913Y-98689597D01*
X156576942Y-98690809D01*
X156579468Y-98675245D01*
X156586918Y-98653546D01*
X156600876Y-98633449D01*
X156619390Y-98616905D01*
X156640509Y-98605865D01*
X156651744Y-98602968D01*
X156667309Y-98600443D01*
X156666096Y-98644413D01*
G36*
X156699866Y-98604615D02*
X156715546Y-98612044D01*
X156731223Y-98622364D01*
X156742368Y-98632211D01*
X156750182Y-98642547D01*
X156757419Y-98655618D01*
X156763095Y-98669049D01*
X156766230Y-98680470D01*
X156765841Y-98687506D01*
X156765459Y-98687997D01*
X156760410Y-98689063D01*
X156748851Y-98689903D01*
X156732735Y-98690406D01*
X156721328Y-98690500D01*
X156679700Y-98690500D01*
X156679700Y-98646050D01*
X156679840Y-98626101D01*
X156680425Y-98613154D01*
X156681697Y-98605746D01*
X156683902Y-98602414D01*
X156687108Y-98601693D01*
X156699866Y-98604615D01*
X156699866Y-98604615D01*
G37*
X156699866Y-98604615D02*
X156715546Y-98612044D01*
X156731223Y-98622364D01*
X156742368Y-98632211D01*
X156750182Y-98642547D01*
X156757419Y-98655618D01*
X156763095Y-98669049D01*
X156766230Y-98680470D01*
X156765841Y-98687506D01*
X156765459Y-98687997D01*
X156760410Y-98689063D01*
X156748851Y-98689903D01*
X156732735Y-98690406D01*
X156721328Y-98690500D01*
X156679700Y-98690500D01*
X156679700Y-98646050D01*
X156679840Y-98626101D01*
X156680425Y-98613154D01*
X156681697Y-98605746D01*
X156683902Y-98602414D01*
X156687108Y-98601693D01*
X156699866Y-98604615D01*
G36*
X158071563Y-98644413D02*
X158070350Y-98688384D01*
X158026379Y-98689597D01*
X157982409Y-98690809D01*
X157984934Y-98675245D01*
X157992384Y-98653546D01*
X158006342Y-98633449D01*
X158024857Y-98616905D01*
X158045976Y-98605865D01*
X158057211Y-98602968D01*
X158072775Y-98600443D01*
X158071563Y-98644413D01*
X158071563Y-98644413D01*
G37*
X158071563Y-98644413D02*
X158070350Y-98688384D01*
X158026379Y-98689597D01*
X157982409Y-98690809D01*
X157984934Y-98675245D01*
X157992384Y-98653546D01*
X158006342Y-98633449D01*
X158024857Y-98616905D01*
X158045976Y-98605865D01*
X158057211Y-98602968D01*
X158072775Y-98600443D01*
X158071563Y-98644413D01*
G36*
X158105333Y-98604615D02*
X158121013Y-98612044D01*
X158136689Y-98622364D01*
X158147835Y-98632211D01*
X158155649Y-98642547D01*
X158162885Y-98655618D01*
X158168562Y-98669049D01*
X158171697Y-98680470D01*
X158171308Y-98687506D01*
X158170925Y-98687997D01*
X158165877Y-98689063D01*
X158154318Y-98689903D01*
X158138202Y-98690406D01*
X158126794Y-98690500D01*
X158085166Y-98690500D01*
X158085166Y-98646050D01*
X158085307Y-98626101D01*
X158085891Y-98613154D01*
X158087164Y-98605746D01*
X158089369Y-98602414D01*
X158092575Y-98601693D01*
X158105333Y-98604615D01*
X158105333Y-98604615D01*
G37*
X158105333Y-98604615D02*
X158121013Y-98612044D01*
X158136689Y-98622364D01*
X158147835Y-98632211D01*
X158155649Y-98642547D01*
X158162885Y-98655618D01*
X158168562Y-98669049D01*
X158171697Y-98680470D01*
X158171308Y-98687506D01*
X158170925Y-98687997D01*
X158165877Y-98689063D01*
X158154318Y-98689903D01*
X158138202Y-98690406D01*
X158126794Y-98690500D01*
X158085166Y-98690500D01*
X158085166Y-98646050D01*
X158085307Y-98626101D01*
X158085891Y-98613154D01*
X158087164Y-98605746D01*
X158089369Y-98602414D01*
X158092575Y-98601693D01*
X158105333Y-98604615D01*
G36*
X157847125Y-97497345D02*
X157877733Y-97531855D01*
X157877637Y-97983120D01*
X157877542Y-98434384D01*
X157847619Y-98467192D01*
X157817697Y-98500000D01*
X156930236Y-98500000D01*
X156900314Y-98467192D01*
X156870391Y-98434384D01*
X156870296Y-97983498D01*
X156870200Y-97532612D01*
X156927350Y-97462944D01*
X157371933Y-97462889D01*
X157816517Y-97462834D01*
X157847125Y-97497345D01*
X157847125Y-97497345D01*
G37*
X157847125Y-97497345D02*
X157877733Y-97531855D01*
X157877637Y-97983120D01*
X157877542Y-98434384D01*
X157847619Y-98467192D01*
X157817697Y-98500000D01*
X156930236Y-98500000D01*
X156900314Y-98467192D01*
X156870391Y-98434384D01*
X156870296Y-97983498D01*
X156870200Y-97532612D01*
X156927350Y-97462944D01*
X157371933Y-97462889D01*
X157816517Y-97462834D01*
X157847125Y-97497345D01*
G36*
X156667000Y-97310184D02*
X156666700Y-97328152D01*
X156665893Y-97342694D01*
X156664717Y-97351903D01*
X156663825Y-97354125D01*
X156658189Y-97354121D01*
X156647627Y-97351958D01*
X156642089Y-97350420D01*
X156621147Y-97340223D01*
X156602251Y-97323782D01*
X156587848Y-97303312D01*
X156586143Y-97299850D01*
X156580274Y-97286537D01*
X156577976Y-97277587D01*
X156580241Y-97272135D01*
X156588063Y-97269313D01*
X156602435Y-97268257D01*
X156622550Y-97268100D01*
X156667000Y-97268100D01*
X156667000Y-97310184D01*
X156667000Y-97310184D01*
G37*
X156667000Y-97310184D02*
X156666700Y-97328152D01*
X156665893Y-97342694D01*
X156664717Y-97351903D01*
X156663825Y-97354125D01*
X156658189Y-97354121D01*
X156647627Y-97351958D01*
X156642089Y-97350420D01*
X156621147Y-97340223D01*
X156602251Y-97323782D01*
X156587848Y-97303312D01*
X156586143Y-97299850D01*
X156580274Y-97286537D01*
X156577976Y-97277587D01*
X156580241Y-97272135D01*
X156588063Y-97269313D01*
X156602435Y-97268257D01*
X156622550Y-97268100D01*
X156667000Y-97268100D01*
X156667000Y-97310184D01*
G36*
X156766135Y-97279742D02*
X156757157Y-97302201D01*
X156741765Y-97323093D01*
X156721997Y-97340380D01*
X156699891Y-97352024D01*
X156691341Y-97354535D01*
X156679700Y-97357162D01*
X156679700Y-97268100D01*
X156768761Y-97268100D01*
X156766135Y-97279742D01*
X156766135Y-97279742D01*
G37*
X156766135Y-97279742D02*
X156757157Y-97302201D01*
X156741765Y-97323093D01*
X156721997Y-97340380D01*
X156699891Y-97352024D01*
X156691341Y-97354535D01*
X156679700Y-97357162D01*
X156679700Y-97268100D01*
X156768761Y-97268100D01*
X156766135Y-97279742D01*
G36*
X158072466Y-97310184D02*
X158072167Y-97328152D01*
X158071360Y-97342694D01*
X158070183Y-97351903D01*
X158069291Y-97354125D01*
X158063656Y-97354121D01*
X158053094Y-97351958D01*
X158047555Y-97350420D01*
X158026614Y-97340223D01*
X158007717Y-97323782D01*
X157993315Y-97303312D01*
X157991609Y-97299850D01*
X157985740Y-97286537D01*
X157983442Y-97277587D01*
X157985708Y-97272135D01*
X157993530Y-97269313D01*
X158007902Y-97268257D01*
X158028016Y-97268100D01*
X158072466Y-97268100D01*
X158072466Y-97310184D01*
X158072466Y-97310184D01*
G37*
X158072466Y-97310184D02*
X158072167Y-97328152D01*
X158071360Y-97342694D01*
X158070183Y-97351903D01*
X158069291Y-97354125D01*
X158063656Y-97354121D01*
X158053094Y-97351958D01*
X158047555Y-97350420D01*
X158026614Y-97340223D01*
X158007717Y-97323782D01*
X157993315Y-97303312D01*
X157991609Y-97299850D01*
X157985740Y-97286537D01*
X157983442Y-97277587D01*
X157985708Y-97272135D01*
X157993530Y-97269313D01*
X158007902Y-97268257D01*
X158028016Y-97268100D01*
X158072466Y-97268100D01*
X158072466Y-97310184D01*
G36*
X158171601Y-97279742D02*
X158162624Y-97302201D01*
X158147232Y-97323093D01*
X158127463Y-97340380D01*
X158105357Y-97352024D01*
X158096808Y-97354535D01*
X158085166Y-97357162D01*
X158085166Y-97268100D01*
X158174228Y-97268100D01*
X158171601Y-97279742D01*
X158171601Y-97279742D01*
G37*
X158171601Y-97279742D02*
X158162624Y-97302201D01*
X158147232Y-97323093D01*
X158127463Y-97340380D01*
X158105357Y-97352024D01*
X158096808Y-97354535D01*
X158085166Y-97357162D01*
X158085166Y-97268100D01*
X158174228Y-97268100D01*
X158171601Y-97279742D01*
G36*
X156666096Y-97209313D02*
X156664883Y-97253284D01*
X156620913Y-97254497D01*
X156576942Y-97255709D01*
X156579468Y-97240145D01*
X156586918Y-97218446D01*
X156600876Y-97198349D01*
X156619390Y-97181805D01*
X156640509Y-97170765D01*
X156651744Y-97167868D01*
X156667309Y-97165343D01*
X156666096Y-97209313D01*
X156666096Y-97209313D01*
G37*
X156666096Y-97209313D02*
X156664883Y-97253284D01*
X156620913Y-97254497D01*
X156576942Y-97255709D01*
X156579468Y-97240145D01*
X156586918Y-97218446D01*
X156600876Y-97198349D01*
X156619390Y-97181805D01*
X156640509Y-97170765D01*
X156651744Y-97167868D01*
X156667309Y-97165343D01*
X156666096Y-97209313D01*
G36*
X156699866Y-97169515D02*
X156715546Y-97176944D01*
X156731223Y-97187264D01*
X156742368Y-97197111D01*
X156750182Y-97207447D01*
X156757419Y-97220518D01*
X156763095Y-97233949D01*
X156766230Y-97245370D01*
X156765841Y-97252406D01*
X156765459Y-97252897D01*
X156760410Y-97253963D01*
X156748851Y-97254803D01*
X156732735Y-97255306D01*
X156721328Y-97255400D01*
X156679700Y-97255400D01*
X156679700Y-97210950D01*
X156679840Y-97191001D01*
X156680425Y-97178054D01*
X156681697Y-97170646D01*
X156683902Y-97167314D01*
X156687108Y-97166593D01*
X156699866Y-97169515D01*
X156699866Y-97169515D01*
G37*
X156699866Y-97169515D02*
X156715546Y-97176944D01*
X156731223Y-97187264D01*
X156742368Y-97197111D01*
X156750182Y-97207447D01*
X156757419Y-97220518D01*
X156763095Y-97233949D01*
X156766230Y-97245370D01*
X156765841Y-97252406D01*
X156765459Y-97252897D01*
X156760410Y-97253963D01*
X156748851Y-97254803D01*
X156732735Y-97255306D01*
X156721328Y-97255400D01*
X156679700Y-97255400D01*
X156679700Y-97210950D01*
X156679840Y-97191001D01*
X156680425Y-97178054D01*
X156681697Y-97170646D01*
X156683902Y-97167314D01*
X156687108Y-97166593D01*
X156699866Y-97169515D01*
G36*
X158071563Y-97209313D02*
X158070350Y-97253284D01*
X158026379Y-97254497D01*
X157982409Y-97255709D01*
X157984934Y-97240145D01*
X157992384Y-97218446D01*
X158006342Y-97198349D01*
X158024857Y-97181805D01*
X158045976Y-97170765D01*
X158057211Y-97167868D01*
X158072775Y-97165343D01*
X158071563Y-97209313D01*
X158071563Y-97209313D01*
G37*
X158071563Y-97209313D02*
X158070350Y-97253284D01*
X158026379Y-97254497D01*
X157982409Y-97255709D01*
X157984934Y-97240145D01*
X157992384Y-97218446D01*
X158006342Y-97198349D01*
X158024857Y-97181805D01*
X158045976Y-97170765D01*
X158057211Y-97167868D01*
X158072775Y-97165343D01*
X158071563Y-97209313D01*
G36*
X158105333Y-97169515D02*
X158121013Y-97176944D01*
X158136689Y-97187264D01*
X158147835Y-97197111D01*
X158155649Y-97207447D01*
X158162885Y-97220518D01*
X158168562Y-97233949D01*
X158171697Y-97245370D01*
X158171308Y-97252406D01*
X158170925Y-97252897D01*
X158165877Y-97253963D01*
X158154318Y-97254803D01*
X158138202Y-97255306D01*
X158126794Y-97255400D01*
X158085166Y-97255400D01*
X158085166Y-97210950D01*
X158085307Y-97191001D01*
X158085891Y-97178054D01*
X158087164Y-97170646D01*
X158089369Y-97167314D01*
X158092575Y-97166593D01*
X158105333Y-97169515D01*
X158105333Y-97169515D01*
G37*
X158105333Y-97169515D02*
X158121013Y-97176944D01*
X158136689Y-97187264D01*
X158147835Y-97197111D01*
X158155649Y-97207447D01*
X158162885Y-97220518D01*
X158168562Y-97233949D01*
X158171697Y-97245370D01*
X158171308Y-97252406D01*
X158170925Y-97252897D01*
X158165877Y-97253963D01*
X158154318Y-97254803D01*
X158138202Y-97255306D01*
X158126794Y-97255400D01*
X158085166Y-97255400D01*
X158085166Y-97210950D01*
X158085307Y-97191001D01*
X158085891Y-97178054D01*
X158087164Y-97170646D01*
X158089369Y-97167314D01*
X158092575Y-97166593D01*
X158105333Y-97169515D01*
G36*
X149902133Y-98741051D02*
X149901834Y-98758995D01*
X149901028Y-98773487D01*
X149899852Y-98782635D01*
X149898958Y-98784816D01*
X149893126Y-98784969D01*
X149882763Y-98783207D01*
X149880282Y-98782617D01*
X149863382Y-98775157D01*
X149845991Y-98762252D01*
X149830837Y-98746286D01*
X149821218Y-98730953D01*
X149815411Y-98717521D01*
X149813130Y-98708499D01*
X149815375Y-98703010D01*
X149823147Y-98700177D01*
X149837447Y-98699122D01*
X149857683Y-98698967D01*
X149902133Y-98698967D01*
X149902133Y-98741051D01*
X149902133Y-98741051D01*
G37*
X149902133Y-98741051D02*
X149901834Y-98758995D01*
X149901028Y-98773487D01*
X149899852Y-98782635D01*
X149898958Y-98784816D01*
X149893126Y-98784969D01*
X149882763Y-98783207D01*
X149880282Y-98782617D01*
X149863382Y-98775157D01*
X149845991Y-98762252D01*
X149830837Y-98746286D01*
X149821218Y-98730953D01*
X149815411Y-98717521D01*
X149813130Y-98708499D01*
X149815375Y-98703010D01*
X149823147Y-98700177D01*
X149837447Y-98699122D01*
X149857683Y-98698967D01*
X149902133Y-98698967D01*
X149902133Y-98741051D01*
G36*
X149979401Y-98699027D02*
X149992175Y-98699421D01*
X149999299Y-98700469D01*
X150002184Y-98702490D01*
X150002236Y-98705805D01*
X150001510Y-98708492D01*
X149993249Y-98729847D01*
X149982230Y-98748940D01*
X149970141Y-98762935D01*
X149968084Y-98764616D01*
X149958281Y-98770768D01*
X149945092Y-98777473D01*
X149931499Y-98783390D01*
X149920486Y-98787176D01*
X149916418Y-98787867D01*
X149915767Y-98783925D01*
X149915246Y-98773266D01*
X149914917Y-98757639D01*
X149914833Y-98743417D01*
X149914833Y-98698967D01*
X149959568Y-98698967D01*
X149979401Y-98699027D01*
X149979401Y-98699027D01*
G37*
X149979401Y-98699027D02*
X149992175Y-98699421D01*
X149999299Y-98700469D01*
X150002184Y-98702490D01*
X150002236Y-98705805D01*
X150001510Y-98708492D01*
X149993249Y-98729847D01*
X149982230Y-98748940D01*
X149970141Y-98762935D01*
X149968084Y-98764616D01*
X149958281Y-98770768D01*
X149945092Y-98777473D01*
X149931499Y-98783390D01*
X149920486Y-98787176D01*
X149916418Y-98787867D01*
X149915767Y-98783925D01*
X149915246Y-98773266D01*
X149914917Y-98757639D01*
X149914833Y-98743417D01*
X149914833Y-98698967D01*
X149959568Y-98698967D01*
X149979401Y-98699027D01*
G36*
X151320300Y-98741051D02*
X151320001Y-98758995D01*
X151319194Y-98773487D01*
X151318018Y-98782635D01*
X151317125Y-98784816D01*
X151311293Y-98784969D01*
X151300929Y-98783207D01*
X151298449Y-98782617D01*
X151281549Y-98775157D01*
X151264158Y-98762252D01*
X151249003Y-98746286D01*
X151239384Y-98730953D01*
X151233578Y-98717521D01*
X151231297Y-98708499D01*
X151233542Y-98703010D01*
X151241314Y-98700177D01*
X151255613Y-98699122D01*
X151275850Y-98698967D01*
X151320300Y-98698967D01*
X151320300Y-98741051D01*
X151320300Y-98741051D01*
G37*
X151320300Y-98741051D02*
X151320001Y-98758995D01*
X151319194Y-98773487D01*
X151318018Y-98782635D01*
X151317125Y-98784816D01*
X151311293Y-98784969D01*
X151300929Y-98783207D01*
X151298449Y-98782617D01*
X151281549Y-98775157D01*
X151264158Y-98762252D01*
X151249003Y-98746286D01*
X151239384Y-98730953D01*
X151233578Y-98717521D01*
X151231297Y-98708499D01*
X151233542Y-98703010D01*
X151241314Y-98700177D01*
X151255613Y-98699122D01*
X151275850Y-98698967D01*
X151320300Y-98698967D01*
X151320300Y-98741051D01*
G36*
X151397567Y-98699027D02*
X151410341Y-98699421D01*
X151417466Y-98700469D01*
X151420350Y-98702490D01*
X151420402Y-98705805D01*
X151419677Y-98708492D01*
X151411416Y-98729847D01*
X151400397Y-98748940D01*
X151388308Y-98762935D01*
X151386251Y-98764616D01*
X151376448Y-98770768D01*
X151363259Y-98777473D01*
X151349666Y-98783390D01*
X151338653Y-98787176D01*
X151334584Y-98787867D01*
X151333934Y-98783925D01*
X151333413Y-98773266D01*
X151333083Y-98757639D01*
X151333000Y-98743417D01*
X151333000Y-98698967D01*
X151377735Y-98698967D01*
X151397567Y-98699027D01*
X151397567Y-98699027D01*
G37*
X151397567Y-98699027D02*
X151410341Y-98699421D01*
X151417466Y-98700469D01*
X151420350Y-98702490D01*
X151420402Y-98705805D01*
X151419677Y-98708492D01*
X151411416Y-98729847D01*
X151400397Y-98748940D01*
X151388308Y-98762935D01*
X151386251Y-98764616D01*
X151376448Y-98770768D01*
X151363259Y-98777473D01*
X151349666Y-98783390D01*
X151338653Y-98787176D01*
X151334584Y-98787867D01*
X151333934Y-98783925D01*
X151333413Y-98773266D01*
X151333083Y-98757639D01*
X151333000Y-98743417D01*
X151333000Y-98698967D01*
X151377735Y-98698967D01*
X151397567Y-98699027D01*
G36*
X149901229Y-98640180D02*
X149900016Y-98684150D01*
X149856046Y-98685363D01*
X149812075Y-98686576D01*
X149814601Y-98671012D01*
X149822051Y-98649313D01*
X149836009Y-98629216D01*
X149854523Y-98612671D01*
X149875642Y-98601632D01*
X149886878Y-98598735D01*
X149902442Y-98596209D01*
X149901229Y-98640180D01*
X149901229Y-98640180D01*
G37*
X149901229Y-98640180D02*
X149900016Y-98684150D01*
X149856046Y-98685363D01*
X149812075Y-98686576D01*
X149814601Y-98671012D01*
X149822051Y-98649313D01*
X149836009Y-98629216D01*
X149854523Y-98612671D01*
X149875642Y-98601632D01*
X149886878Y-98598735D01*
X149902442Y-98596209D01*
X149901229Y-98640180D01*
G36*
X149936294Y-98600682D02*
X149952760Y-98608962D01*
X149968859Y-98620668D01*
X149979171Y-98630887D01*
X149987751Y-98642943D01*
X149994979Y-98656664D01*
X149999929Y-98669729D01*
X150001670Y-98679819D01*
X150000409Y-98683947D01*
X149995443Y-98684934D01*
X149983954Y-98685712D01*
X149967888Y-98686179D01*
X149956461Y-98686267D01*
X149914833Y-98686267D01*
X149914833Y-98641817D01*
X149914974Y-98621868D01*
X149915558Y-98608921D01*
X149916831Y-98601513D01*
X149919036Y-98598181D01*
X149922241Y-98597460D01*
X149936294Y-98600682D01*
X149936294Y-98600682D01*
G37*
X149936294Y-98600682D02*
X149952760Y-98608962D01*
X149968859Y-98620668D01*
X149979171Y-98630887D01*
X149987751Y-98642943D01*
X149994979Y-98656664D01*
X149999929Y-98669729D01*
X150001670Y-98679819D01*
X150000409Y-98683947D01*
X149995443Y-98684934D01*
X149983954Y-98685712D01*
X149967888Y-98686179D01*
X149956461Y-98686267D01*
X149914833Y-98686267D01*
X149914833Y-98641817D01*
X149914974Y-98621868D01*
X149915558Y-98608921D01*
X149916831Y-98601513D01*
X149919036Y-98598181D01*
X149922241Y-98597460D01*
X149936294Y-98600682D01*
G36*
X151319396Y-98640180D02*
X151318183Y-98684150D01*
X151274213Y-98685363D01*
X151230242Y-98686576D01*
X151232768Y-98671012D01*
X151239675Y-98650653D01*
X151252680Y-98630815D01*
X151269765Y-98614441D01*
X151273176Y-98612050D01*
X151287080Y-98604626D01*
X151301556Y-98599470D01*
X151305044Y-98598735D01*
X151320609Y-98596209D01*
X151319396Y-98640180D01*
X151319396Y-98640180D01*
G37*
X151319396Y-98640180D02*
X151318183Y-98684150D01*
X151274213Y-98685363D01*
X151230242Y-98686576D01*
X151232768Y-98671012D01*
X151239675Y-98650653D01*
X151252680Y-98630815D01*
X151269765Y-98614441D01*
X151273176Y-98612050D01*
X151287080Y-98604626D01*
X151301556Y-98599470D01*
X151305044Y-98598735D01*
X151320609Y-98596209D01*
X151319396Y-98640180D01*
G36*
X151354461Y-98600682D02*
X151370926Y-98608962D01*
X151387026Y-98620668D01*
X151397337Y-98630887D01*
X151405917Y-98642943D01*
X151413146Y-98656664D01*
X151418095Y-98669729D01*
X151419837Y-98679819D01*
X151418576Y-98683947D01*
X151413609Y-98684934D01*
X151402121Y-98685712D01*
X151386054Y-98686179D01*
X151374628Y-98686267D01*
X151333000Y-98686267D01*
X151333000Y-98641817D01*
X151333140Y-98621868D01*
X151333725Y-98608921D01*
X151334997Y-98601513D01*
X151337202Y-98598181D01*
X151340408Y-98597460D01*
X151354461Y-98600682D01*
X151354461Y-98600682D01*
G37*
X151354461Y-98600682D02*
X151370926Y-98608962D01*
X151387026Y-98620668D01*
X151397337Y-98630887D01*
X151405917Y-98642943D01*
X151413146Y-98656664D01*
X151418095Y-98669729D01*
X151419837Y-98679819D01*
X151418576Y-98683947D01*
X151413609Y-98684934D01*
X151402121Y-98685712D01*
X151386054Y-98686179D01*
X151374628Y-98686267D01*
X151333000Y-98686267D01*
X151333000Y-98641817D01*
X151333140Y-98621868D01*
X151333725Y-98608921D01*
X151334997Y-98601513D01*
X151337202Y-98598181D01*
X151340408Y-98597460D01*
X151354461Y-98600682D01*
G36*
X150713195Y-97488905D02*
X150769236Y-97519209D01*
X150914964Y-97665646D01*
X151060691Y-97812084D01*
X151088896Y-97873698D01*
X151117100Y-97935312D01*
X151116908Y-98430150D01*
X151086986Y-98462959D01*
X151057064Y-98495767D01*
X150170950Y-98495017D01*
X150140258Y-98462116D01*
X150109566Y-98429216D01*
X150109572Y-97976716D01*
X150109578Y-97524217D01*
X150166716Y-97458637D01*
X150411935Y-97458619D01*
X150657154Y-97458600D01*
X150713195Y-97488905D01*
X150713195Y-97488905D01*
G37*
X150713195Y-97488905D02*
X150769236Y-97519209D01*
X150914964Y-97665646D01*
X151060691Y-97812084D01*
X151088896Y-97873698D01*
X151117100Y-97935312D01*
X151116908Y-98430150D01*
X151086986Y-98462959D01*
X151057064Y-98495767D01*
X150170950Y-98495017D01*
X150140258Y-98462116D01*
X150109566Y-98429216D01*
X150109572Y-97976716D01*
X150109578Y-97524217D01*
X150166716Y-97458637D01*
X150411935Y-97458619D01*
X150657154Y-97458600D01*
X150713195Y-97488905D01*
G36*
X151320300Y-97822417D02*
X151320001Y-97840361D01*
X151319194Y-97854854D01*
X151318018Y-97864002D01*
X151317125Y-97866182D01*
X151311293Y-97866335D01*
X151300929Y-97864573D01*
X151298449Y-97863983D01*
X151281549Y-97856524D01*
X151264158Y-97843618D01*
X151249003Y-97827653D01*
X151239384Y-97812320D01*
X151233578Y-97798887D01*
X151231297Y-97789865D01*
X151233542Y-97784377D01*
X151241314Y-97781543D01*
X151255613Y-97780489D01*
X151275850Y-97780334D01*
X151320300Y-97780334D01*
X151320300Y-97822417D01*
X151320300Y-97822417D01*
G37*
X151320300Y-97822417D02*
X151320001Y-97840361D01*
X151319194Y-97854854D01*
X151318018Y-97864002D01*
X151317125Y-97866182D01*
X151311293Y-97866335D01*
X151300929Y-97864573D01*
X151298449Y-97863983D01*
X151281549Y-97856524D01*
X151264158Y-97843618D01*
X151249003Y-97827653D01*
X151239384Y-97812320D01*
X151233578Y-97798887D01*
X151231297Y-97789865D01*
X151233542Y-97784377D01*
X151241314Y-97781543D01*
X151255613Y-97780489D01*
X151275850Y-97780334D01*
X151320300Y-97780334D01*
X151320300Y-97822417D01*
G36*
X151397567Y-97780394D02*
X151410341Y-97780788D01*
X151417466Y-97781836D01*
X151420350Y-97783857D01*
X151420402Y-97787171D01*
X151419677Y-97789859D01*
X151411416Y-97811214D01*
X151400397Y-97830306D01*
X151388308Y-97844301D01*
X151386251Y-97845983D01*
X151376448Y-97852134D01*
X151363259Y-97858840D01*
X151349666Y-97864757D01*
X151338653Y-97868543D01*
X151334584Y-97869234D01*
X151333934Y-97865292D01*
X151333413Y-97854633D01*
X151333083Y-97839005D01*
X151333000Y-97824784D01*
X151333000Y-97780334D01*
X151377735Y-97780334D01*
X151397567Y-97780394D01*
X151397567Y-97780394D01*
G37*
X151397567Y-97780394D02*
X151410341Y-97780788D01*
X151417466Y-97781836D01*
X151420350Y-97783857D01*
X151420402Y-97787171D01*
X151419677Y-97789859D01*
X151411416Y-97811214D01*
X151400397Y-97830306D01*
X151388308Y-97844301D01*
X151386251Y-97845983D01*
X151376448Y-97852134D01*
X151363259Y-97858840D01*
X151349666Y-97864757D01*
X151338653Y-97868543D01*
X151334584Y-97869234D01*
X151333934Y-97865292D01*
X151333413Y-97854633D01*
X151333083Y-97839005D01*
X151333000Y-97824784D01*
X151333000Y-97780334D01*
X151377735Y-97780334D01*
X151397567Y-97780394D01*
G36*
X151319396Y-97721547D02*
X151318183Y-97765517D01*
X151274213Y-97766730D01*
X151230242Y-97767943D01*
X151232768Y-97752378D01*
X151240218Y-97730680D01*
X151254176Y-97710582D01*
X151272690Y-97694038D01*
X151293809Y-97682998D01*
X151305044Y-97680102D01*
X151320609Y-97677576D01*
X151319396Y-97721547D01*
X151319396Y-97721547D01*
G37*
X151319396Y-97721547D02*
X151318183Y-97765517D01*
X151274213Y-97766730D01*
X151230242Y-97767943D01*
X151232768Y-97752378D01*
X151240218Y-97730680D01*
X151254176Y-97710582D01*
X151272690Y-97694038D01*
X151293809Y-97682998D01*
X151305044Y-97680102D01*
X151320609Y-97677576D01*
X151319396Y-97721547D01*
G36*
X151354461Y-97682049D02*
X151370926Y-97690329D01*
X151387026Y-97702035D01*
X151397337Y-97712253D01*
X151405917Y-97724310D01*
X151413146Y-97738031D01*
X151418095Y-97751096D01*
X151419837Y-97761186D01*
X151418576Y-97765313D01*
X151413609Y-97766301D01*
X151402121Y-97767079D01*
X151386054Y-97767546D01*
X151374628Y-97767634D01*
X151333000Y-97767634D01*
X151333000Y-97723184D01*
X151333140Y-97703235D01*
X151333725Y-97690287D01*
X151334997Y-97682879D01*
X151337202Y-97679548D01*
X151340408Y-97678827D01*
X151354461Y-97682049D01*
X151354461Y-97682049D01*
G37*
X151354461Y-97682049D02*
X151370926Y-97690329D01*
X151387026Y-97702035D01*
X151397337Y-97712253D01*
X151405917Y-97724310D01*
X151413146Y-97738031D01*
X151418095Y-97751096D01*
X151419837Y-97761186D01*
X151418576Y-97765313D01*
X151413609Y-97766301D01*
X151402121Y-97767079D01*
X151386054Y-97767546D01*
X151374628Y-97767634D01*
X151333000Y-97767634D01*
X151333000Y-97723184D01*
X151333140Y-97703235D01*
X151333725Y-97690287D01*
X151334997Y-97682879D01*
X151337202Y-97679548D01*
X151340408Y-97678827D01*
X151354461Y-97682049D01*
G36*
X149902133Y-97305951D02*
X149901834Y-97323895D01*
X149901028Y-97338387D01*
X149899852Y-97347535D01*
X149898958Y-97349716D01*
X149893126Y-97349869D01*
X149882763Y-97348107D01*
X149880282Y-97347517D01*
X149863382Y-97340057D01*
X149845991Y-97327152D01*
X149830837Y-97311186D01*
X149821218Y-97295853D01*
X149815411Y-97282421D01*
X149813130Y-97273399D01*
X149815375Y-97267910D01*
X149823147Y-97265077D01*
X149837447Y-97264022D01*
X149857683Y-97263867D01*
X149902133Y-97263867D01*
X149902133Y-97305951D01*
X149902133Y-97305951D01*
G37*
X149902133Y-97305951D02*
X149901834Y-97323895D01*
X149901028Y-97338387D01*
X149899852Y-97347535D01*
X149898958Y-97349716D01*
X149893126Y-97349869D01*
X149882763Y-97348107D01*
X149880282Y-97347517D01*
X149863382Y-97340057D01*
X149845991Y-97327152D01*
X149830837Y-97311186D01*
X149821218Y-97295853D01*
X149815411Y-97282421D01*
X149813130Y-97273399D01*
X149815375Y-97267910D01*
X149823147Y-97265077D01*
X149837447Y-97264022D01*
X149857683Y-97263867D01*
X149902133Y-97263867D01*
X149902133Y-97305951D01*
G36*
X149979401Y-97263927D02*
X149992175Y-97264321D01*
X149999299Y-97265369D01*
X150002184Y-97267390D01*
X150002236Y-97270705D01*
X150001510Y-97273392D01*
X149993249Y-97294747D01*
X149982230Y-97313840D01*
X149970141Y-97327835D01*
X149968084Y-97329516D01*
X149958281Y-97335668D01*
X149945092Y-97342373D01*
X149931499Y-97348290D01*
X149920486Y-97352076D01*
X149916418Y-97352767D01*
X149915767Y-97348825D01*
X149915246Y-97338166D01*
X149914917Y-97322539D01*
X149914833Y-97308317D01*
X149914833Y-97263867D01*
X149959568Y-97263867D01*
X149979401Y-97263927D01*
X149979401Y-97263927D01*
G37*
X149979401Y-97263927D02*
X149992175Y-97264321D01*
X149999299Y-97265369D01*
X150002184Y-97267390D01*
X150002236Y-97270705D01*
X150001510Y-97273392D01*
X149993249Y-97294747D01*
X149982230Y-97313840D01*
X149970141Y-97327835D01*
X149968084Y-97329516D01*
X149958281Y-97335668D01*
X149945092Y-97342373D01*
X149931499Y-97348290D01*
X149920486Y-97352076D01*
X149916418Y-97352767D01*
X149915767Y-97348825D01*
X149915246Y-97338166D01*
X149914917Y-97322539D01*
X149914833Y-97308317D01*
X149914833Y-97263867D01*
X149959568Y-97263867D01*
X149979401Y-97263927D01*
G36*
X150795366Y-97305951D02*
X150795067Y-97323895D01*
X150794261Y-97338387D01*
X150793085Y-97347535D01*
X150792191Y-97349716D01*
X150786360Y-97349869D01*
X150775996Y-97348107D01*
X150773516Y-97347517D01*
X150756615Y-97340057D01*
X150739224Y-97327152D01*
X150724070Y-97311186D01*
X150714451Y-97295853D01*
X150708644Y-97282421D01*
X150706363Y-97273399D01*
X150708609Y-97267910D01*
X150716381Y-97265077D01*
X150730680Y-97264022D01*
X150750916Y-97263867D01*
X150795366Y-97263867D01*
X150795366Y-97305951D01*
X150795366Y-97305951D01*
G37*
X150795366Y-97305951D02*
X150795067Y-97323895D01*
X150794261Y-97338387D01*
X150793085Y-97347535D01*
X150792191Y-97349716D01*
X150786360Y-97349869D01*
X150775996Y-97348107D01*
X150773516Y-97347517D01*
X150756615Y-97340057D01*
X150739224Y-97327152D01*
X150724070Y-97311186D01*
X150714451Y-97295853D01*
X150708644Y-97282421D01*
X150706363Y-97273399D01*
X150708609Y-97267910D01*
X150716381Y-97265077D01*
X150730680Y-97264022D01*
X150750916Y-97263867D01*
X150795366Y-97263867D01*
X150795366Y-97305951D01*
G36*
X150872634Y-97263927D02*
X150885408Y-97264321D01*
X150892533Y-97265369D01*
X150895417Y-97267390D01*
X150895469Y-97270705D01*
X150894743Y-97273392D01*
X150886483Y-97294747D01*
X150875464Y-97313840D01*
X150863374Y-97327835D01*
X150861317Y-97329516D01*
X150851514Y-97335668D01*
X150838325Y-97342373D01*
X150824733Y-97348290D01*
X150813720Y-97352076D01*
X150809651Y-97352767D01*
X150809000Y-97348825D01*
X150808479Y-97338166D01*
X150808150Y-97322539D01*
X150808066Y-97308317D01*
X150808066Y-97263867D01*
X150852802Y-97263867D01*
X150872634Y-97263927D01*
X150872634Y-97263927D01*
G37*
X150872634Y-97263927D02*
X150885408Y-97264321D01*
X150892533Y-97265369D01*
X150895417Y-97267390D01*
X150895469Y-97270705D01*
X150894743Y-97273392D01*
X150886483Y-97294747D01*
X150875464Y-97313840D01*
X150863374Y-97327835D01*
X150861317Y-97329516D01*
X150851514Y-97335668D01*
X150838325Y-97342373D01*
X150824733Y-97348290D01*
X150813720Y-97352076D01*
X150809651Y-97352767D01*
X150809000Y-97348825D01*
X150808479Y-97338166D01*
X150808150Y-97322539D01*
X150808066Y-97308317D01*
X150808066Y-97263867D01*
X150852802Y-97263867D01*
X150872634Y-97263927D01*
G36*
X149901229Y-97205080D02*
X149900016Y-97249050D01*
X149856046Y-97250263D01*
X149812075Y-97251476D01*
X149814601Y-97235912D01*
X149818670Y-97222308D01*
X149825680Y-97207666D01*
X149827916Y-97204043D01*
X149843337Y-97186429D01*
X149862761Y-97172527D01*
X149883244Y-97164352D01*
X149886878Y-97163635D01*
X149902442Y-97161109D01*
X149901229Y-97205080D01*
X149901229Y-97205080D01*
G37*
X149901229Y-97205080D02*
X149900016Y-97249050D01*
X149856046Y-97250263D01*
X149812075Y-97251476D01*
X149814601Y-97235912D01*
X149818670Y-97222308D01*
X149825680Y-97207666D01*
X149827916Y-97204043D01*
X149843337Y-97186429D01*
X149862761Y-97172527D01*
X149883244Y-97164352D01*
X149886878Y-97163635D01*
X149902442Y-97161109D01*
X149901229Y-97205080D01*
G36*
X149936294Y-97165582D02*
X149952760Y-97173862D01*
X149968859Y-97185568D01*
X149979171Y-97195787D01*
X149987751Y-97207843D01*
X149994979Y-97221564D01*
X149999929Y-97234629D01*
X150001670Y-97244719D01*
X150000409Y-97248847D01*
X149995443Y-97249834D01*
X149983954Y-97250612D01*
X149967888Y-97251079D01*
X149956461Y-97251167D01*
X149914833Y-97251167D01*
X149914833Y-97206717D01*
X149914974Y-97186768D01*
X149915558Y-97173821D01*
X149916831Y-97166413D01*
X149919036Y-97163081D01*
X149922241Y-97162360D01*
X149936294Y-97165582D01*
X149936294Y-97165582D01*
G37*
X149936294Y-97165582D02*
X149952760Y-97173862D01*
X149968859Y-97185568D01*
X149979171Y-97195787D01*
X149987751Y-97207843D01*
X149994979Y-97221564D01*
X149999929Y-97234629D01*
X150001670Y-97244719D01*
X150000409Y-97248847D01*
X149995443Y-97249834D01*
X149983954Y-97250612D01*
X149967888Y-97251079D01*
X149956461Y-97251167D01*
X149914833Y-97251167D01*
X149914833Y-97206717D01*
X149914974Y-97186768D01*
X149915558Y-97173821D01*
X149916831Y-97166413D01*
X149919036Y-97163081D01*
X149922241Y-97162360D01*
X149936294Y-97165582D01*
G36*
X150794463Y-97205080D02*
X150793250Y-97249050D01*
X150749279Y-97250263D01*
X150705309Y-97251476D01*
X150707834Y-97235912D01*
X150715284Y-97214213D01*
X150729242Y-97194116D01*
X150747757Y-97177571D01*
X150768876Y-97166532D01*
X150780111Y-97163635D01*
X150795675Y-97161109D01*
X150794463Y-97205080D01*
X150794463Y-97205080D01*
G37*
X150794463Y-97205080D02*
X150793250Y-97249050D01*
X150749279Y-97250263D01*
X150705309Y-97251476D01*
X150707834Y-97235912D01*
X150715284Y-97214213D01*
X150729242Y-97194116D01*
X150747757Y-97177571D01*
X150768876Y-97166532D01*
X150780111Y-97163635D01*
X150795675Y-97161109D01*
X150794463Y-97205080D01*
G36*
X150829527Y-97165582D02*
X150845993Y-97173862D01*
X150862093Y-97185568D01*
X150872404Y-97195787D01*
X150880984Y-97207843D01*
X150888213Y-97221564D01*
X150893162Y-97234629D01*
X150894903Y-97244719D01*
X150893642Y-97248847D01*
X150888676Y-97249834D01*
X150877188Y-97250612D01*
X150861121Y-97251079D01*
X150849694Y-97251167D01*
X150808066Y-97251167D01*
X150808066Y-97206717D01*
X150808207Y-97186768D01*
X150808791Y-97173821D01*
X150810064Y-97166413D01*
X150812269Y-97163081D01*
X150815475Y-97162360D01*
X150829527Y-97165582D01*
X150829527Y-97165582D01*
G37*
X150829527Y-97165582D02*
X150845993Y-97173862D01*
X150862093Y-97185568D01*
X150872404Y-97195787D01*
X150880984Y-97207843D01*
X150888213Y-97221564D01*
X150893162Y-97234629D01*
X150894903Y-97244719D01*
X150893642Y-97248847D01*
X150888676Y-97249834D01*
X150877188Y-97250612D01*
X150861121Y-97251079D01*
X150849694Y-97251167D01*
X150808066Y-97251167D01*
X150808066Y-97206717D01*
X150808207Y-97186768D01*
X150808791Y-97173821D01*
X150810064Y-97166413D01*
X150812269Y-97163081D01*
X150815475Y-97162360D01*
X150829527Y-97165582D01*
G36*
X152175433Y-98743417D02*
X152175204Y-98765122D01*
X152173851Y-98779206D01*
X152170373Y-98786514D01*
X152163771Y-98787891D01*
X152153045Y-98784182D01*
X152137196Y-98776233D01*
X152136831Y-98776042D01*
X152115376Y-98761131D01*
X152099075Y-98742210D01*
X152089371Y-98721094D01*
X152087991Y-98714775D01*
X152085425Y-98698967D01*
X152175433Y-98698967D01*
X152175433Y-98743417D01*
X152175433Y-98743417D01*
G37*
X152175433Y-98743417D02*
X152175204Y-98765122D01*
X152173851Y-98779206D01*
X152170373Y-98786514D01*
X152163771Y-98787891D01*
X152153045Y-98784182D01*
X152137196Y-98776233D01*
X152136831Y-98776042D01*
X152115376Y-98761131D01*
X152099075Y-98742210D01*
X152089371Y-98721094D01*
X152087991Y-98714775D01*
X152085425Y-98698967D01*
X152175433Y-98698967D01*
X152175433Y-98743417D01*
G36*
X152275049Y-98710609D02*
X152264215Y-98738365D01*
X152247071Y-98760520D01*
X152223867Y-98776829D01*
X152198530Y-98786176D01*
X152188133Y-98788785D01*
X152188133Y-98698967D01*
X152277951Y-98698967D01*
X152275049Y-98710609D01*
X152275049Y-98710609D01*
G37*
X152275049Y-98710609D02*
X152264215Y-98738365D01*
X152247071Y-98760520D01*
X152223867Y-98776829D01*
X152198530Y-98786176D01*
X152188133Y-98788785D01*
X152188133Y-98698967D01*
X152277951Y-98698967D01*
X152275049Y-98710609D01*
G36*
X153580900Y-98743417D02*
X153580671Y-98765122D01*
X153579317Y-98779206D01*
X153575839Y-98786514D01*
X153569237Y-98787891D01*
X153558512Y-98784182D01*
X153542662Y-98776233D01*
X153542297Y-98776042D01*
X153520843Y-98761131D01*
X153504541Y-98742210D01*
X153494838Y-98721094D01*
X153493457Y-98714775D01*
X153490892Y-98698967D01*
X153580900Y-98698967D01*
X153580900Y-98743417D01*
X153580900Y-98743417D01*
G37*
X153580900Y-98743417D02*
X153580671Y-98765122D01*
X153579317Y-98779206D01*
X153575839Y-98786514D01*
X153569237Y-98787891D01*
X153558512Y-98784182D01*
X153542662Y-98776233D01*
X153542297Y-98776042D01*
X153520843Y-98761131D01*
X153504541Y-98742210D01*
X153494838Y-98721094D01*
X153493457Y-98714775D01*
X153490892Y-98698967D01*
X153580900Y-98698967D01*
X153580900Y-98743417D01*
G36*
X153680516Y-98710609D02*
X153669681Y-98738365D01*
X153652538Y-98760520D01*
X153629334Y-98776829D01*
X153603996Y-98786176D01*
X153593600Y-98788785D01*
X153593600Y-98698967D01*
X153683418Y-98698967D01*
X153680516Y-98710609D01*
X153680516Y-98710609D01*
G37*
X153680516Y-98710609D02*
X153669681Y-98738365D01*
X153652538Y-98760520D01*
X153629334Y-98776829D01*
X153603996Y-98786176D01*
X153593600Y-98788785D01*
X153593600Y-98698967D01*
X153683418Y-98698967D01*
X153680516Y-98710609D01*
G36*
X152175433Y-98686267D02*
X152086533Y-98686267D01*
X152086533Y-98675474D01*
X152090299Y-98657827D01*
X152100392Y-98639636D01*
X152115006Y-98622704D01*
X152132335Y-98608838D01*
X152150572Y-98599843D01*
X152164681Y-98597367D01*
X152175433Y-98597367D01*
X152175433Y-98686267D01*
X152175433Y-98686267D01*
G37*
X152175433Y-98686267D02*
X152086533Y-98686267D01*
X152086533Y-98675474D01*
X152090299Y-98657827D01*
X152100392Y-98639636D01*
X152115006Y-98622704D01*
X152132335Y-98608838D01*
X152150572Y-98599843D01*
X152164681Y-98597367D01*
X152175433Y-98597367D01*
X152175433Y-98686267D01*
G36*
X152203543Y-98598760D02*
X152224851Y-98606190D01*
X152244557Y-98620305D01*
X152260931Y-98639322D01*
X152272246Y-98661460D01*
X152275398Y-98672799D01*
X152278091Y-98686267D01*
X152188133Y-98686267D01*
X152188133Y-98596259D01*
X152203543Y-98598760D01*
X152203543Y-98598760D01*
G37*
X152203543Y-98598760D02*
X152224851Y-98606190D01*
X152244557Y-98620305D01*
X152260931Y-98639322D01*
X152272246Y-98661460D01*
X152275398Y-98672799D01*
X152278091Y-98686267D01*
X152188133Y-98686267D01*
X152188133Y-98596259D01*
X152203543Y-98598760D01*
G36*
X153580900Y-98686267D02*
X153492000Y-98686267D01*
X153492000Y-98675474D01*
X153495766Y-98657827D01*
X153505859Y-98639636D01*
X153520473Y-98622704D01*
X153537802Y-98608838D01*
X153556038Y-98599843D01*
X153570148Y-98597367D01*
X153580900Y-98597367D01*
X153580900Y-98686267D01*
X153580900Y-98686267D01*
G37*
X153580900Y-98686267D02*
X153492000Y-98686267D01*
X153492000Y-98675474D01*
X153495766Y-98657827D01*
X153505859Y-98639636D01*
X153520473Y-98622704D01*
X153537802Y-98608838D01*
X153556038Y-98599843D01*
X153570148Y-98597367D01*
X153580900Y-98597367D01*
X153580900Y-98686267D01*
G36*
X153609010Y-98598760D02*
X153630318Y-98606190D01*
X153650023Y-98620305D01*
X153666398Y-98639322D01*
X153677713Y-98661460D01*
X153680865Y-98672799D01*
X153683558Y-98686267D01*
X153593600Y-98686267D01*
X153593600Y-98596259D01*
X153609010Y-98598760D01*
X153609010Y-98598760D01*
G37*
X153609010Y-98598760D02*
X153630318Y-98606190D01*
X153650023Y-98620305D01*
X153666398Y-98639322D01*
X153677713Y-98661460D01*
X153680865Y-98672799D01*
X153683558Y-98686267D01*
X153593600Y-98686267D01*
X153593600Y-98596259D01*
X153609010Y-98598760D01*
G36*
X153326131Y-97458601D02*
X153385975Y-97524217D01*
X153386071Y-97977984D01*
X153386166Y-98431751D01*
X153357916Y-98463759D01*
X153329665Y-98495767D01*
X152439633Y-98495767D01*
X152411250Y-98463287D01*
X152382866Y-98430807D01*
X152382866Y-97525458D01*
X152438630Y-97458600D01*
X152882381Y-97458600D01*
X153326131Y-97458601D01*
X153326131Y-97458601D01*
G37*
X153326131Y-97458601D02*
X153385975Y-97524217D01*
X153386071Y-97977984D01*
X153386166Y-98431751D01*
X153357916Y-98463759D01*
X153329665Y-98495767D01*
X152439633Y-98495767D01*
X152411250Y-98463287D01*
X152382866Y-98430807D01*
X152382866Y-97525458D01*
X152438630Y-97458600D01*
X152882381Y-97458600D01*
X153326131Y-97458601D01*
G36*
X152175433Y-97308317D02*
X152175204Y-97330022D01*
X152173851Y-97344106D01*
X152170373Y-97351414D01*
X152163771Y-97352791D01*
X152153045Y-97349082D01*
X152137196Y-97341133D01*
X152136831Y-97340942D01*
X152115376Y-97326031D01*
X152099075Y-97307110D01*
X152089371Y-97285994D01*
X152087991Y-97279675D01*
X152085425Y-97263867D01*
X152175433Y-97263867D01*
X152175433Y-97308317D01*
X152175433Y-97308317D01*
G37*
X152175433Y-97308317D02*
X152175204Y-97330022D01*
X152173851Y-97344106D01*
X152170373Y-97351414D01*
X152163771Y-97352791D01*
X152153045Y-97349082D01*
X152137196Y-97341133D01*
X152136831Y-97340942D01*
X152115376Y-97326031D01*
X152099075Y-97307110D01*
X152089371Y-97285994D01*
X152087991Y-97279675D01*
X152085425Y-97263867D01*
X152175433Y-97263867D01*
X152175433Y-97308317D01*
G36*
X152275049Y-97275509D02*
X152264215Y-97303265D01*
X152247071Y-97325420D01*
X152223867Y-97341729D01*
X152198530Y-97351076D01*
X152188133Y-97353685D01*
X152188133Y-97263867D01*
X152277951Y-97263867D01*
X152275049Y-97275509D01*
X152275049Y-97275509D01*
G37*
X152275049Y-97275509D02*
X152264215Y-97303265D01*
X152247071Y-97325420D01*
X152223867Y-97341729D01*
X152198530Y-97351076D01*
X152188133Y-97353685D01*
X152188133Y-97263867D01*
X152277951Y-97263867D01*
X152275049Y-97275509D01*
G36*
X153580900Y-97308317D02*
X153580671Y-97330022D01*
X153579317Y-97344106D01*
X153575839Y-97351414D01*
X153569237Y-97352791D01*
X153558512Y-97349082D01*
X153542662Y-97341133D01*
X153542297Y-97340942D01*
X153520843Y-97326031D01*
X153504541Y-97307110D01*
X153494838Y-97285994D01*
X153493457Y-97279675D01*
X153490892Y-97263867D01*
X153580900Y-97263867D01*
X153580900Y-97308317D01*
X153580900Y-97308317D01*
G37*
X153580900Y-97308317D02*
X153580671Y-97330022D01*
X153579317Y-97344106D01*
X153575839Y-97351414D01*
X153569237Y-97352791D01*
X153558512Y-97349082D01*
X153542662Y-97341133D01*
X153542297Y-97340942D01*
X153520843Y-97326031D01*
X153504541Y-97307110D01*
X153494838Y-97285994D01*
X153493457Y-97279675D01*
X153490892Y-97263867D01*
X153580900Y-97263867D01*
X153580900Y-97308317D01*
G36*
X153680516Y-97275509D02*
X153669681Y-97303265D01*
X153652538Y-97325420D01*
X153629334Y-97341729D01*
X153603996Y-97351076D01*
X153593600Y-97353685D01*
X153593600Y-97263867D01*
X153683418Y-97263867D01*
X153680516Y-97275509D01*
X153680516Y-97275509D01*
G37*
X153680516Y-97275509D02*
X153669681Y-97303265D01*
X153652538Y-97325420D01*
X153629334Y-97341729D01*
X153603996Y-97351076D01*
X153593600Y-97353685D01*
X153593600Y-97263867D01*
X153683418Y-97263867D01*
X153680516Y-97275509D01*
G36*
X152175433Y-97251167D02*
X152086533Y-97251167D01*
X152086533Y-97240374D01*
X152090299Y-97222727D01*
X152100392Y-97204536D01*
X152115006Y-97187604D01*
X152132335Y-97173738D01*
X152150572Y-97164743D01*
X152164681Y-97162267D01*
X152175433Y-97162267D01*
X152175433Y-97251167D01*
X152175433Y-97251167D01*
G37*
X152175433Y-97251167D02*
X152086533Y-97251167D01*
X152086533Y-97240374D01*
X152090299Y-97222727D01*
X152100392Y-97204536D01*
X152115006Y-97187604D01*
X152132335Y-97173738D01*
X152150572Y-97164743D01*
X152164681Y-97162267D01*
X152175433Y-97162267D01*
X152175433Y-97251167D01*
G36*
X152203543Y-97163660D02*
X152224851Y-97171090D01*
X152244557Y-97185205D01*
X152260931Y-97204222D01*
X152272246Y-97226360D01*
X152275398Y-97237699D01*
X152278091Y-97251167D01*
X152188133Y-97251167D01*
X152188133Y-97161159D01*
X152203543Y-97163660D01*
X152203543Y-97163660D01*
G37*
X152203543Y-97163660D02*
X152224851Y-97171090D01*
X152244557Y-97185205D01*
X152260931Y-97204222D01*
X152272246Y-97226360D01*
X152275398Y-97237699D01*
X152278091Y-97251167D01*
X152188133Y-97251167D01*
X152188133Y-97161159D01*
X152203543Y-97163660D01*
G36*
X153580900Y-97251167D02*
X153492000Y-97251167D01*
X153492000Y-97240374D01*
X153495766Y-97222727D01*
X153505859Y-97204536D01*
X153520473Y-97187604D01*
X153537802Y-97173738D01*
X153556038Y-97164743D01*
X153570148Y-97162267D01*
X153580900Y-97162267D01*
X153580900Y-97251167D01*
X153580900Y-97251167D01*
G37*
X153580900Y-97251167D02*
X153492000Y-97251167D01*
X153492000Y-97240374D01*
X153495766Y-97222727D01*
X153505859Y-97204536D01*
X153520473Y-97187604D01*
X153537802Y-97173738D01*
X153556038Y-97164743D01*
X153570148Y-97162267D01*
X153580900Y-97162267D01*
X153580900Y-97251167D01*
G36*
X153609010Y-97163660D02*
X153630318Y-97171090D01*
X153650023Y-97185205D01*
X153666398Y-97204222D01*
X153677713Y-97226360D01*
X153680865Y-97237699D01*
X153683558Y-97251167D01*
X153593600Y-97251167D01*
X153593600Y-97161159D01*
X153609010Y-97163660D01*
X153609010Y-97163660D01*
G37*
X153609010Y-97163660D02*
X153630318Y-97171090D01*
X153650023Y-97185205D01*
X153666398Y-97204222D01*
X153677713Y-97226360D01*
X153680865Y-97237699D01*
X153683558Y-97251167D01*
X153593600Y-97251167D01*
X153593600Y-97161159D01*
X153609010Y-97163660D01*
G36*
X154448733Y-98747650D02*
X154448504Y-98769355D01*
X154447151Y-98783439D01*
X154443673Y-98790747D01*
X154437071Y-98792124D01*
X154426345Y-98788416D01*
X154410496Y-98780466D01*
X154410131Y-98780275D01*
X154388676Y-98765364D01*
X154372375Y-98746444D01*
X154362671Y-98725327D01*
X154361291Y-98719009D01*
X154358725Y-98703200D01*
X154448733Y-98703200D01*
X154448733Y-98747650D01*
X154448733Y-98747650D01*
G37*
X154448733Y-98747650D02*
X154448504Y-98769355D01*
X154447151Y-98783439D01*
X154443673Y-98790747D01*
X154437071Y-98792124D01*
X154426345Y-98788416D01*
X154410496Y-98780466D01*
X154410131Y-98780275D01*
X154388676Y-98765364D01*
X154372375Y-98746444D01*
X154362671Y-98725327D01*
X154361291Y-98719009D01*
X154358725Y-98703200D01*
X154448733Y-98703200D01*
X154448733Y-98747650D01*
G36*
X154548349Y-98714842D02*
X154537515Y-98742598D01*
X154520371Y-98764753D01*
X154497167Y-98781062D01*
X154471830Y-98790409D01*
X154461433Y-98793018D01*
X154461433Y-98703200D01*
X154551251Y-98703200D01*
X154548349Y-98714842D01*
X154548349Y-98714842D01*
G37*
X154548349Y-98714842D02*
X154537515Y-98742598D01*
X154520371Y-98764753D01*
X154497167Y-98781062D01*
X154471830Y-98790409D01*
X154461433Y-98793018D01*
X154461433Y-98703200D01*
X154551251Y-98703200D01*
X154548349Y-98714842D01*
G36*
X155803400Y-98747650D02*
X155803171Y-98769355D01*
X155801817Y-98783439D01*
X155798339Y-98790747D01*
X155791737Y-98792124D01*
X155781012Y-98788416D01*
X155765162Y-98780466D01*
X155764797Y-98780275D01*
X155743343Y-98765364D01*
X155727041Y-98746444D01*
X155717338Y-98725327D01*
X155715957Y-98719009D01*
X155713392Y-98703200D01*
X155803400Y-98703200D01*
X155803400Y-98747650D01*
X155803400Y-98747650D01*
G37*
X155803400Y-98747650D02*
X155803171Y-98769355D01*
X155801817Y-98783439D01*
X155798339Y-98790747D01*
X155791737Y-98792124D01*
X155781012Y-98788416D01*
X155765162Y-98780466D01*
X155764797Y-98780275D01*
X155743343Y-98765364D01*
X155727041Y-98746444D01*
X155717338Y-98725327D01*
X155715957Y-98719009D01*
X155713392Y-98703200D01*
X155803400Y-98703200D01*
X155803400Y-98747650D01*
G36*
X155903016Y-98714842D02*
X155892181Y-98742598D01*
X155875038Y-98764753D01*
X155851834Y-98781062D01*
X155826496Y-98790409D01*
X155816100Y-98793018D01*
X155816100Y-98703200D01*
X155905918Y-98703200D01*
X155903016Y-98714842D01*
X155903016Y-98714842D01*
G37*
X155903016Y-98714842D02*
X155892181Y-98742598D01*
X155875038Y-98764753D01*
X155851834Y-98781062D01*
X155826496Y-98790409D01*
X155816100Y-98793018D01*
X155816100Y-98703200D01*
X155905918Y-98703200D01*
X155903016Y-98714842D01*
G36*
X154448733Y-98690500D02*
X154359833Y-98690500D01*
X154359833Y-98679707D01*
X154363599Y-98662061D01*
X154373692Y-98643869D01*
X154388306Y-98626937D01*
X154405635Y-98613071D01*
X154423872Y-98604076D01*
X154437981Y-98601600D01*
X154448733Y-98601600D01*
X154448733Y-98690500D01*
X154448733Y-98690500D01*
G37*
X154448733Y-98690500D02*
X154359833Y-98690500D01*
X154359833Y-98679707D01*
X154363599Y-98662061D01*
X154373692Y-98643869D01*
X154388306Y-98626937D01*
X154405635Y-98613071D01*
X154423872Y-98604076D01*
X154437981Y-98601600D01*
X154448733Y-98601600D01*
X154448733Y-98690500D01*
G36*
X154476843Y-98602993D02*
X154498151Y-98610424D01*
X154517857Y-98624538D01*
X154534231Y-98643555D01*
X154545546Y-98665693D01*
X154548698Y-98677033D01*
X154551391Y-98690500D01*
X154461433Y-98690500D01*
X154461433Y-98600493D01*
X154476843Y-98602993D01*
X154476843Y-98602993D01*
G37*
X154476843Y-98602993D02*
X154498151Y-98610424D01*
X154517857Y-98624538D01*
X154534231Y-98643555D01*
X154545546Y-98665693D01*
X154548698Y-98677033D01*
X154551391Y-98690500D01*
X154461433Y-98690500D01*
X154461433Y-98600493D01*
X154476843Y-98602993D01*
G36*
X155803400Y-98690500D02*
X155714500Y-98690500D01*
X155714500Y-98679707D01*
X155718266Y-98662061D01*
X155728359Y-98643869D01*
X155742973Y-98626937D01*
X155760302Y-98613071D01*
X155778538Y-98604076D01*
X155792648Y-98601600D01*
X155803400Y-98601600D01*
X155803400Y-98690500D01*
X155803400Y-98690500D01*
G37*
X155803400Y-98690500D02*
X155714500Y-98690500D01*
X155714500Y-98679707D01*
X155718266Y-98662061D01*
X155728359Y-98643869D01*
X155742973Y-98626937D01*
X155760302Y-98613071D01*
X155778538Y-98604076D01*
X155792648Y-98601600D01*
X155803400Y-98601600D01*
X155803400Y-98690500D01*
G36*
X155831510Y-98602993D02*
X155852818Y-98610424D01*
X155872523Y-98624538D01*
X155888898Y-98643555D01*
X155900213Y-98665693D01*
X155903365Y-98677033D01*
X155906058Y-98690500D01*
X155816100Y-98690500D01*
X155816100Y-98600493D01*
X155831510Y-98602993D01*
X155831510Y-98602993D01*
G37*
X155831510Y-98602993D02*
X155852818Y-98610424D01*
X155872523Y-98624538D01*
X155888898Y-98643555D01*
X155900213Y-98665693D01*
X155903365Y-98677033D01*
X155906058Y-98690500D01*
X155816100Y-98690500D01*
X155816100Y-98600493D01*
X155831510Y-98602993D01*
G36*
X155803400Y-97308317D02*
X155803171Y-97330022D01*
X155801817Y-97344106D01*
X155798339Y-97351414D01*
X155791737Y-97352791D01*
X155781012Y-97349082D01*
X155765162Y-97341133D01*
X155764797Y-97340942D01*
X155743343Y-97326031D01*
X155727041Y-97307110D01*
X155717338Y-97285994D01*
X155715957Y-97279675D01*
X155713392Y-97263867D01*
X155803400Y-97263867D01*
X155803400Y-97308317D01*
X155803400Y-97308317D01*
G37*
X155803400Y-97308317D02*
X155803171Y-97330022D01*
X155801817Y-97344106D01*
X155798339Y-97351414D01*
X155791737Y-97352791D01*
X155781012Y-97349082D01*
X155765162Y-97341133D01*
X155764797Y-97340942D01*
X155743343Y-97326031D01*
X155727041Y-97307110D01*
X155717338Y-97285994D01*
X155715957Y-97279675D01*
X155713392Y-97263867D01*
X155803400Y-97263867D01*
X155803400Y-97308317D01*
G36*
X155903016Y-97275509D02*
X155892181Y-97303265D01*
X155875038Y-97325420D01*
X155851834Y-97341729D01*
X155826496Y-97351076D01*
X155816100Y-97353685D01*
X155816100Y-97263867D01*
X155905918Y-97263867D01*
X155903016Y-97275509D01*
X155903016Y-97275509D01*
G37*
X155903016Y-97275509D02*
X155892181Y-97303265D01*
X155875038Y-97325420D01*
X155851834Y-97341729D01*
X155826496Y-97351076D01*
X155816100Y-97353685D01*
X155816100Y-97263867D01*
X155905918Y-97263867D01*
X155903016Y-97275509D01*
G36*
X155803400Y-97251167D02*
X155714500Y-97251167D01*
X155714500Y-97240374D01*
X155718266Y-97222727D01*
X155728359Y-97204536D01*
X155742973Y-97187604D01*
X155760302Y-97173738D01*
X155778538Y-97164743D01*
X155792648Y-97162267D01*
X155803400Y-97162267D01*
X155803400Y-97251167D01*
X155803400Y-97251167D01*
G37*
X155803400Y-97251167D02*
X155714500Y-97251167D01*
X155714500Y-97240374D01*
X155718266Y-97222727D01*
X155728359Y-97204536D01*
X155742973Y-97187604D01*
X155760302Y-97173738D01*
X155778538Y-97164743D01*
X155792648Y-97162267D01*
X155803400Y-97162267D01*
X155803400Y-97251167D01*
G36*
X155831510Y-97163660D02*
X155852818Y-97171090D01*
X155872523Y-97185205D01*
X155888898Y-97204222D01*
X155900213Y-97226360D01*
X155903365Y-97237699D01*
X155906058Y-97251167D01*
X155816100Y-97251167D01*
X155816100Y-97161159D01*
X155831510Y-97163660D01*
X155831510Y-97163660D01*
G37*
X155831510Y-97163660D02*
X155852818Y-97171090D01*
X155872523Y-97185205D01*
X155888898Y-97204222D01*
X155900213Y-97226360D01*
X155903365Y-97237699D01*
X155906058Y-97251167D01*
X155816100Y-97251167D01*
X155816100Y-97161159D01*
X155831510Y-97163660D01*
D14*
X155036667Y-100152381D02*
X154703333Y-99676190D01*
X154465238Y-100152381D02*
X154465238Y-99152381D01*
X154846191Y-99152381D01*
X154941429Y-99200000D01*
X154989048Y-99247619D01*
X155036667Y-99342857D01*
X155036667Y-99485714D01*
X154989048Y-99580952D01*
X154941429Y-99628571D01*
X154846191Y-99676190D01*
X154465238Y-99676190D01*
X155465238Y-99628571D02*
X155798572Y-99628571D01*
X155941429Y-100152381D02*
X155465238Y-100152381D01*
X155465238Y-99152381D01*
X155941429Y-99152381D01*
X156703334Y-99628571D02*
X156370000Y-99628571D01*
X156370000Y-100152381D02*
X156370000Y-99152381D01*
X156846191Y-99152381D01*
X157370000Y-99152381D02*
X157370000Y-99390476D01*
X157131905Y-99295238D02*
X157370000Y-99390476D01*
X157608096Y-99295238D01*
X157227143Y-99580952D02*
X157370000Y-99390476D01*
X157512858Y-99580952D01*
X158131905Y-99152381D02*
X158131905Y-99390476D01*
X157893810Y-99295238D02*
X158131905Y-99390476D01*
X158370001Y-99295238D01*
X157989048Y-99580952D02*
X158131905Y-99390476D01*
X158274763Y-99580952D01*
X153233334Y-109857143D02*
X153185715Y-109904762D01*
X153042858Y-109952381D01*
X152947620Y-109952381D01*
X152804762Y-109904762D01*
X152709524Y-109809524D01*
X152661905Y-109714286D01*
X152614286Y-109523810D01*
X152614286Y-109380952D01*
X152661905Y-109190476D01*
X152709524Y-109095238D01*
X152804762Y-109000000D01*
X152947620Y-108952381D01*
X153042858Y-108952381D01*
X153185715Y-109000000D01*
X153233334Y-109047619D01*
X154185715Y-109952381D02*
X153614286Y-109952381D01*
X153900000Y-109952381D02*
X153900000Y-108952381D01*
X153804762Y-109095238D01*
X153709524Y-109190476D01*
X153614286Y-109238095D01*
X133433334Y-110257143D02*
X133385715Y-110304762D01*
X133242858Y-110352381D01*
X133147620Y-110352381D01*
X133004762Y-110304762D01*
X132909524Y-110209524D01*
X132861905Y-110114286D01*
X132814286Y-109923810D01*
X132814286Y-109780952D01*
X132861905Y-109590476D01*
X132909524Y-109495238D01*
X133004762Y-109400000D01*
X133147620Y-109352381D01*
X133242858Y-109352381D01*
X133385715Y-109400000D01*
X133433334Y-109447619D01*
X133814286Y-109447619D02*
X133861905Y-109400000D01*
X133957143Y-109352381D01*
X134195239Y-109352381D01*
X134290477Y-109400000D01*
X134338096Y-109447619D01*
X134385715Y-109542857D01*
X134385715Y-109638095D01*
X134338096Y-109780952D01*
X133766667Y-110352381D01*
X134385715Y-110352381D01*
X129233334Y-114552381D02*
X128757143Y-114552381D01*
X128757143Y-113552381D01*
X130090477Y-114552381D02*
X129519048Y-114552381D01*
X129804762Y-114552381D02*
X129804762Y-113552381D01*
X129709524Y-113695238D01*
X129614286Y-113790476D01*
X129519048Y-113838095D01*
X137633334Y-110352381D02*
X137157143Y-110352381D01*
X137157143Y-109352381D01*
X137919048Y-109447619D02*
X137966667Y-109400000D01*
X138061905Y-109352381D01*
X138300001Y-109352381D01*
X138395239Y-109400000D01*
X138442858Y-109447619D01*
X138490477Y-109542857D01*
X138490477Y-109638095D01*
X138442858Y-109780952D01*
X137871429Y-110352381D01*
X138490477Y-110352381D01*
X132261905Y-112452381D02*
X132261905Y-111452381D01*
X132642858Y-111452381D01*
X132738096Y-111500000D01*
X132785715Y-111547619D01*
X132833334Y-111642857D01*
X132833334Y-111785714D01*
X132785715Y-111880952D01*
X132738096Y-111928571D01*
X132642858Y-111976190D01*
X132261905Y-111976190D01*
X133785715Y-112452381D02*
X133214286Y-112452381D01*
X133500000Y-112452381D02*
X133500000Y-111452381D01*
X133404762Y-111595238D01*
X133309524Y-111690476D01*
X133214286Y-111738095D01*
D13*
X133703572Y-108603571D02*
X132846429Y-108603571D01*
X133275001Y-108603571D02*
X133275001Y-107103571D01*
X133132144Y-107317857D01*
X132989286Y-107460714D01*
X132846429Y-107532143D01*
D16*
X170789429Y-112524857D02*
X169265429Y-112524857D01*
X169265429Y-111944285D01*
X169338000Y-111799143D01*
X169410571Y-111726571D01*
X169555714Y-111654000D01*
X169773429Y-111654000D01*
X169918571Y-111726571D01*
X169991143Y-111799143D01*
X170063714Y-111944285D01*
X170063714Y-112524857D01*
X169410571Y-111073428D02*
X169338000Y-111000857D01*
X169265429Y-110855714D01*
X169265429Y-110492857D01*
X169338000Y-110347714D01*
X169410571Y-110275143D01*
X169555714Y-110202571D01*
X169700857Y-110202571D01*
X169918571Y-110275143D01*
X170789429Y-111146000D01*
X170789429Y-110202571D01*
D14*
X137033334Y-96152381D02*
X136700000Y-95676190D01*
X136461905Y-96152381D02*
X136461905Y-95152381D01*
X136842858Y-95152381D01*
X136938096Y-95200000D01*
X136985715Y-95247619D01*
X137033334Y-95342857D01*
X137033334Y-95485714D01*
X136985715Y-95580952D01*
X136938096Y-95628571D01*
X136842858Y-95676190D01*
X136461905Y-95676190D01*
X137985715Y-96152381D02*
X137414286Y-96152381D01*
X137700000Y-96152381D02*
X137700000Y-95152381D01*
X137604762Y-95295238D01*
X137509524Y-95390476D01*
X137414286Y-95438095D01*
X143233334Y-96152381D02*
X142900000Y-95676190D01*
X142661905Y-96152381D02*
X142661905Y-95152381D01*
X143042858Y-95152381D01*
X143138096Y-95200000D01*
X143185715Y-95247619D01*
X143233334Y-95342857D01*
X143233334Y-95485714D01*
X143185715Y-95580952D01*
X143138096Y-95628571D01*
X143042858Y-95676190D01*
X142661905Y-95676190D01*
X143614286Y-95247619D02*
X143661905Y-95200000D01*
X143757143Y-95152381D01*
X143995239Y-95152381D01*
X144090477Y-95200000D01*
X144138096Y-95247619D01*
X144185715Y-95342857D01*
X144185715Y-95438095D01*
X144138096Y-95580952D01*
X143566667Y-96152381D01*
X144185715Y-96152381D01*
X163352381Y-97966666D02*
X162876190Y-98300000D01*
X163352381Y-98538095D02*
X162352381Y-98538095D01*
X162352381Y-98157142D01*
X162400000Y-98061904D01*
X162447619Y-98014285D01*
X162542857Y-97966666D01*
X162685714Y-97966666D01*
X162780952Y-98014285D01*
X162828571Y-98061904D01*
X162876190Y-98157142D01*
X162876190Y-98538095D01*
X162352381Y-97633333D02*
X162352381Y-97014285D01*
X162733333Y-97347619D01*
X162733333Y-97204761D01*
X162780952Y-97109523D01*
X162828571Y-97061904D01*
X162923810Y-97014285D01*
X163161905Y-97014285D01*
X163257143Y-97061904D01*
X163304762Y-97109523D01*
X163352381Y-97204761D01*
X163352381Y-97490476D01*
X163304762Y-97585714D01*
X163257143Y-97633333D01*
X165952381Y-106966666D02*
X165476190Y-107300000D01*
X165952381Y-107538095D02*
X164952381Y-107538095D01*
X164952381Y-107157142D01*
X165000000Y-107061904D01*
X165047619Y-107014285D01*
X165142857Y-106966666D01*
X165285714Y-106966666D01*
X165380952Y-107014285D01*
X165428571Y-107061904D01*
X165476190Y-107157142D01*
X165476190Y-107538095D01*
X165285714Y-106109523D02*
X165952381Y-106109523D01*
X164904762Y-106347619D02*
X165619048Y-106585714D01*
X165619048Y-105966666D01*
X144638095Y-108652381D02*
X144638095Y-109461905D01*
X144685714Y-109557143D01*
X144733333Y-109604762D01*
X144828571Y-109652381D01*
X145019048Y-109652381D01*
X145114286Y-109604762D01*
X145161905Y-109557143D01*
X145209524Y-109461905D01*
X145209524Y-108652381D01*
X146209524Y-109652381D02*
X145638095Y-109652381D01*
X145923809Y-109652381D02*
X145923809Y-108652381D01*
X145828571Y-108795238D01*
X145733333Y-108890476D01*
X145638095Y-108938095D01*
X145252381Y-105761905D02*
X146061905Y-105761905D01*
X146157143Y-105714286D01*
X146204762Y-105666667D01*
X146252381Y-105571429D01*
X146252381Y-105380952D01*
X146204762Y-105285714D01*
X146157143Y-105238095D01*
X146061905Y-105190476D01*
X145252381Y-105190476D01*
X145347619Y-104761905D02*
X145300000Y-104714286D01*
X145252381Y-104619048D01*
X145252381Y-104380952D01*
X145300000Y-104285714D01*
X145347619Y-104238095D01*
X145442857Y-104190476D01*
X145538095Y-104190476D01*
X145680952Y-104238095D01*
X146252381Y-104809524D01*
X146252381Y-104190476D01*
D12*
X121537481Y-105765505D02*
X122347005Y-105765505D01*
X122442243Y-105717886D01*
X122489862Y-105670267D01*
X122537481Y-105575029D01*
X122537481Y-105384552D01*
X122489862Y-105289314D01*
X122442243Y-105241695D01*
X122347005Y-105194076D01*
X121537481Y-105194076D01*
X121537481Y-104813124D02*
X121537481Y-104194076D01*
X121918433Y-104527410D01*
X121918433Y-104384552D01*
X121966052Y-104289314D01*
X122013671Y-104241695D01*
X122108910Y-104194076D01*
X122347005Y-104194076D01*
X122442243Y-104241695D01*
X122489862Y-104289314D01*
X122537481Y-104384552D01*
X122537481Y-104670267D01*
X122489862Y-104765505D01*
X122442243Y-104813124D01*
D14*
X139096667Y-100152381D02*
X138763333Y-99676190D01*
X138525238Y-100152381D02*
X138525238Y-99152381D01*
X138906191Y-99152381D01*
X139001429Y-99200000D01*
X139049048Y-99247619D01*
X139096667Y-99342857D01*
X139096667Y-99485714D01*
X139049048Y-99580952D01*
X139001429Y-99628571D01*
X138906191Y-99676190D01*
X138525238Y-99676190D01*
X139525238Y-99628571D02*
X139858572Y-99628571D01*
X140001429Y-100152381D02*
X139525238Y-100152381D01*
X139525238Y-99152381D01*
X140001429Y-99152381D01*
X140763334Y-99628571D02*
X140430000Y-99628571D01*
X140430000Y-100152381D02*
X140430000Y-99152381D01*
X140906191Y-99152381D01*
X141430000Y-99152381D02*
X141430000Y-99390476D01*
X141191905Y-99295238D02*
X141430000Y-99390476D01*
X141668096Y-99295238D01*
X141287143Y-99580952D02*
X141430000Y-99390476D01*
X141572858Y-99580952D01*
X142191905Y-99152381D02*
X142191905Y-99390476D01*
X141953810Y-99295238D02*
X142191905Y-99390476D01*
X142430001Y-99295238D01*
X142049048Y-99580952D02*
X142191905Y-99390476D01*
X142334763Y-99580952D01*
M02*
