G04 #@! TF.FileFunction,Copper,L2,Bot,Signal*
%FSLAX46Y46*%
G04 Gerber Fmt 4.6, Leading zero omitted, Abs format (unit mm)*
G04 Created by KiCad (PCBNEW 4.0.5) date 02/17/17 15:16:51*
%MOMM*%
%LPD*%
G01*
G04 APERTURE LIST*
%ADD10C,0.100000*%
%ADD11C,1.524000*%
%ADD12R,1.397000X1.397000*%
%ADD13C,1.397000*%
%ADD14C,3.302000*%
%ADD15C,1.778000*%
%ADD16R,1.778000X1.778000*%
%ADD17C,0.600000*%
%ADD18C,0.250000*%
%ADD19C,0.254000*%
G04 APERTURE END LIST*
D10*
D11*
X131500000Y-108000000D03*
X131500000Y-106000000D03*
X131500000Y-104000000D03*
X131500000Y-102000000D03*
D12*
X167480000Y-110130000D03*
D13*
X167480000Y-112670000D03*
X164940000Y-110130000D03*
X164940000Y-112670000D03*
X162400000Y-110130000D03*
X162400000Y-112670000D03*
X159860000Y-110130000D03*
X159860000Y-112670000D03*
X157320000Y-110130000D03*
X157320000Y-112670000D03*
D14*
X125641100Y-96113600D03*
X125641100Y-113893600D03*
X171361100Y-113893600D03*
X171361100Y-96113600D03*
D15*
X129451100Y-115163600D03*
X131991100Y-115163600D03*
X134531100Y-115163600D03*
X137071100Y-115163600D03*
X139611100Y-115163600D03*
X142151100Y-115163600D03*
X144691100Y-115163600D03*
X147231100Y-115163600D03*
X149771100Y-115163600D03*
X152311100Y-115163600D03*
X154851100Y-115163600D03*
X157391100Y-115163600D03*
X159931100Y-115163600D03*
X162471100Y-115163600D03*
X165011100Y-115163600D03*
D16*
X167551100Y-115163600D03*
D15*
X142151100Y-94843600D03*
D16*
X139611100Y-94843600D03*
D15*
X144691100Y-94843600D03*
X147231100Y-94843600D03*
X149771100Y-94843600D03*
X152311100Y-94843600D03*
X154851100Y-94843600D03*
X157391100Y-94843600D03*
X159931100Y-94843600D03*
X162471100Y-94843600D03*
X165011100Y-94843600D03*
X167551100Y-94843600D03*
D17*
X151100000Y-109200000D03*
X161300000Y-96300000D03*
X146300000Y-99500000D03*
X165000000Y-102000000D03*
X151000000Y-100300000D03*
X146400000Y-97600000D03*
X145200000Y-100900000D03*
X145600000Y-98600000D03*
X149600000Y-100300000D03*
X149200000Y-110400000D03*
X150400000Y-111000000D03*
X148800000Y-108900000D03*
X144800000Y-112300000D03*
X146300000Y-109400000D03*
X141200000Y-112800000D03*
X152300000Y-113150000D03*
X150300000Y-101100000D03*
X148000000Y-100700000D03*
X150450000Y-112500000D03*
D18*
X146300000Y-100100000D02*
X146300000Y-99500000D01*
X150900000Y-104700000D02*
X146300000Y-100100000D01*
X150900000Y-109000000D02*
X150900000Y-104700000D01*
X151100000Y-109200000D02*
X150900000Y-109000000D01*
X165000000Y-102000000D02*
X166000000Y-102000000D01*
X167480000Y-103480000D02*
X167480000Y-110130000D01*
X166000000Y-102000000D02*
X167480000Y-103480000D01*
X161300000Y-96300000D02*
X161300000Y-98300000D01*
X161300000Y-98300000D02*
X165000000Y-102000000D01*
X146300000Y-99500000D02*
X146300000Y-99500000D01*
X136600000Y-97600000D02*
X146400000Y-97600000D01*
X132200000Y-102000000D02*
X136600000Y-97600000D01*
X131500000Y-102000000D02*
X132200000Y-102000000D01*
X146400000Y-97600000D02*
X148300000Y-97600000D01*
X148300000Y-97600000D02*
X151000000Y-100300000D01*
X131500000Y-102000000D02*
X130800000Y-102000000D01*
X131500000Y-108000000D02*
X132900000Y-108000000D01*
X136800000Y-99800000D02*
X142200000Y-99800000D01*
X135000000Y-101600000D02*
X136800000Y-99800000D01*
X135000000Y-102000000D02*
X135000000Y-101600000D01*
X142200000Y-99800000D02*
X144300000Y-101900000D01*
X135000000Y-105900000D02*
X135000000Y-102000000D01*
X132900000Y-108000000D02*
X135000000Y-105900000D01*
X144300000Y-101800000D02*
X144300000Y-101900000D01*
X144250000Y-101850000D02*
X144300000Y-101800000D01*
X145200000Y-100900000D02*
X144250000Y-101850000D01*
X147900000Y-98600000D02*
X145600000Y-98600000D01*
X144300000Y-101900000D02*
X145600000Y-103200000D01*
X145600000Y-103200000D02*
X145600000Y-106400000D01*
X145600000Y-106400000D02*
X147000000Y-107800000D01*
X147000000Y-107800000D02*
X149600000Y-107800000D01*
X149600000Y-107800000D02*
X149600000Y-110000000D01*
X149600000Y-100300000D02*
X147900000Y-98600000D01*
X149600000Y-110000000D02*
X149200000Y-110400000D01*
X149200000Y-110400000D02*
X149600000Y-110000000D01*
X133000000Y-104500000D02*
X131500000Y-106000000D01*
X133000000Y-102600000D02*
X133000000Y-104500000D01*
X136500000Y-99100000D02*
X133000000Y-102600000D01*
X144600000Y-99100000D02*
X136500000Y-99100000D01*
X150400000Y-104900000D02*
X144600000Y-99100000D01*
X150400000Y-111000000D02*
X150400000Y-104900000D01*
X131500000Y-106000000D02*
X131200000Y-106000000D01*
X163500000Y-111570000D02*
X164940000Y-110130000D01*
X163500000Y-113800000D02*
X163500000Y-111570000D01*
X150200000Y-113800000D02*
X163500000Y-113800000D01*
X149700000Y-113300000D02*
X150200000Y-113800000D01*
X149700000Y-111700000D02*
X149700000Y-113300000D01*
X150400000Y-111000000D02*
X149700000Y-111700000D01*
X148200000Y-108900000D02*
X148800000Y-108900000D01*
X144800000Y-112300000D02*
X148200000Y-108900000D01*
X144600000Y-109400000D02*
X146300000Y-109400000D01*
X141200000Y-112800000D02*
X144600000Y-109400000D01*
X152300000Y-108400000D02*
X152300000Y-113150000D01*
X151900000Y-108000000D02*
X152300000Y-108400000D01*
X151900000Y-102700000D02*
X151900000Y-108000000D01*
X150300000Y-101100000D02*
X151900000Y-102700000D01*
X151400000Y-104100000D02*
X148000000Y-100700000D01*
X151400000Y-108400000D02*
X151400000Y-104100000D01*
X151800000Y-108800000D02*
X151400000Y-108400000D01*
X151800000Y-111150000D02*
X151800000Y-108800000D01*
X150450000Y-112500000D02*
X151800000Y-111150000D01*
D19*
G36*
X138074660Y-95732600D02*
X138118938Y-95967917D01*
X138258010Y-96184041D01*
X138470210Y-96329031D01*
X138722100Y-96380040D01*
X140500100Y-96380040D01*
X140735417Y-96335762D01*
X140951541Y-96196690D01*
X141096531Y-95984490D01*
X141103291Y-95951106D01*
X141286696Y-96134831D01*
X141846628Y-96367335D01*
X142452912Y-96367864D01*
X143013249Y-96136338D01*
X143421436Y-95728863D01*
X143826696Y-96134831D01*
X144386628Y-96367335D01*
X144992912Y-96367864D01*
X145553249Y-96136338D01*
X145961436Y-95728863D01*
X146366696Y-96134831D01*
X146926628Y-96367335D01*
X147532912Y-96367864D01*
X148093249Y-96136338D01*
X148501436Y-95728863D01*
X148906696Y-96134831D01*
X149466628Y-96367335D01*
X150072912Y-96367864D01*
X150633249Y-96136338D01*
X151041436Y-95728863D01*
X151446696Y-96134831D01*
X152006628Y-96367335D01*
X152612912Y-96367864D01*
X153173249Y-96136338D01*
X153581436Y-95728863D01*
X153986696Y-96134831D01*
X154546628Y-96367335D01*
X155152912Y-96367864D01*
X155713249Y-96136338D01*
X156121436Y-95728863D01*
X156526696Y-96134831D01*
X157086628Y-96367335D01*
X157692912Y-96367864D01*
X158253249Y-96136338D01*
X158661436Y-95728863D01*
X159066696Y-96134831D01*
X159626628Y-96367335D01*
X160232912Y-96367864D01*
X160364988Y-96313292D01*
X160364838Y-96485167D01*
X160506883Y-96828943D01*
X160540000Y-96862118D01*
X160540000Y-98300000D01*
X160597852Y-98590839D01*
X160762599Y-98837401D01*
X164064878Y-102139680D01*
X164064838Y-102185167D01*
X164206883Y-102528943D01*
X164469673Y-102792192D01*
X164813201Y-102934838D01*
X165185167Y-102935162D01*
X165528943Y-102793117D01*
X165562118Y-102760000D01*
X165685198Y-102760000D01*
X166720000Y-103794802D01*
X166720000Y-108795632D01*
X166546183Y-108828338D01*
X166330059Y-108967410D01*
X166185069Y-109179610D01*
X166134060Y-109431500D01*
X166134060Y-109527884D01*
X166071146Y-109375620D01*
X165696353Y-109000173D01*
X165206413Y-108796732D01*
X164675914Y-108796269D01*
X164185620Y-108998854D01*
X163810173Y-109373647D01*
X163669906Y-109711446D01*
X163531146Y-109375620D01*
X163156353Y-109000173D01*
X162666413Y-108796732D01*
X162135914Y-108796269D01*
X161645620Y-108998854D01*
X161270173Y-109373647D01*
X161129906Y-109711446D01*
X160991146Y-109375620D01*
X160616353Y-109000173D01*
X160126413Y-108796732D01*
X159595914Y-108796269D01*
X159105620Y-108998854D01*
X158730173Y-109373647D01*
X158589906Y-109711446D01*
X158451146Y-109375620D01*
X158076353Y-109000173D01*
X157586413Y-108796732D01*
X157055914Y-108796269D01*
X156565620Y-108998854D01*
X156190173Y-109373647D01*
X155986732Y-109863587D01*
X155986269Y-110394086D01*
X156188854Y-110884380D01*
X156563647Y-111259827D01*
X156901446Y-111400094D01*
X156565620Y-111538854D01*
X156190173Y-111913647D01*
X155986732Y-112403587D01*
X155986269Y-112934086D01*
X156030032Y-113040000D01*
X153235097Y-113040000D01*
X153235162Y-112964833D01*
X153093117Y-112621057D01*
X153060000Y-112587882D01*
X153060000Y-108400000D01*
X153002148Y-108109161D01*
X153002148Y-108109160D01*
X152837401Y-107862599D01*
X152660000Y-107685198D01*
X152660000Y-105601050D01*
X153334474Y-105601050D01*
X153795552Y-106716943D01*
X154648566Y-107571447D01*
X155763653Y-108034472D01*
X156971050Y-108035526D01*
X158086943Y-107574448D01*
X158941447Y-106721434D01*
X159404472Y-105606347D01*
X159405526Y-104398950D01*
X158944448Y-103283057D01*
X158091434Y-102428553D01*
X156976347Y-101965528D01*
X155768950Y-101964474D01*
X154653057Y-102425552D01*
X153798553Y-103278566D01*
X153335528Y-104393653D01*
X153334474Y-105601050D01*
X152660000Y-105601050D01*
X152660000Y-102700000D01*
X152602148Y-102409161D01*
X152437401Y-102162599D01*
X151235122Y-100960320D01*
X151235162Y-100914833D01*
X151093117Y-100571057D01*
X150830327Y-100307808D01*
X150535101Y-100185219D01*
X150535162Y-100114833D01*
X150393117Y-99771057D01*
X150130327Y-99507808D01*
X149786799Y-99365162D01*
X149739923Y-99365121D01*
X148437401Y-98062599D01*
X148190839Y-97897852D01*
X147900000Y-97840000D01*
X146162463Y-97840000D01*
X146130327Y-97807808D01*
X145786799Y-97665162D01*
X145414833Y-97664838D01*
X145071057Y-97806883D01*
X144807808Y-98069673D01*
X144688267Y-98357558D01*
X144600000Y-98340000D01*
X136500000Y-98340000D01*
X136257414Y-98388254D01*
X136209160Y-98397852D01*
X135962599Y-98562599D01*
X132878786Y-101646412D01*
X132722397Y-101268857D01*
X132480213Y-101199392D01*
X131679605Y-102000000D01*
X131693748Y-102014143D01*
X131514143Y-102193748D01*
X131500000Y-102179605D01*
X130973698Y-102705907D01*
X130709697Y-102814990D01*
X130316371Y-103207630D01*
X130103243Y-103720900D01*
X130102758Y-104276661D01*
X130314990Y-104790303D01*
X130524342Y-105000021D01*
X130316371Y-105207630D01*
X130103243Y-105720900D01*
X130102758Y-106276661D01*
X130314990Y-106790303D01*
X130524342Y-107000021D01*
X130316371Y-107207630D01*
X130103243Y-107720900D01*
X130102758Y-108276661D01*
X130314990Y-108790303D01*
X130707630Y-109183629D01*
X131220900Y-109396757D01*
X131776661Y-109397242D01*
X132290303Y-109185010D01*
X132683629Y-108792370D01*
X132697070Y-108760000D01*
X132900000Y-108760000D01*
X133190839Y-108702148D01*
X133437401Y-108537401D01*
X135537401Y-106437401D01*
X135702148Y-106190840D01*
X135718395Y-106109161D01*
X135760000Y-105900000D01*
X135760000Y-105601050D01*
X137394474Y-105601050D01*
X137855552Y-106716943D01*
X138708566Y-107571447D01*
X139823653Y-108034472D01*
X141031050Y-108035526D01*
X142146943Y-107574448D01*
X143001447Y-106721434D01*
X143464472Y-105606347D01*
X143465526Y-104398950D01*
X143004448Y-103283057D01*
X142151434Y-102428553D01*
X141036347Y-101965528D01*
X139828950Y-101964474D01*
X138713057Y-102425552D01*
X137858553Y-103278566D01*
X137395528Y-104393653D01*
X137394474Y-105601050D01*
X135760000Y-105601050D01*
X135760000Y-101914802D01*
X137114802Y-100560000D01*
X141885198Y-100560000D01*
X144840000Y-103514802D01*
X144840000Y-106400000D01*
X144897852Y-106690839D01*
X145062599Y-106937401D01*
X146462599Y-108337401D01*
X146709161Y-108502148D01*
X147000000Y-108560000D01*
X147465198Y-108560000D01*
X147110959Y-108914239D01*
X147093117Y-108871057D01*
X146830327Y-108607808D01*
X146486799Y-108465162D01*
X146114833Y-108464838D01*
X145771057Y-108606883D01*
X145737882Y-108640000D01*
X144600000Y-108640000D01*
X144309161Y-108697852D01*
X144062599Y-108862599D01*
X141060320Y-111864878D01*
X141014833Y-111864838D01*
X140671057Y-112006883D01*
X140407808Y-112269673D01*
X140265162Y-112613201D01*
X140264838Y-112985167D01*
X140406883Y-113328943D01*
X140669673Y-113592192D01*
X141013201Y-113734838D01*
X141385167Y-113735162D01*
X141728943Y-113593117D01*
X141992192Y-113330327D01*
X142134838Y-112986799D01*
X142134879Y-112939923D01*
X144914802Y-110160000D01*
X145737537Y-110160000D01*
X145769673Y-110192192D01*
X145814424Y-110210774D01*
X144660320Y-111364878D01*
X144614833Y-111364838D01*
X144271057Y-111506883D01*
X144007808Y-111769673D01*
X143865162Y-112113201D01*
X143864838Y-112485167D01*
X144006883Y-112828943D01*
X144269673Y-113092192D01*
X144613201Y-113234838D01*
X144985167Y-113235162D01*
X145328943Y-113093117D01*
X145592192Y-112830327D01*
X145734838Y-112486799D01*
X145734879Y-112439923D01*
X148420133Y-109754669D01*
X148492790Y-109784839D01*
X148407808Y-109869673D01*
X148265162Y-110213201D01*
X148264838Y-110585167D01*
X148406883Y-110928943D01*
X148669673Y-111192192D01*
X149013201Y-111334838D01*
X149047493Y-111334868D01*
X148997852Y-111409161D01*
X148940000Y-111700000D01*
X148940000Y-113300000D01*
X148997852Y-113590839D01*
X149125242Y-113781492D01*
X148908951Y-113870862D01*
X148500764Y-114278337D01*
X148095504Y-113872369D01*
X147535572Y-113639865D01*
X146929288Y-113639336D01*
X146368951Y-113870862D01*
X145960764Y-114278337D01*
X145555504Y-113872369D01*
X144995572Y-113639865D01*
X144389288Y-113639336D01*
X143828951Y-113870862D01*
X143420764Y-114278337D01*
X143015504Y-113872369D01*
X142455572Y-113639865D01*
X141849288Y-113639336D01*
X141288951Y-113870862D01*
X140880764Y-114278337D01*
X140475504Y-113872369D01*
X139915572Y-113639865D01*
X139309288Y-113639336D01*
X138748951Y-113870862D01*
X138340764Y-114278337D01*
X137935504Y-113872369D01*
X137375572Y-113639865D01*
X136769288Y-113639336D01*
X136208951Y-113870862D01*
X135800764Y-114278337D01*
X135395504Y-113872369D01*
X134835572Y-113639865D01*
X134229288Y-113639336D01*
X133668951Y-113870862D01*
X133260764Y-114278337D01*
X132855504Y-113872369D01*
X132295572Y-113639865D01*
X131689288Y-113639336D01*
X131128951Y-113870862D01*
X130720764Y-114278337D01*
X130315504Y-113872369D01*
X129755572Y-113639865D01*
X129149288Y-113639336D01*
X128588951Y-113870862D01*
X128159869Y-114299196D01*
X127927365Y-114859128D01*
X127926836Y-115465412D01*
X128036161Y-115730000D01*
X127037208Y-115730000D01*
X127577946Y-115190205D01*
X127926702Y-114350308D01*
X127927496Y-113440881D01*
X127580206Y-112600377D01*
X126937705Y-111956754D01*
X126097808Y-111607998D01*
X125188381Y-111607204D01*
X124347877Y-111954494D01*
X123810000Y-112491433D01*
X123810000Y-101792302D01*
X130090856Y-101792302D01*
X130118638Y-102347368D01*
X130277603Y-102731143D01*
X130519787Y-102800608D01*
X131320395Y-102000000D01*
X130519787Y-101199392D01*
X130277603Y-101268857D01*
X130090856Y-101792302D01*
X123810000Y-101792302D01*
X123810000Y-101019787D01*
X130699392Y-101019787D01*
X131500000Y-101820395D01*
X132300608Y-101019787D01*
X132231143Y-100777603D01*
X131707698Y-100590856D01*
X131152632Y-100618638D01*
X130768857Y-100777603D01*
X130699392Y-101019787D01*
X123810000Y-101019787D01*
X123810000Y-97515018D01*
X124344495Y-98050446D01*
X125184392Y-98399202D01*
X126093819Y-98399996D01*
X126934323Y-98052706D01*
X127577946Y-97410205D01*
X127926702Y-96570308D01*
X127927496Y-95660881D01*
X127580206Y-94820377D01*
X127040771Y-94280000D01*
X138074660Y-94280000D01*
X138074660Y-95732600D01*
X138074660Y-95732600D01*
G37*
X138074660Y-95732600D02*
X138118938Y-95967917D01*
X138258010Y-96184041D01*
X138470210Y-96329031D01*
X138722100Y-96380040D01*
X140500100Y-96380040D01*
X140735417Y-96335762D01*
X140951541Y-96196690D01*
X141096531Y-95984490D01*
X141103291Y-95951106D01*
X141286696Y-96134831D01*
X141846628Y-96367335D01*
X142452912Y-96367864D01*
X143013249Y-96136338D01*
X143421436Y-95728863D01*
X143826696Y-96134831D01*
X144386628Y-96367335D01*
X144992912Y-96367864D01*
X145553249Y-96136338D01*
X145961436Y-95728863D01*
X146366696Y-96134831D01*
X146926628Y-96367335D01*
X147532912Y-96367864D01*
X148093249Y-96136338D01*
X148501436Y-95728863D01*
X148906696Y-96134831D01*
X149466628Y-96367335D01*
X150072912Y-96367864D01*
X150633249Y-96136338D01*
X151041436Y-95728863D01*
X151446696Y-96134831D01*
X152006628Y-96367335D01*
X152612912Y-96367864D01*
X153173249Y-96136338D01*
X153581436Y-95728863D01*
X153986696Y-96134831D01*
X154546628Y-96367335D01*
X155152912Y-96367864D01*
X155713249Y-96136338D01*
X156121436Y-95728863D01*
X156526696Y-96134831D01*
X157086628Y-96367335D01*
X157692912Y-96367864D01*
X158253249Y-96136338D01*
X158661436Y-95728863D01*
X159066696Y-96134831D01*
X159626628Y-96367335D01*
X160232912Y-96367864D01*
X160364988Y-96313292D01*
X160364838Y-96485167D01*
X160506883Y-96828943D01*
X160540000Y-96862118D01*
X160540000Y-98300000D01*
X160597852Y-98590839D01*
X160762599Y-98837401D01*
X164064878Y-102139680D01*
X164064838Y-102185167D01*
X164206883Y-102528943D01*
X164469673Y-102792192D01*
X164813201Y-102934838D01*
X165185167Y-102935162D01*
X165528943Y-102793117D01*
X165562118Y-102760000D01*
X165685198Y-102760000D01*
X166720000Y-103794802D01*
X166720000Y-108795632D01*
X166546183Y-108828338D01*
X166330059Y-108967410D01*
X166185069Y-109179610D01*
X166134060Y-109431500D01*
X166134060Y-109527884D01*
X166071146Y-109375620D01*
X165696353Y-109000173D01*
X165206413Y-108796732D01*
X164675914Y-108796269D01*
X164185620Y-108998854D01*
X163810173Y-109373647D01*
X163669906Y-109711446D01*
X163531146Y-109375620D01*
X163156353Y-109000173D01*
X162666413Y-108796732D01*
X162135914Y-108796269D01*
X161645620Y-108998854D01*
X161270173Y-109373647D01*
X161129906Y-109711446D01*
X160991146Y-109375620D01*
X160616353Y-109000173D01*
X160126413Y-108796732D01*
X159595914Y-108796269D01*
X159105620Y-108998854D01*
X158730173Y-109373647D01*
X158589906Y-109711446D01*
X158451146Y-109375620D01*
X158076353Y-109000173D01*
X157586413Y-108796732D01*
X157055914Y-108796269D01*
X156565620Y-108998854D01*
X156190173Y-109373647D01*
X155986732Y-109863587D01*
X155986269Y-110394086D01*
X156188854Y-110884380D01*
X156563647Y-111259827D01*
X156901446Y-111400094D01*
X156565620Y-111538854D01*
X156190173Y-111913647D01*
X155986732Y-112403587D01*
X155986269Y-112934086D01*
X156030032Y-113040000D01*
X153235097Y-113040000D01*
X153235162Y-112964833D01*
X153093117Y-112621057D01*
X153060000Y-112587882D01*
X153060000Y-108400000D01*
X153002148Y-108109161D01*
X153002148Y-108109160D01*
X152837401Y-107862599D01*
X152660000Y-107685198D01*
X152660000Y-105601050D01*
X153334474Y-105601050D01*
X153795552Y-106716943D01*
X154648566Y-107571447D01*
X155763653Y-108034472D01*
X156971050Y-108035526D01*
X158086943Y-107574448D01*
X158941447Y-106721434D01*
X159404472Y-105606347D01*
X159405526Y-104398950D01*
X158944448Y-103283057D01*
X158091434Y-102428553D01*
X156976347Y-101965528D01*
X155768950Y-101964474D01*
X154653057Y-102425552D01*
X153798553Y-103278566D01*
X153335528Y-104393653D01*
X153334474Y-105601050D01*
X152660000Y-105601050D01*
X152660000Y-102700000D01*
X152602148Y-102409161D01*
X152437401Y-102162599D01*
X151235122Y-100960320D01*
X151235162Y-100914833D01*
X151093117Y-100571057D01*
X150830327Y-100307808D01*
X150535101Y-100185219D01*
X150535162Y-100114833D01*
X150393117Y-99771057D01*
X150130327Y-99507808D01*
X149786799Y-99365162D01*
X149739923Y-99365121D01*
X148437401Y-98062599D01*
X148190839Y-97897852D01*
X147900000Y-97840000D01*
X146162463Y-97840000D01*
X146130327Y-97807808D01*
X145786799Y-97665162D01*
X145414833Y-97664838D01*
X145071057Y-97806883D01*
X144807808Y-98069673D01*
X144688267Y-98357558D01*
X144600000Y-98340000D01*
X136500000Y-98340000D01*
X136257414Y-98388254D01*
X136209160Y-98397852D01*
X135962599Y-98562599D01*
X132878786Y-101646412D01*
X132722397Y-101268857D01*
X132480213Y-101199392D01*
X131679605Y-102000000D01*
X131693748Y-102014143D01*
X131514143Y-102193748D01*
X131500000Y-102179605D01*
X130973698Y-102705907D01*
X130709697Y-102814990D01*
X130316371Y-103207630D01*
X130103243Y-103720900D01*
X130102758Y-104276661D01*
X130314990Y-104790303D01*
X130524342Y-105000021D01*
X130316371Y-105207630D01*
X130103243Y-105720900D01*
X130102758Y-106276661D01*
X130314990Y-106790303D01*
X130524342Y-107000021D01*
X130316371Y-107207630D01*
X130103243Y-107720900D01*
X130102758Y-108276661D01*
X130314990Y-108790303D01*
X130707630Y-109183629D01*
X131220900Y-109396757D01*
X131776661Y-109397242D01*
X132290303Y-109185010D01*
X132683629Y-108792370D01*
X132697070Y-108760000D01*
X132900000Y-108760000D01*
X133190839Y-108702148D01*
X133437401Y-108537401D01*
X135537401Y-106437401D01*
X135702148Y-106190840D01*
X135718395Y-106109161D01*
X135760000Y-105900000D01*
X135760000Y-105601050D01*
X137394474Y-105601050D01*
X137855552Y-106716943D01*
X138708566Y-107571447D01*
X139823653Y-108034472D01*
X141031050Y-108035526D01*
X142146943Y-107574448D01*
X143001447Y-106721434D01*
X143464472Y-105606347D01*
X143465526Y-104398950D01*
X143004448Y-103283057D01*
X142151434Y-102428553D01*
X141036347Y-101965528D01*
X139828950Y-101964474D01*
X138713057Y-102425552D01*
X137858553Y-103278566D01*
X137395528Y-104393653D01*
X137394474Y-105601050D01*
X135760000Y-105601050D01*
X135760000Y-101914802D01*
X137114802Y-100560000D01*
X141885198Y-100560000D01*
X144840000Y-103514802D01*
X144840000Y-106400000D01*
X144897852Y-106690839D01*
X145062599Y-106937401D01*
X146462599Y-108337401D01*
X146709161Y-108502148D01*
X147000000Y-108560000D01*
X147465198Y-108560000D01*
X147110959Y-108914239D01*
X147093117Y-108871057D01*
X146830327Y-108607808D01*
X146486799Y-108465162D01*
X146114833Y-108464838D01*
X145771057Y-108606883D01*
X145737882Y-108640000D01*
X144600000Y-108640000D01*
X144309161Y-108697852D01*
X144062599Y-108862599D01*
X141060320Y-111864878D01*
X141014833Y-111864838D01*
X140671057Y-112006883D01*
X140407808Y-112269673D01*
X140265162Y-112613201D01*
X140264838Y-112985167D01*
X140406883Y-113328943D01*
X140669673Y-113592192D01*
X141013201Y-113734838D01*
X141385167Y-113735162D01*
X141728943Y-113593117D01*
X141992192Y-113330327D01*
X142134838Y-112986799D01*
X142134879Y-112939923D01*
X144914802Y-110160000D01*
X145737537Y-110160000D01*
X145769673Y-110192192D01*
X145814424Y-110210774D01*
X144660320Y-111364878D01*
X144614833Y-111364838D01*
X144271057Y-111506883D01*
X144007808Y-111769673D01*
X143865162Y-112113201D01*
X143864838Y-112485167D01*
X144006883Y-112828943D01*
X144269673Y-113092192D01*
X144613201Y-113234838D01*
X144985167Y-113235162D01*
X145328943Y-113093117D01*
X145592192Y-112830327D01*
X145734838Y-112486799D01*
X145734879Y-112439923D01*
X148420133Y-109754669D01*
X148492790Y-109784839D01*
X148407808Y-109869673D01*
X148265162Y-110213201D01*
X148264838Y-110585167D01*
X148406883Y-110928943D01*
X148669673Y-111192192D01*
X149013201Y-111334838D01*
X149047493Y-111334868D01*
X148997852Y-111409161D01*
X148940000Y-111700000D01*
X148940000Y-113300000D01*
X148997852Y-113590839D01*
X149125242Y-113781492D01*
X148908951Y-113870862D01*
X148500764Y-114278337D01*
X148095504Y-113872369D01*
X147535572Y-113639865D01*
X146929288Y-113639336D01*
X146368951Y-113870862D01*
X145960764Y-114278337D01*
X145555504Y-113872369D01*
X144995572Y-113639865D01*
X144389288Y-113639336D01*
X143828951Y-113870862D01*
X143420764Y-114278337D01*
X143015504Y-113872369D01*
X142455572Y-113639865D01*
X141849288Y-113639336D01*
X141288951Y-113870862D01*
X140880764Y-114278337D01*
X140475504Y-113872369D01*
X139915572Y-113639865D01*
X139309288Y-113639336D01*
X138748951Y-113870862D01*
X138340764Y-114278337D01*
X137935504Y-113872369D01*
X137375572Y-113639865D01*
X136769288Y-113639336D01*
X136208951Y-113870862D01*
X135800764Y-114278337D01*
X135395504Y-113872369D01*
X134835572Y-113639865D01*
X134229288Y-113639336D01*
X133668951Y-113870862D01*
X133260764Y-114278337D01*
X132855504Y-113872369D01*
X132295572Y-113639865D01*
X131689288Y-113639336D01*
X131128951Y-113870862D01*
X130720764Y-114278337D01*
X130315504Y-113872369D01*
X129755572Y-113639865D01*
X129149288Y-113639336D01*
X128588951Y-113870862D01*
X128159869Y-114299196D01*
X127927365Y-114859128D01*
X127926836Y-115465412D01*
X128036161Y-115730000D01*
X127037208Y-115730000D01*
X127577946Y-115190205D01*
X127926702Y-114350308D01*
X127927496Y-113440881D01*
X127580206Y-112600377D01*
X126937705Y-111956754D01*
X126097808Y-111607998D01*
X125188381Y-111607204D01*
X124347877Y-111954494D01*
X123810000Y-112491433D01*
X123810000Y-101792302D01*
X130090856Y-101792302D01*
X130118638Y-102347368D01*
X130277603Y-102731143D01*
X130519787Y-102800608D01*
X131320395Y-102000000D01*
X130519787Y-101199392D01*
X130277603Y-101268857D01*
X130090856Y-101792302D01*
X123810000Y-101792302D01*
X123810000Y-101019787D01*
X130699392Y-101019787D01*
X131500000Y-101820395D01*
X132300608Y-101019787D01*
X132231143Y-100777603D01*
X131707698Y-100590856D01*
X131152632Y-100618638D01*
X130768857Y-100777603D01*
X130699392Y-101019787D01*
X123810000Y-101019787D01*
X123810000Y-97515018D01*
X124344495Y-98050446D01*
X125184392Y-98399202D01*
X126093819Y-98399996D01*
X126934323Y-98052706D01*
X127577946Y-97410205D01*
X127926702Y-96570308D01*
X127927496Y-95660881D01*
X127580206Y-94820377D01*
X127040771Y-94280000D01*
X138074660Y-94280000D01*
X138074660Y-95732600D01*
G36*
X161268854Y-110884380D02*
X161643647Y-111259827D01*
X161965118Y-111393314D01*
X161707071Y-111500200D01*
X161645417Y-111735812D01*
X162400000Y-112490395D01*
X162414143Y-112476253D01*
X162593748Y-112655858D01*
X162579605Y-112670000D01*
X162593748Y-112684143D01*
X162414143Y-112863748D01*
X162400000Y-112849605D01*
X162385858Y-112863748D01*
X162206253Y-112684143D01*
X162220395Y-112670000D01*
X161465812Y-111915417D01*
X161230200Y-111977071D01*
X161131917Y-112256312D01*
X160991146Y-111915620D01*
X160616353Y-111540173D01*
X160278554Y-111399906D01*
X160614380Y-111261146D01*
X160989827Y-110886353D01*
X161130094Y-110548554D01*
X161268854Y-110884380D01*
X161268854Y-110884380D01*
G37*
X161268854Y-110884380D02*
X161643647Y-111259827D01*
X161965118Y-111393314D01*
X161707071Y-111500200D01*
X161645417Y-111735812D01*
X162400000Y-112490395D01*
X162414143Y-112476253D01*
X162593748Y-112655858D01*
X162579605Y-112670000D01*
X162593748Y-112684143D01*
X162414143Y-112863748D01*
X162400000Y-112849605D01*
X162385858Y-112863748D01*
X162206253Y-112684143D01*
X162220395Y-112670000D01*
X161465812Y-111915417D01*
X161230200Y-111977071D01*
X161131917Y-112256312D01*
X160991146Y-111915620D01*
X160616353Y-111540173D01*
X160278554Y-111399906D01*
X160614380Y-111261146D01*
X160989827Y-110886353D01*
X161130094Y-110548554D01*
X161268854Y-110884380D01*
M02*
